G04 #@! TF.GenerationSoftware,KiCad,Pcbnew,8.0.8*
G04 #@! TF.CreationDate,2025-02-07T15:06:47+09:00*
G04 #@! TF.ProjectId,solenoid valve2020,736f6c65-6e6f-4696-9420-76616c766532,rev?*
G04 #@! TF.SameCoordinates,Original*
G04 #@! TF.FileFunction,Legend,Bot*
G04 #@! TF.FilePolarity,Positive*
%FSLAX46Y46*%
G04 Gerber Fmt 4.6, Leading zero omitted, Abs format (unit mm)*
G04 Created by KiCad (PCBNEW 8.0.8) date 2025-02-07 15:06:47*
%MOMM*%
%LPD*%
G01*
G04 APERTURE LIST*
%ADD10C,0.150000*%
%ADD11C,0.152400*%
G04 APERTURE END LIST*
D10*
X72710839Y-110465057D02*
X72663220Y-110417438D01*
X72663220Y-110417438D02*
X72567982Y-110369819D01*
X72567982Y-110369819D02*
X72329887Y-110369819D01*
X72329887Y-110369819D02*
X72234649Y-110417438D01*
X72234649Y-110417438D02*
X72187030Y-110465057D01*
X72187030Y-110465057D02*
X72139411Y-110560295D01*
X72139411Y-110560295D02*
X72139411Y-110655533D01*
X72139411Y-110655533D02*
X72187030Y-110798390D01*
X72187030Y-110798390D02*
X72758458Y-111369819D01*
X72758458Y-111369819D02*
X72139411Y-111369819D01*
X71282268Y-110703152D02*
X71282268Y-111369819D01*
X71520363Y-110322200D02*
X71758458Y-111036485D01*
X71758458Y-111036485D02*
X71139411Y-111036485D01*
X70901315Y-110369819D02*
X70329887Y-110369819D01*
X70615601Y-111369819D02*
X70615601Y-110369819D01*
X69996553Y-110988866D02*
X69234649Y-110988866D01*
X68901315Y-110369819D02*
X67710839Y-110369819D01*
X68710839Y-111179342D02*
X67853696Y-111179342D01*
X68282268Y-110560295D02*
X68282268Y-110798390D01*
X68282268Y-110226961D02*
X68282268Y-110369819D01*
X68044173Y-110512676D02*
X68044173Y-110798390D01*
X68663220Y-110941247D02*
X67853696Y-110893628D01*
X67853696Y-110893628D02*
X67853696Y-111369819D01*
X68425125Y-110465057D02*
X68329887Y-110512676D01*
X67853696Y-110607914D02*
X67663220Y-110798390D01*
X67853696Y-110512676D02*
X67758458Y-110750771D01*
X68139411Y-110417438D02*
X68234649Y-110512676D01*
X68710839Y-110512676D02*
X68806077Y-110750771D01*
X68520363Y-110798390D02*
X68663220Y-110798390D01*
X68806077Y-111322200D02*
X68901315Y-111369819D01*
X67758458Y-110465057D02*
X68091792Y-110512676D01*
X68663220Y-110941247D02*
X68758458Y-111274580D01*
X68853696Y-110512676D02*
X68472744Y-110512676D01*
X68472744Y-110512676D02*
X68520363Y-110798390D01*
X67853696Y-110750771D02*
X68139411Y-110798390D01*
X67425125Y-110322200D02*
X66187030Y-110322200D01*
X66948935Y-110655533D02*
X66234649Y-110655533D01*
X67329887Y-110750771D02*
X67044173Y-110750771D01*
X66996554Y-110846009D02*
X66187030Y-110846009D01*
X67329887Y-110988866D02*
X67044173Y-110988866D01*
X67044173Y-110226961D02*
X67044173Y-110465057D01*
X66567983Y-110226961D02*
X66567983Y-110465057D01*
X66853697Y-111036485D02*
X66758459Y-111084104D01*
X66472744Y-110798390D02*
X66234649Y-110988866D01*
X66710840Y-110798390D02*
X66996554Y-111036485D01*
X66377506Y-110512676D02*
X66425125Y-110607914D01*
X66377506Y-110988866D02*
X66472744Y-111084104D01*
X66853697Y-110512676D02*
X66806078Y-110607914D01*
X66520364Y-110655533D02*
X66425125Y-110893628D01*
X66520364Y-111179342D02*
X66234649Y-111274580D01*
X66615602Y-110512676D02*
X66806078Y-110893628D01*
X66663221Y-111226961D02*
X66948935Y-111274580D01*
X67329887Y-110512676D02*
X67044173Y-110512676D01*
X67044173Y-110512676D02*
X67044173Y-111369819D01*
X67044173Y-111369819D02*
X67187030Y-111369819D01*
X66615602Y-110941247D02*
X66615602Y-111369819D01*
X66615602Y-111369819D02*
X66710840Y-111369819D01*
X67329887Y-110512676D02*
X67329887Y-111036485D01*
X67329887Y-111036485D02*
X67377506Y-111369819D01*
X65187031Y-111369819D02*
X64758459Y-111369819D01*
X65663221Y-110226961D02*
X65663221Y-110465057D01*
X65615602Y-110750771D02*
X65615602Y-111369819D01*
X65187031Y-110274580D02*
X65187031Y-111322200D01*
X65615602Y-110750771D02*
X65425126Y-110988866D01*
X65901316Y-110512676D02*
X65425126Y-110512676D01*
X65425126Y-110512676D02*
X65520364Y-110655533D01*
X65520364Y-110655533D02*
X65853697Y-110988866D01*
X64710840Y-111131723D02*
X64758459Y-111369819D01*
X64044174Y-110703152D02*
X63282269Y-110703152D01*
X63996555Y-111322200D02*
X63377507Y-111322200D01*
X63996555Y-110893628D02*
X63996555Y-111369819D01*
X63996555Y-110893628D02*
X63377507Y-110893628D01*
X63377507Y-110893628D02*
X63377507Y-111369819D01*
X63520364Y-110465057D02*
X63234650Y-110750771D01*
X64377507Y-110274580D02*
X64139412Y-110369819D01*
X64472745Y-110607914D02*
X64234650Y-110703152D01*
X64187031Y-110941247D02*
X64329888Y-111274580D01*
X63758460Y-110226961D02*
X63996555Y-110703152D01*
X62901317Y-110465057D02*
X62282270Y-110465057D01*
X62996555Y-110655533D02*
X62187032Y-110655533D01*
X62472746Y-111274580D02*
X62282270Y-111274580D01*
X61996555Y-111369819D02*
X61758460Y-111369819D01*
X62901317Y-110893628D02*
X62901317Y-111274580D01*
X62615603Y-110226961D02*
X62615603Y-111369819D01*
X62901317Y-110893628D02*
X62282270Y-110893628D01*
X62282270Y-110893628D02*
X62282270Y-111274580D01*
X61996555Y-110369819D02*
X61996555Y-111036485D01*
X61758460Y-110226961D02*
X61758460Y-111369819D01*
X62806079Y-110274580D02*
X62948936Y-110607914D01*
X60948937Y-110512676D02*
X60282270Y-110512676D01*
X60758461Y-110750771D02*
X60282270Y-110750771D01*
X60758461Y-111036485D02*
X60282270Y-111036485D01*
X61282270Y-110465057D02*
X61282270Y-111369819D01*
X60758461Y-110465057D02*
X60758461Y-111369819D01*
X61187032Y-110274580D02*
X61329889Y-110560295D01*
X61329889Y-110560295D02*
X61520365Y-110750771D01*
X60853699Y-110274580D02*
X60996556Y-110607914D01*
X60996556Y-110607914D02*
X61139413Y-110750771D01*
X58901318Y-110322200D02*
X57901318Y-110322200D01*
X58853699Y-110607914D02*
X58567985Y-110607914D01*
X58282271Y-110607914D02*
X57948937Y-110607914D01*
X58901318Y-110750771D02*
X58567985Y-110750771D01*
X58282271Y-110750771D02*
X57901318Y-110750771D01*
X58853699Y-111036485D02*
X57901318Y-111036485D01*
X58853699Y-111226961D02*
X57901318Y-111226961D01*
X58377509Y-111369819D02*
X57806080Y-111369819D01*
X58996556Y-110465057D02*
X58996556Y-110655533D01*
X58853699Y-110893628D02*
X58853699Y-111274580D01*
X58425128Y-110322200D02*
X58425128Y-110798390D01*
X58377509Y-110893628D02*
X58377509Y-111369819D01*
X58853699Y-110893628D02*
X57901318Y-110893628D01*
X57901318Y-110893628D02*
X57901318Y-111226961D01*
X58996556Y-110465057D02*
X57806080Y-110465057D01*
X57806080Y-110465057D02*
X57806080Y-110655533D01*
X57758461Y-111226961D02*
X57806080Y-111369819D01*
X57520366Y-110322200D02*
X57091795Y-110322200D01*
X57044176Y-110465057D02*
X56282271Y-110465057D01*
X57377509Y-111226961D02*
X57139414Y-111226961D01*
X57377509Y-110607914D02*
X57377509Y-111322200D01*
X57425128Y-110750771D02*
X57139414Y-110750771D01*
X57139414Y-110750771D02*
X57139414Y-111226961D01*
X57044176Y-110798390D02*
X56853700Y-110988866D01*
X56663224Y-110846009D02*
X56472747Y-111036485D01*
X56901319Y-110226961D02*
X56853700Y-110417438D01*
X56472747Y-110560295D02*
X56615605Y-110846009D01*
X56377509Y-110750771D02*
X56663224Y-111322200D01*
X56853700Y-110560295D02*
X56996557Y-110846009D01*
X56758462Y-110750771D02*
X57044176Y-111322200D01*
X56472747Y-110226961D02*
X56520366Y-110417438D01*
X57329890Y-110417438D02*
X57520366Y-110988866D01*
X57329890Y-110369819D02*
X57472747Y-110893628D01*
X56806081Y-111131723D02*
X56758462Y-111322200D01*
X56758462Y-111322200D02*
X57091795Y-111322200D01*
X56377509Y-111131723D02*
X56329890Y-111322200D01*
X56329890Y-111322200D02*
X56663224Y-111322200D01*
X55996557Y-110560295D02*
X54901319Y-110560295D01*
X56044176Y-110893628D02*
X54806081Y-110893628D01*
X55139415Y-110655533D02*
X55139415Y-111369819D01*
X55091795Y-110417438D02*
X54853700Y-110655533D01*
X55615605Y-110274580D02*
X55806081Y-110560295D01*
X55663224Y-110607914D02*
X55663224Y-110893628D01*
X55663224Y-110893628D02*
X55758462Y-111131723D01*
X55758462Y-111131723D02*
X55948938Y-111369819D01*
X54520367Y-110417438D02*
X53377510Y-110417438D01*
X54234653Y-110560295D02*
X53615605Y-110560295D01*
X54234653Y-110750771D02*
X53615605Y-110750771D01*
X54567986Y-110893628D02*
X53329891Y-110893628D01*
X54282272Y-111131723D02*
X53615605Y-111131723D01*
X54472748Y-111369819D02*
X53425129Y-111369819D01*
X53948939Y-110988866D02*
X53948939Y-111369819D01*
X54234653Y-110226961D02*
X54234653Y-110893628D01*
X54234653Y-110893628D02*
X54472748Y-111179342D01*
X53615605Y-110226961D02*
X53615605Y-110893628D01*
X53615605Y-110893628D02*
X53520367Y-111084104D01*
X53520367Y-111084104D02*
X53282272Y-111179342D01*
X53091796Y-110655533D02*
X52520368Y-110655533D01*
X53091796Y-111369819D02*
X51853701Y-111369819D01*
X52901320Y-111036485D02*
X52901320Y-111369819D01*
X52758463Y-110703152D02*
X52758463Y-110846009D01*
X52615606Y-111036485D02*
X52615606Y-111369819D01*
X52329892Y-111036485D02*
X52329892Y-111369819D01*
X52901320Y-111036485D02*
X52044177Y-111036485D01*
X52044177Y-111036485D02*
X52044177Y-111369819D01*
X52806082Y-110417438D02*
X52758463Y-110560295D01*
X52329892Y-110703152D02*
X52187035Y-110846009D01*
X52187035Y-110846009D02*
X51901320Y-110988866D01*
X52329892Y-110274580D02*
X52044177Y-110274580D01*
X52044177Y-110274580D02*
X52044177Y-110560295D01*
X52044177Y-110560295D02*
X51853701Y-110512676D01*
X51853701Y-110512676D02*
X51853701Y-110560295D01*
X52425130Y-110655533D02*
X51948939Y-110655533D01*
X51948939Y-110655533D02*
X52139415Y-110846009D01*
X52139415Y-110846009D02*
X52425130Y-110988866D01*
X52948939Y-110322200D02*
X52567987Y-110322200D01*
X52567987Y-110322200D02*
X52567987Y-110941247D01*
X52567987Y-110941247D02*
X52710844Y-110941247D01*
X52329892Y-110274580D02*
X52377511Y-110560295D01*
X52948939Y-110322200D02*
X52948939Y-110655533D01*
X52948939Y-110655533D02*
X52996558Y-110893628D01*
X52758463Y-110274580D02*
X52806082Y-110322200D01*
D11*
G04 #@! TO.C,CN1*
X58492000Y-78889000D02*
G75*
G02*
X57730000Y-78889000I-381000J0D01*
G01*
X57730000Y-78889000D02*
G75*
G02*
X58492000Y-78889000I381000J0D01*
G01*
G04 #@! TD*
M02*
