G04 #@! TF.GenerationSoftware,KiCad,Pcbnew,8.0.8*
G04 #@! TF.CreationDate,2025-02-07T15:06:47+09:00*
G04 #@! TF.ProjectId,solenoid valve2020,736f6c65-6e6f-4696-9420-76616c766532,rev?*
G04 #@! TF.SameCoordinates,Original*
G04 #@! TF.FileFunction,Soldermask,Top*
G04 #@! TF.FilePolarity,Negative*
%FSLAX46Y46*%
G04 Gerber Fmt 4.6, Leading zero omitted, Abs format (unit mm)*
G04 Created by KiCad (PCBNEW 8.0.8) date 2025-02-07 15:06:47*
%MOMM*%
%LPD*%
G01*
G04 APERTURE LIST*
G04 Aperture macros list*
%AMRoundRect*
0 Rectangle with rounded corners*
0 $1 Rounding radius*
0 $2 $3 $4 $5 $6 $7 $8 $9 X,Y pos of 4 corners*
0 Add a 4 corners polygon primitive as box body*
4,1,4,$2,$3,$4,$5,$6,$7,$8,$9,$2,$3,0*
0 Add four circle primitives for the rounded corners*
1,1,$1+$1,$2,$3*
1,1,$1+$1,$4,$5*
1,1,$1+$1,$6,$7*
1,1,$1+$1,$8,$9*
0 Add four rect primitives between the rounded corners*
20,1,$1+$1,$2,$3,$4,$5,0*
20,1,$1+$1,$4,$5,$6,$7,0*
20,1,$1+$1,$6,$7,$8,$9,0*
20,1,$1+$1,$8,$9,$2,$3,0*%
G04 Aperture macros list end*
%ADD10R,1.050000X0.750000*%
%ADD11R,1.050000X0.800000*%
%ADD12RoundRect,0.237500X0.250000X0.237500X-0.250000X0.237500X-0.250000X-0.237500X0.250000X-0.237500X0*%
%ADD13RoundRect,0.237500X-0.237500X0.250000X-0.237500X-0.250000X0.237500X-0.250000X0.237500X0.250000X0*%
%ADD14R,1.700000X1.700000*%
%ADD15O,1.700000X1.700000*%
%ADD16R,2.000000X1.400000*%
%ADD17RoundRect,0.237500X-0.237500X0.300000X-0.237500X-0.300000X0.237500X-0.300000X0.237500X0.300000X0*%
%ADD18RoundRect,0.237500X-0.237500X0.287500X-0.237500X-0.287500X0.237500X-0.287500X0.237500X0.287500X0*%
%ADD19R,1.550000X0.600000*%
%ADD20C,3.200000*%
%ADD21RoundRect,0.250000X-0.450000X0.325000X-0.450000X-0.325000X0.450000X-0.325000X0.450000X0.325000X0*%
%ADD22C,3.440000*%
%ADD23R,1.400000X1.400000*%
%ADD24C,1.400000*%
%ADD25R,1.600000X1.600000*%
%ADD26C,1.600000*%
%ADD27RoundRect,0.237500X0.237500X-0.250000X0.237500X0.250000X-0.237500X0.250000X-0.237500X-0.250000X0*%
%ADD28R,1.200000X1.550000*%
%ADD29RoundRect,0.237500X-0.250000X-0.237500X0.250000X-0.237500X0.250000X0.237500X-0.250000X0.237500X0*%
%ADD30C,3.251200*%
%ADD31C,1.397000*%
%ADD32C,2.133600*%
%ADD33RoundRect,0.237500X0.237500X-0.300000X0.237500X0.300000X-0.237500X0.300000X-0.237500X-0.300000X0*%
%ADD34RoundRect,0.100000X-1.075000X0.100000X-1.075000X-0.100000X1.075000X-0.100000X1.075000X0.100000X0*%
%ADD35R,1.810000X1.160000*%
%ADD36RoundRect,0.237500X-0.287500X-0.237500X0.287500X-0.237500X0.287500X0.237500X-0.287500X0.237500X0*%
%ADD37RoundRect,0.250000X-1.250000X-2.750000X1.250000X-2.750000X1.250000X2.750000X-1.250000X2.750000X0*%
%ADD38RoundRect,0.576923X-0.923077X-2.423077X0.923077X-2.423077X0.923077X2.423077X-0.923077X2.423077X0*%
%ADD39R,1.520000X0.600000*%
G04 APERTURE END LIST*
D10*
G04 #@! TO.C,U7*
X82104000Y-61429000D03*
X82104000Y-59429000D03*
D11*
X79154000Y-60429000D03*
G04 #@! TD*
D12*
G04 #@! TO.C,R18*
X69412500Y-66000000D03*
X67587500Y-66000000D03*
G04 #@! TD*
D13*
G04 #@! TO.C,R21*
X75000000Y-60587500D03*
X75000000Y-62412500D03*
G04 #@! TD*
D14*
G04 #@! TO.C,JP1*
X89519000Y-60380000D03*
D15*
X92059000Y-60380000D03*
X89519000Y-62920000D03*
X92059000Y-62920000D03*
X89519000Y-65460000D03*
X92059000Y-65460000D03*
X89519000Y-68000000D03*
X92059000Y-68000000D03*
G04 #@! TD*
D16*
G04 #@! TO.C,SW1*
X59000000Y-85500000D03*
X52000000Y-85500000D03*
X59000000Y-81500000D03*
X52000000Y-81500000D03*
G04 #@! TD*
D17*
G04 #@! TO.C,C18*
X84500000Y-59566500D03*
X84500000Y-61291500D03*
G04 #@! TD*
D18*
G04 #@! TO.C,D8*
X86500000Y-51625000D03*
X86500000Y-53375000D03*
G04 #@! TD*
D19*
G04 #@! TO.C,U6*
X73500000Y-54190000D03*
X73500000Y-55460000D03*
X73500000Y-56730000D03*
X73500000Y-58000000D03*
X68100000Y-58000000D03*
X68100000Y-56730000D03*
X68100000Y-55460000D03*
X68100000Y-54190000D03*
G04 #@! TD*
D20*
G04 #@! TO.C,REF\u002A\u002A*
X55000000Y-55000000D03*
G04 #@! TD*
D13*
G04 #@! TO.C,R14*
X91500000Y-86587500D03*
X91500000Y-88412500D03*
G04 #@! TD*
D21*
G04 #@! TO.C,D9*
X89500000Y-90147000D03*
X89500000Y-92197000D03*
G04 #@! TD*
D22*
G04 #@! TO.C,X0*
X63377000Y-108077000D03*
D23*
X64627000Y-101577000D03*
D24*
X62127000Y-101577000D03*
G04 #@! TD*
D25*
G04 #@! TO.C,C17*
X81000000Y-64493000D03*
D26*
X81000000Y-66493000D03*
G04 #@! TD*
D27*
G04 #@! TO.C,R16*
X77327000Y-79375500D03*
X77327000Y-77550500D03*
G04 #@! TD*
G04 #@! TO.C,R19*
X67500000Y-76412500D03*
X67500000Y-74587500D03*
G04 #@! TD*
D28*
G04 #@! TO.C,TLP172AM3*
X74025000Y-87332000D03*
X71425000Y-87357000D03*
X71425000Y-93957000D03*
X74025000Y-93957000D03*
G04 #@! TD*
D29*
G04 #@! TO.C,R4*
X67587500Y-64000000D03*
X69412500Y-64000000D03*
G04 #@! TD*
D30*
G04 #@! TO.C,CN1*
X55571000Y-63522000D03*
X55571000Y-76222000D03*
D31*
X58111000Y-73428000D03*
X59889000Y-72412000D03*
X58111000Y-71396000D03*
X59889000Y-70380000D03*
X58111000Y-69364000D03*
X59889000Y-68348000D03*
X58111000Y-67332000D03*
X59889000Y-66316000D03*
X64715000Y-76730000D03*
X64715000Y-74444000D03*
D32*
X59000000Y-61744000D03*
X59000000Y-78000000D03*
D31*
X64715000Y-65300000D03*
X64715000Y-63014000D03*
G04 #@! TD*
D13*
G04 #@! TO.C,R1*
X72755000Y-83138500D03*
X72755000Y-84963500D03*
G04 #@! TD*
G04 #@! TO.C,R5*
X81137000Y-83138500D03*
X81137000Y-84963500D03*
G04 #@! TD*
D25*
G04 #@! TO.C,C14*
X63455113Y-56500000D03*
D26*
X61455113Y-56500000D03*
G04 #@! TD*
D28*
G04 #@! TO.C,TLP172AM1*
X79867000Y-87332000D03*
X77267000Y-87357000D03*
X77267000Y-93957000D03*
X79867000Y-93957000D03*
G04 #@! TD*
D17*
G04 #@! TO.C,C15*
X77000000Y-60637500D03*
X77000000Y-62362500D03*
G04 #@! TD*
D13*
G04 #@! TO.C,R15*
X94000000Y-86553000D03*
X94000000Y-88378000D03*
G04 #@! TD*
D33*
G04 #@! TO.C,C20*
X75803000Y-79325500D03*
X75803000Y-77600500D03*
G04 #@! TD*
D22*
G04 #@! TO.C,X2*
X82641000Y-108077000D03*
D23*
X83891000Y-101577000D03*
D24*
X81391000Y-101577000D03*
G04 #@! TD*
D22*
G04 #@! TO.C,X1*
X73029000Y-108077000D03*
D23*
X74279000Y-101577000D03*
D24*
X71779000Y-101577000D03*
G04 #@! TD*
D34*
G04 #@! TO.C,U$6*
X77102000Y-73199000D03*
X77102000Y-74399000D03*
X77102000Y-75599000D03*
G04 #@! TD*
D13*
G04 #@! TO.C,R13*
X89265000Y-86553000D03*
X89265000Y-88378000D03*
G04 #@! TD*
D22*
G04 #@! TO.C,X3*
X54000000Y-92413000D03*
D23*
X60500000Y-93663000D03*
D24*
X60500000Y-91163000D03*
G04 #@! TD*
D21*
G04 #@! TO.C,D11*
X94500000Y-90147000D03*
X94500000Y-92197000D03*
G04 #@! TD*
D13*
G04 #@! TO.C,R6*
X86725000Y-83138500D03*
X86725000Y-84963500D03*
G04 #@! TD*
D35*
G04 #@! TO.C,F1*
X68500000Y-71975000D03*
X68500000Y-69025000D03*
G04 #@! TD*
D27*
G04 #@! TO.C,R17*
X74279000Y-79375500D03*
X74279000Y-77550500D03*
G04 #@! TD*
D36*
G04 #@! TO.C,D2*
X83451000Y-96243000D03*
X85201000Y-96243000D03*
G04 #@! TD*
D13*
G04 #@! TO.C,R2*
X75549000Y-83138500D03*
X75549000Y-84963500D03*
G04 #@! TD*
D20*
G04 #@! TO.C,REF\u002A\u002A*
X55033000Y-104026000D03*
G04 #@! TD*
D17*
G04 #@! TO.C,C16*
X74500000Y-68275000D03*
X74500000Y-70000000D03*
G04 #@! TD*
D12*
G04 #@! TO.C,R20*
X69412500Y-62000000D03*
X67587500Y-62000000D03*
G04 #@! TD*
D20*
G04 #@! TO.C,REF\u002A\u002A*
X91033000Y-55000000D03*
G04 #@! TD*
D13*
G04 #@! TO.C,R7*
X83931000Y-83138500D03*
X83931000Y-84963500D03*
G04 #@! TD*
D36*
G04 #@! TO.C,D1*
X77863000Y-96243000D03*
X79613000Y-96243000D03*
G04 #@! TD*
D21*
G04 #@! TO.C,D10*
X92000000Y-90147000D03*
X92000000Y-92197000D03*
G04 #@! TD*
D20*
G04 #@! TO.C,REF\u002A\u002A*
X91033000Y-104026000D03*
G04 #@! TD*
D29*
G04 #@! TO.C,R23*
X69587500Y-52000000D03*
X71412500Y-52000000D03*
G04 #@! TD*
D33*
G04 #@! TO.C,C19*
X72500000Y-70000000D03*
X72500000Y-68275000D03*
G04 #@! TD*
D37*
G04 #@! TO.C,L1*
X83500000Y-55500000D03*
D38*
X78500000Y-55500000D03*
G04 #@! TD*
D39*
G04 #@! TO.C,U2*
X68500000Y-79960000D03*
X68500000Y-81230000D03*
X68500000Y-82500000D03*
X68500000Y-83770000D03*
X62980000Y-79960000D03*
X62980000Y-81230000D03*
X62980000Y-82500000D03*
X62980000Y-83770000D03*
G04 #@! TD*
D36*
G04 #@! TO.C,D0*
X71626000Y-96243000D03*
X73376000Y-96243000D03*
G04 #@! TD*
D13*
G04 #@! TO.C,R3*
X78343000Y-83138500D03*
X78343000Y-84963500D03*
G04 #@! TD*
D27*
G04 #@! TO.C,R22*
X72500000Y-62412500D03*
X72500000Y-60587500D03*
G04 #@! TD*
D28*
G04 #@! TO.C,TLP172AM2*
X85739000Y-87332000D03*
X83139000Y-87357000D03*
X83139000Y-93957000D03*
X85739000Y-93957000D03*
G04 #@! TD*
M02*
