G04 #@! TF.GenerationSoftware,KiCad,Pcbnew,8.0.8*
G04 #@! TF.CreationDate,2025-02-07T18:14:43+09:00*
G04 #@! TF.ProjectId,solenoid valve2020,736f6c65-6e6f-4696-9420-76616c766532,rev?*
G04 #@! TF.SameCoordinates,Original*
G04 #@! TF.FileFunction,Soldermask,Bot*
G04 #@! TF.FilePolarity,Negative*
%FSLAX46Y46*%
G04 Gerber Fmt 4.6, Leading zero omitted, Abs format (unit mm)*
G04 Created by KiCad (PCBNEW 8.0.8) date 2025-02-07 18:14:43*
%MOMM*%
%LPD*%
G01*
G04 APERTURE LIST*
%ADD10C,0.100000*%
%ADD11R,1.700000X1.700000*%
%ADD12O,1.700000X1.700000*%
%ADD13C,3.200000*%
%ADD14C,3.440000*%
%ADD15R,1.400000X1.400000*%
%ADD16C,1.400000*%
%ADD17R,1.600000X1.600000*%
%ADD18C,1.600000*%
%ADD19C,3.251200*%
%ADD20C,1.397000*%
%ADD21C,2.133600*%
G04 APERTURE END LIST*
D10*
G04 #@! TO.C,U2*
X63740000Y-79365000D02*
X67740000Y-79365000D01*
X63740000Y-84365000D02*
X63740000Y-79365000D01*
X67740000Y-79365000D02*
X67740000Y-81865000D01*
X67740000Y-81865000D02*
X67740000Y-84365000D01*
X67740000Y-84365000D02*
X63740000Y-84365000D01*
G04 #@! TD*
D11*
G04 #@! TO.C,JP1*
X89519000Y-60380000D03*
D12*
X92059000Y-60380000D03*
X89519000Y-62920000D03*
X92059000Y-62920000D03*
X89519000Y-65460000D03*
X92059000Y-65460000D03*
X89519000Y-68000000D03*
X92059000Y-68000000D03*
G04 #@! TD*
D13*
G04 #@! TO.C,REF\u002A\u002A*
X55000000Y-55000000D03*
G04 #@! TD*
D14*
G04 #@! TO.C,X0*
X63377000Y-108077000D03*
D15*
X64627000Y-101577000D03*
D16*
X62127000Y-101577000D03*
G04 #@! TD*
D17*
G04 #@! TO.C,C17*
X81000000Y-64493000D03*
D18*
X81000000Y-66493000D03*
G04 #@! TD*
D19*
G04 #@! TO.C,CN1*
X55571000Y-63522000D03*
X55571000Y-76222000D03*
D20*
X58111000Y-73428000D03*
X59889000Y-72412000D03*
X58111000Y-71396000D03*
X59889000Y-70380000D03*
X58111000Y-69364000D03*
X59889000Y-68348000D03*
X58111000Y-67332000D03*
X59889000Y-66316000D03*
X64715000Y-74444000D03*
X64715000Y-76730000D03*
D21*
X59000000Y-61744000D03*
X59000000Y-78000000D03*
D20*
X64715000Y-63014000D03*
X64715000Y-65300000D03*
G04 #@! TD*
D17*
G04 #@! TO.C,C14*
X63455113Y-56500000D03*
D18*
X61455113Y-56500000D03*
G04 #@! TD*
D14*
G04 #@! TO.C,X2*
X82641000Y-108077000D03*
D15*
X83891000Y-101577000D03*
D16*
X81391000Y-101577000D03*
G04 #@! TD*
D14*
G04 #@! TO.C,X1*
X73029000Y-108077000D03*
D15*
X74279000Y-101577000D03*
D16*
X71779000Y-101577000D03*
G04 #@! TD*
D14*
G04 #@! TO.C,X3*
X54000000Y-92413000D03*
D15*
X60500000Y-93663000D03*
D16*
X60500000Y-91163000D03*
G04 #@! TD*
D13*
G04 #@! TO.C,REF\u002A\u002A*
X55033000Y-104026000D03*
G04 #@! TD*
G04 #@! TO.C,REF\u002A\u002A*
X91033000Y-55000000D03*
G04 #@! TD*
G04 #@! TO.C,REF\u002A\u002A*
X91033000Y-104026000D03*
G04 #@! TD*
M02*
