G04 #@! TF.GenerationSoftware,KiCad,Pcbnew,8.0.8*
G04 #@! TF.CreationDate,2025-02-07T18:14:43+09:00*
G04 #@! TF.ProjectId,solenoid valve2020,736f6c65-6e6f-4696-9420-76616c766532,rev?*
G04 #@! TF.SameCoordinates,Original*
G04 #@! TF.FileFunction,Legend,Top*
G04 #@! TF.FilePolarity,Positive*
%FSLAX46Y46*%
G04 Gerber Fmt 4.6, Leading zero omitted, Abs format (unit mm)*
G04 Created by KiCad (PCBNEW 8.0.8) date 2025-02-07 18:14:43*
%MOMM*%
%LPD*%
G01*
G04 APERTURE LIST*
%ADD10C,0.100000*%
%ADD11C,0.150000*%
%ADD12C,0.254000*%
%ADD13C,0.050000*%
%ADD14C,0.200000*%
%ADD15C,0.120000*%
%ADD16C,0.152400*%
%ADD17C,0.127000*%
G04 APERTURE END LIST*
D10*
X93946741Y-59957419D02*
X93899122Y-59933609D01*
X93899122Y-59933609D02*
X93827693Y-59933609D01*
X93827693Y-59933609D02*
X93756265Y-59957419D01*
X93756265Y-59957419D02*
X93708646Y-60005038D01*
X93708646Y-60005038D02*
X93684836Y-60052657D01*
X93684836Y-60052657D02*
X93661027Y-60147895D01*
X93661027Y-60147895D02*
X93661027Y-60219323D01*
X93661027Y-60219323D02*
X93684836Y-60314561D01*
X93684836Y-60314561D02*
X93708646Y-60362180D01*
X93708646Y-60362180D02*
X93756265Y-60409800D01*
X93756265Y-60409800D02*
X93827693Y-60433609D01*
X93827693Y-60433609D02*
X93875312Y-60433609D01*
X93875312Y-60433609D02*
X93946741Y-60409800D01*
X93946741Y-60409800D02*
X93970550Y-60385990D01*
X93970550Y-60385990D02*
X93970550Y-60219323D01*
X93970550Y-60219323D02*
X93875312Y-60219323D01*
X94184836Y-60433609D02*
X94184836Y-59933609D01*
X94184836Y-59933609D02*
X94470550Y-60433609D01*
X94470550Y-60433609D02*
X94470550Y-59933609D01*
X94708646Y-60433609D02*
X94708646Y-59933609D01*
X94708646Y-59933609D02*
X94827694Y-59933609D01*
X94827694Y-59933609D02*
X94899122Y-59957419D01*
X94899122Y-59957419D02*
X94946741Y-60005038D01*
X94946741Y-60005038D02*
X94970551Y-60052657D01*
X94970551Y-60052657D02*
X94994360Y-60147895D01*
X94994360Y-60147895D02*
X94994360Y-60219323D01*
X94994360Y-60219323D02*
X94970551Y-60314561D01*
X94970551Y-60314561D02*
X94946741Y-60362180D01*
X94946741Y-60362180D02*
X94899122Y-60409800D01*
X94899122Y-60409800D02*
X94827694Y-60433609D01*
X94827694Y-60433609D02*
X94708646Y-60433609D01*
D11*
X93836779Y-65869819D02*
X93836779Y-64869819D01*
X93836779Y-64869819D02*
X94074874Y-64869819D01*
X94074874Y-64869819D02*
X94217731Y-64917438D01*
X94217731Y-64917438D02*
X94312969Y-65012676D01*
X94312969Y-65012676D02*
X94360588Y-65107914D01*
X94360588Y-65107914D02*
X94408207Y-65298390D01*
X94408207Y-65298390D02*
X94408207Y-65441247D01*
X94408207Y-65441247D02*
X94360588Y-65631723D01*
X94360588Y-65631723D02*
X94312969Y-65726961D01*
X94312969Y-65726961D02*
X94217731Y-65822200D01*
X94217731Y-65822200D02*
X94074874Y-65869819D01*
X94074874Y-65869819D02*
X93836779Y-65869819D01*
X94408207Y-63274580D02*
X94360588Y-63322200D01*
X94360588Y-63322200D02*
X94217731Y-63369819D01*
X94217731Y-63369819D02*
X94122493Y-63369819D01*
X94122493Y-63369819D02*
X93979636Y-63322200D01*
X93979636Y-63322200D02*
X93884398Y-63226961D01*
X93884398Y-63226961D02*
X93836779Y-63131723D01*
X93836779Y-63131723D02*
X93789160Y-62941247D01*
X93789160Y-62941247D02*
X93789160Y-62798390D01*
X93789160Y-62798390D02*
X93836779Y-62607914D01*
X93836779Y-62607914D02*
X93884398Y-62512676D01*
X93884398Y-62512676D02*
X93979636Y-62417438D01*
X93979636Y-62417438D02*
X94122493Y-62369819D01*
X94122493Y-62369819D02*
X94217731Y-62369819D01*
X94217731Y-62369819D02*
X94360588Y-62417438D01*
X94360588Y-62417438D02*
X94408207Y-62465057D01*
X93741541Y-67369819D02*
X94360588Y-67369819D01*
X94360588Y-67369819D02*
X94027255Y-67750771D01*
X94027255Y-67750771D02*
X94170112Y-67750771D01*
X94170112Y-67750771D02*
X94265350Y-67798390D01*
X94265350Y-67798390D02*
X94312969Y-67846009D01*
X94312969Y-67846009D02*
X94360588Y-67941247D01*
X94360588Y-67941247D02*
X94360588Y-68179342D01*
X94360588Y-68179342D02*
X94312969Y-68274580D01*
X94312969Y-68274580D02*
X94265350Y-68322200D01*
X94265350Y-68322200D02*
X94170112Y-68369819D01*
X94170112Y-68369819D02*
X93884398Y-68369819D01*
X93884398Y-68369819D02*
X93789160Y-68322200D01*
X93789160Y-68322200D02*
X93741541Y-68274580D01*
D12*
X78304318Y-62967619D02*
X79332413Y-62967619D01*
X79332413Y-62967619D02*
X79453365Y-62907142D01*
X79453365Y-62907142D02*
X79513842Y-62846666D01*
X79513842Y-62846666D02*
X79574318Y-62725714D01*
X79574318Y-62725714D02*
X79574318Y-62483809D01*
X79574318Y-62483809D02*
X79513842Y-62362857D01*
X79513842Y-62362857D02*
X79453365Y-62302380D01*
X79453365Y-62302380D02*
X79332413Y-62241904D01*
X79332413Y-62241904D02*
X78304318Y-62241904D01*
X78304318Y-61758095D02*
X78304318Y-60911428D01*
X78304318Y-60911428D02*
X79574318Y-61455714D01*
D11*
X70857142Y-66454819D02*
X70523809Y-65978628D01*
X70285714Y-66454819D02*
X70285714Y-65454819D01*
X70285714Y-65454819D02*
X70666666Y-65454819D01*
X70666666Y-65454819D02*
X70761904Y-65502438D01*
X70761904Y-65502438D02*
X70809523Y-65550057D01*
X70809523Y-65550057D02*
X70857142Y-65645295D01*
X70857142Y-65645295D02*
X70857142Y-65788152D01*
X70857142Y-65788152D02*
X70809523Y-65883390D01*
X70809523Y-65883390D02*
X70761904Y-65931009D01*
X70761904Y-65931009D02*
X70666666Y-65978628D01*
X70666666Y-65978628D02*
X70285714Y-65978628D01*
X71809523Y-66454819D02*
X71238095Y-66454819D01*
X71523809Y-66454819D02*
X71523809Y-65454819D01*
X71523809Y-65454819D02*
X71428571Y-65597676D01*
X71428571Y-65597676D02*
X71333333Y-65692914D01*
X71333333Y-65692914D02*
X71238095Y-65740533D01*
X72380952Y-65883390D02*
X72285714Y-65835771D01*
X72285714Y-65835771D02*
X72238095Y-65788152D01*
X72238095Y-65788152D02*
X72190476Y-65692914D01*
X72190476Y-65692914D02*
X72190476Y-65645295D01*
X72190476Y-65645295D02*
X72238095Y-65550057D01*
X72238095Y-65550057D02*
X72285714Y-65502438D01*
X72285714Y-65502438D02*
X72380952Y-65454819D01*
X72380952Y-65454819D02*
X72571428Y-65454819D01*
X72571428Y-65454819D02*
X72666666Y-65502438D01*
X72666666Y-65502438D02*
X72714285Y-65550057D01*
X72714285Y-65550057D02*
X72761904Y-65645295D01*
X72761904Y-65645295D02*
X72761904Y-65692914D01*
X72761904Y-65692914D02*
X72714285Y-65788152D01*
X72714285Y-65788152D02*
X72666666Y-65835771D01*
X72666666Y-65835771D02*
X72571428Y-65883390D01*
X72571428Y-65883390D02*
X72380952Y-65883390D01*
X72380952Y-65883390D02*
X72285714Y-65931009D01*
X72285714Y-65931009D02*
X72238095Y-65978628D01*
X72238095Y-65978628D02*
X72190476Y-66073866D01*
X72190476Y-66073866D02*
X72190476Y-66264342D01*
X72190476Y-66264342D02*
X72238095Y-66359580D01*
X72238095Y-66359580D02*
X72285714Y-66407200D01*
X72285714Y-66407200D02*
X72380952Y-66454819D01*
X72380952Y-66454819D02*
X72571428Y-66454819D01*
X72571428Y-66454819D02*
X72666666Y-66407200D01*
X72666666Y-66407200D02*
X72714285Y-66359580D01*
X72714285Y-66359580D02*
X72761904Y-66264342D01*
X72761904Y-66264342D02*
X72761904Y-66073866D01*
X72761904Y-66073866D02*
X72714285Y-65978628D01*
X72714285Y-65978628D02*
X72666666Y-65931009D01*
X72666666Y-65931009D02*
X72571428Y-65883390D01*
X75954819Y-65142857D02*
X75478628Y-65476190D01*
X75954819Y-65714285D02*
X74954819Y-65714285D01*
X74954819Y-65714285D02*
X74954819Y-65333333D01*
X74954819Y-65333333D02*
X75002438Y-65238095D01*
X75002438Y-65238095D02*
X75050057Y-65190476D01*
X75050057Y-65190476D02*
X75145295Y-65142857D01*
X75145295Y-65142857D02*
X75288152Y-65142857D01*
X75288152Y-65142857D02*
X75383390Y-65190476D01*
X75383390Y-65190476D02*
X75431009Y-65238095D01*
X75431009Y-65238095D02*
X75478628Y-65333333D01*
X75478628Y-65333333D02*
X75478628Y-65714285D01*
X75050057Y-64761904D02*
X75002438Y-64714285D01*
X75002438Y-64714285D02*
X74954819Y-64619047D01*
X74954819Y-64619047D02*
X74954819Y-64380952D01*
X74954819Y-64380952D02*
X75002438Y-64285714D01*
X75002438Y-64285714D02*
X75050057Y-64238095D01*
X75050057Y-64238095D02*
X75145295Y-64190476D01*
X75145295Y-64190476D02*
X75240533Y-64190476D01*
X75240533Y-64190476D02*
X75383390Y-64238095D01*
X75383390Y-64238095D02*
X75954819Y-64809523D01*
X75954819Y-64809523D02*
X75954819Y-64190476D01*
X75954819Y-63238095D02*
X75954819Y-63809523D01*
X75954819Y-63523809D02*
X74954819Y-63523809D01*
X74954819Y-63523809D02*
X75097676Y-63619047D01*
X75097676Y-63619047D02*
X75192914Y-63714285D01*
X75192914Y-63714285D02*
X75240533Y-63809523D01*
D12*
X54306666Y-88013842D02*
X54488095Y-88074318D01*
X54488095Y-88074318D02*
X54790476Y-88074318D01*
X54790476Y-88074318D02*
X54911428Y-88013842D01*
X54911428Y-88013842D02*
X54971904Y-87953365D01*
X54971904Y-87953365D02*
X55032381Y-87832413D01*
X55032381Y-87832413D02*
X55032381Y-87711461D01*
X55032381Y-87711461D02*
X54971904Y-87590508D01*
X54971904Y-87590508D02*
X54911428Y-87530032D01*
X54911428Y-87530032D02*
X54790476Y-87469556D01*
X54790476Y-87469556D02*
X54548571Y-87409080D01*
X54548571Y-87409080D02*
X54427619Y-87348603D01*
X54427619Y-87348603D02*
X54367142Y-87288127D01*
X54367142Y-87288127D02*
X54306666Y-87167175D01*
X54306666Y-87167175D02*
X54306666Y-87046222D01*
X54306666Y-87046222D02*
X54367142Y-86925270D01*
X54367142Y-86925270D02*
X54427619Y-86864794D01*
X54427619Y-86864794D02*
X54548571Y-86804318D01*
X54548571Y-86804318D02*
X54850952Y-86804318D01*
X54850952Y-86804318D02*
X55032381Y-86864794D01*
X55455714Y-86804318D02*
X55758095Y-88074318D01*
X55758095Y-88074318D02*
X56000000Y-87167175D01*
X56000000Y-87167175D02*
X56241905Y-88074318D01*
X56241905Y-88074318D02*
X56544286Y-86804318D01*
X57693334Y-88074318D02*
X56967619Y-88074318D01*
X57330476Y-88074318D02*
X57330476Y-86804318D01*
X57330476Y-86804318D02*
X57209524Y-86985746D01*
X57209524Y-86985746D02*
X57088572Y-87106699D01*
X57088572Y-87106699D02*
X56967619Y-87167175D01*
D11*
X86289580Y-61071857D02*
X86337200Y-61119476D01*
X86337200Y-61119476D02*
X86384819Y-61262333D01*
X86384819Y-61262333D02*
X86384819Y-61357571D01*
X86384819Y-61357571D02*
X86337200Y-61500428D01*
X86337200Y-61500428D02*
X86241961Y-61595666D01*
X86241961Y-61595666D02*
X86146723Y-61643285D01*
X86146723Y-61643285D02*
X85956247Y-61690904D01*
X85956247Y-61690904D02*
X85813390Y-61690904D01*
X85813390Y-61690904D02*
X85622914Y-61643285D01*
X85622914Y-61643285D02*
X85527676Y-61595666D01*
X85527676Y-61595666D02*
X85432438Y-61500428D01*
X85432438Y-61500428D02*
X85384819Y-61357571D01*
X85384819Y-61357571D02*
X85384819Y-61262333D01*
X85384819Y-61262333D02*
X85432438Y-61119476D01*
X85432438Y-61119476D02*
X85480057Y-61071857D01*
X86384819Y-60119476D02*
X86384819Y-60690904D01*
X86384819Y-60405190D02*
X85384819Y-60405190D01*
X85384819Y-60405190D02*
X85527676Y-60500428D01*
X85527676Y-60500428D02*
X85622914Y-60595666D01*
X85622914Y-60595666D02*
X85670533Y-60690904D01*
X85813390Y-59548047D02*
X85765771Y-59643285D01*
X85765771Y-59643285D02*
X85718152Y-59690904D01*
X85718152Y-59690904D02*
X85622914Y-59738523D01*
X85622914Y-59738523D02*
X85575295Y-59738523D01*
X85575295Y-59738523D02*
X85480057Y-59690904D01*
X85480057Y-59690904D02*
X85432438Y-59643285D01*
X85432438Y-59643285D02*
X85384819Y-59548047D01*
X85384819Y-59548047D02*
X85384819Y-59357571D01*
X85384819Y-59357571D02*
X85432438Y-59262333D01*
X85432438Y-59262333D02*
X85480057Y-59214714D01*
X85480057Y-59214714D02*
X85575295Y-59167095D01*
X85575295Y-59167095D02*
X85622914Y-59167095D01*
X85622914Y-59167095D02*
X85718152Y-59214714D01*
X85718152Y-59214714D02*
X85765771Y-59262333D01*
X85765771Y-59262333D02*
X85813390Y-59357571D01*
X85813390Y-59357571D02*
X85813390Y-59548047D01*
X85813390Y-59548047D02*
X85861009Y-59643285D01*
X85861009Y-59643285D02*
X85908628Y-59690904D01*
X85908628Y-59690904D02*
X86003866Y-59738523D01*
X86003866Y-59738523D02*
X86194342Y-59738523D01*
X86194342Y-59738523D02*
X86289580Y-59690904D01*
X86289580Y-59690904D02*
X86337200Y-59643285D01*
X86337200Y-59643285D02*
X86384819Y-59548047D01*
X86384819Y-59548047D02*
X86384819Y-59357571D01*
X86384819Y-59357571D02*
X86337200Y-59262333D01*
X86337200Y-59262333D02*
X86289580Y-59214714D01*
X86289580Y-59214714D02*
X86194342Y-59167095D01*
X86194342Y-59167095D02*
X86003866Y-59167095D01*
X86003866Y-59167095D02*
X85908628Y-59214714D01*
X85908628Y-59214714D02*
X85861009Y-59262333D01*
X85861009Y-59262333D02*
X85813390Y-59357571D01*
X88454819Y-53238094D02*
X87454819Y-53238094D01*
X87454819Y-53238094D02*
X87454819Y-52999999D01*
X87454819Y-52999999D02*
X87502438Y-52857142D01*
X87502438Y-52857142D02*
X87597676Y-52761904D01*
X87597676Y-52761904D02*
X87692914Y-52714285D01*
X87692914Y-52714285D02*
X87883390Y-52666666D01*
X87883390Y-52666666D02*
X88026247Y-52666666D01*
X88026247Y-52666666D02*
X88216723Y-52714285D01*
X88216723Y-52714285D02*
X88311961Y-52761904D01*
X88311961Y-52761904D02*
X88407200Y-52857142D01*
X88407200Y-52857142D02*
X88454819Y-52999999D01*
X88454819Y-52999999D02*
X88454819Y-53238094D01*
X87883390Y-52095237D02*
X87835771Y-52190475D01*
X87835771Y-52190475D02*
X87788152Y-52238094D01*
X87788152Y-52238094D02*
X87692914Y-52285713D01*
X87692914Y-52285713D02*
X87645295Y-52285713D01*
X87645295Y-52285713D02*
X87550057Y-52238094D01*
X87550057Y-52238094D02*
X87502438Y-52190475D01*
X87502438Y-52190475D02*
X87454819Y-52095237D01*
X87454819Y-52095237D02*
X87454819Y-51904761D01*
X87454819Y-51904761D02*
X87502438Y-51809523D01*
X87502438Y-51809523D02*
X87550057Y-51761904D01*
X87550057Y-51761904D02*
X87645295Y-51714285D01*
X87645295Y-51714285D02*
X87692914Y-51714285D01*
X87692914Y-51714285D02*
X87788152Y-51761904D01*
X87788152Y-51761904D02*
X87835771Y-51809523D01*
X87835771Y-51809523D02*
X87883390Y-51904761D01*
X87883390Y-51904761D02*
X87883390Y-52095237D01*
X87883390Y-52095237D02*
X87931009Y-52190475D01*
X87931009Y-52190475D02*
X87978628Y-52238094D01*
X87978628Y-52238094D02*
X88073866Y-52285713D01*
X88073866Y-52285713D02*
X88264342Y-52285713D01*
X88264342Y-52285713D02*
X88359580Y-52238094D01*
X88359580Y-52238094D02*
X88407200Y-52190475D01*
X88407200Y-52190475D02*
X88454819Y-52095237D01*
X88454819Y-52095237D02*
X88454819Y-51904761D01*
X88454819Y-51904761D02*
X88407200Y-51809523D01*
X88407200Y-51809523D02*
X88359580Y-51761904D01*
X88359580Y-51761904D02*
X88264342Y-51714285D01*
X88264342Y-51714285D02*
X88073866Y-51714285D01*
X88073866Y-51714285D02*
X87978628Y-51761904D01*
X87978628Y-51761904D02*
X87931009Y-51809523D01*
X87931009Y-51809523D02*
X87883390Y-51904761D01*
D10*
X70038095Y-58957419D02*
X70038095Y-59766942D01*
X70038095Y-59766942D02*
X70085714Y-59862180D01*
X70085714Y-59862180D02*
X70133333Y-59909800D01*
X70133333Y-59909800D02*
X70228571Y-59957419D01*
X70228571Y-59957419D02*
X70419047Y-59957419D01*
X70419047Y-59957419D02*
X70514285Y-59909800D01*
X70514285Y-59909800D02*
X70561904Y-59862180D01*
X70561904Y-59862180D02*
X70609523Y-59766942D01*
X70609523Y-59766942D02*
X70609523Y-58957419D01*
X71514285Y-58957419D02*
X71323809Y-58957419D01*
X71323809Y-58957419D02*
X71228571Y-59005038D01*
X71228571Y-59005038D02*
X71180952Y-59052657D01*
X71180952Y-59052657D02*
X71085714Y-59195514D01*
X71085714Y-59195514D02*
X71038095Y-59385990D01*
X71038095Y-59385990D02*
X71038095Y-59766942D01*
X71038095Y-59766942D02*
X71085714Y-59862180D01*
X71085714Y-59862180D02*
X71133333Y-59909800D01*
X71133333Y-59909800D02*
X71228571Y-59957419D01*
X71228571Y-59957419D02*
X71419047Y-59957419D01*
X71419047Y-59957419D02*
X71514285Y-59909800D01*
X71514285Y-59909800D02*
X71561904Y-59862180D01*
X71561904Y-59862180D02*
X71609523Y-59766942D01*
X71609523Y-59766942D02*
X71609523Y-59528847D01*
X71609523Y-59528847D02*
X71561904Y-59433609D01*
X71561904Y-59433609D02*
X71514285Y-59385990D01*
X71514285Y-59385990D02*
X71419047Y-59338371D01*
X71419047Y-59338371D02*
X71228571Y-59338371D01*
X71228571Y-59338371D02*
X71133333Y-59385990D01*
X71133333Y-59385990D02*
X71085714Y-59433609D01*
X71085714Y-59433609D02*
X71038095Y-59528847D01*
D11*
X91954819Y-84991357D02*
X91478628Y-85324690D01*
X91954819Y-85562785D02*
X90954819Y-85562785D01*
X90954819Y-85562785D02*
X90954819Y-85181833D01*
X90954819Y-85181833D02*
X91002438Y-85086595D01*
X91002438Y-85086595D02*
X91050057Y-85038976D01*
X91050057Y-85038976D02*
X91145295Y-84991357D01*
X91145295Y-84991357D02*
X91288152Y-84991357D01*
X91288152Y-84991357D02*
X91383390Y-85038976D01*
X91383390Y-85038976D02*
X91431009Y-85086595D01*
X91431009Y-85086595D02*
X91478628Y-85181833D01*
X91478628Y-85181833D02*
X91478628Y-85562785D01*
X91954819Y-84038976D02*
X91954819Y-84610404D01*
X91954819Y-84324690D02*
X90954819Y-84324690D01*
X90954819Y-84324690D02*
X91097676Y-84419928D01*
X91097676Y-84419928D02*
X91192914Y-84515166D01*
X91192914Y-84515166D02*
X91240533Y-84610404D01*
X91288152Y-83181833D02*
X91954819Y-83181833D01*
X90907200Y-83419928D02*
X91621485Y-83658023D01*
X91621485Y-83658023D02*
X91621485Y-83038976D01*
X89954819Y-94704094D02*
X88954819Y-94704094D01*
X88954819Y-94704094D02*
X88954819Y-94465999D01*
X88954819Y-94465999D02*
X89002438Y-94323142D01*
X89002438Y-94323142D02*
X89097676Y-94227904D01*
X89097676Y-94227904D02*
X89192914Y-94180285D01*
X89192914Y-94180285D02*
X89383390Y-94132666D01*
X89383390Y-94132666D02*
X89526247Y-94132666D01*
X89526247Y-94132666D02*
X89716723Y-94180285D01*
X89716723Y-94180285D02*
X89811961Y-94227904D01*
X89811961Y-94227904D02*
X89907200Y-94323142D01*
X89907200Y-94323142D02*
X89954819Y-94465999D01*
X89954819Y-94465999D02*
X89954819Y-94704094D01*
X89954819Y-93656475D02*
X89954819Y-93465999D01*
X89954819Y-93465999D02*
X89907200Y-93370761D01*
X89907200Y-93370761D02*
X89859580Y-93323142D01*
X89859580Y-93323142D02*
X89716723Y-93227904D01*
X89716723Y-93227904D02*
X89526247Y-93180285D01*
X89526247Y-93180285D02*
X89145295Y-93180285D01*
X89145295Y-93180285D02*
X89050057Y-93227904D01*
X89050057Y-93227904D02*
X89002438Y-93275523D01*
X89002438Y-93275523D02*
X88954819Y-93370761D01*
X88954819Y-93370761D02*
X88954819Y-93561237D01*
X88954819Y-93561237D02*
X89002438Y-93656475D01*
X89002438Y-93656475D02*
X89050057Y-93704094D01*
X89050057Y-93704094D02*
X89145295Y-93751713D01*
X89145295Y-93751713D02*
X89383390Y-93751713D01*
X89383390Y-93751713D02*
X89478628Y-93704094D01*
X89478628Y-93704094D02*
X89526247Y-93656475D01*
X89526247Y-93656475D02*
X89573866Y-93561237D01*
X89573866Y-93561237D02*
X89573866Y-93370761D01*
X89573866Y-93370761D02*
X89526247Y-93275523D01*
X89526247Y-93275523D02*
X89478628Y-93227904D01*
X89478628Y-93227904D02*
X89383390Y-93180285D01*
D12*
X65471904Y-96804318D02*
X66318571Y-98074318D01*
X66318571Y-96804318D02*
X65471904Y-98074318D01*
X67044285Y-96804318D02*
X67165238Y-96804318D01*
X67165238Y-96804318D02*
X67286190Y-96864794D01*
X67286190Y-96864794D02*
X67346666Y-96925270D01*
X67346666Y-96925270D02*
X67407142Y-97046222D01*
X67407142Y-97046222D02*
X67467619Y-97288127D01*
X67467619Y-97288127D02*
X67467619Y-97590508D01*
X67467619Y-97590508D02*
X67407142Y-97832413D01*
X67407142Y-97832413D02*
X67346666Y-97953365D01*
X67346666Y-97953365D02*
X67286190Y-98013842D01*
X67286190Y-98013842D02*
X67165238Y-98074318D01*
X67165238Y-98074318D02*
X67044285Y-98074318D01*
X67044285Y-98074318D02*
X66923333Y-98013842D01*
X66923333Y-98013842D02*
X66862857Y-97953365D01*
X66862857Y-97953365D02*
X66802380Y-97832413D01*
X66802380Y-97832413D02*
X66741904Y-97590508D01*
X66741904Y-97590508D02*
X66741904Y-97288127D01*
X66741904Y-97288127D02*
X66802380Y-97046222D01*
X66802380Y-97046222D02*
X66862857Y-96925270D01*
X66862857Y-96925270D02*
X66923333Y-96864794D01*
X66923333Y-96864794D02*
X67044285Y-96804318D01*
D11*
X84859580Y-66142857D02*
X84907200Y-66190476D01*
X84907200Y-66190476D02*
X84954819Y-66333333D01*
X84954819Y-66333333D02*
X84954819Y-66428571D01*
X84954819Y-66428571D02*
X84907200Y-66571428D01*
X84907200Y-66571428D02*
X84811961Y-66666666D01*
X84811961Y-66666666D02*
X84716723Y-66714285D01*
X84716723Y-66714285D02*
X84526247Y-66761904D01*
X84526247Y-66761904D02*
X84383390Y-66761904D01*
X84383390Y-66761904D02*
X84192914Y-66714285D01*
X84192914Y-66714285D02*
X84097676Y-66666666D01*
X84097676Y-66666666D02*
X84002438Y-66571428D01*
X84002438Y-66571428D02*
X83954819Y-66428571D01*
X83954819Y-66428571D02*
X83954819Y-66333333D01*
X83954819Y-66333333D02*
X84002438Y-66190476D01*
X84002438Y-66190476D02*
X84050057Y-66142857D01*
X84954819Y-65190476D02*
X84954819Y-65761904D01*
X84954819Y-65476190D02*
X83954819Y-65476190D01*
X83954819Y-65476190D02*
X84097676Y-65571428D01*
X84097676Y-65571428D02*
X84192914Y-65666666D01*
X84192914Y-65666666D02*
X84240533Y-65761904D01*
X83954819Y-64857142D02*
X83954819Y-64190476D01*
X83954819Y-64190476D02*
X84954819Y-64619047D01*
D10*
X77553109Y-81324428D02*
X77315014Y-81491094D01*
X77553109Y-81610142D02*
X77053109Y-81610142D01*
X77053109Y-81610142D02*
X77053109Y-81419666D01*
X77053109Y-81419666D02*
X77076919Y-81372047D01*
X77076919Y-81372047D02*
X77100728Y-81348237D01*
X77100728Y-81348237D02*
X77148347Y-81324428D01*
X77148347Y-81324428D02*
X77219776Y-81324428D01*
X77219776Y-81324428D02*
X77267395Y-81348237D01*
X77267395Y-81348237D02*
X77291204Y-81372047D01*
X77291204Y-81372047D02*
X77315014Y-81419666D01*
X77315014Y-81419666D02*
X77315014Y-81610142D01*
X77553109Y-80848237D02*
X77553109Y-81133951D01*
X77553109Y-80991094D02*
X77053109Y-80991094D01*
X77053109Y-80991094D02*
X77124538Y-81038713D01*
X77124538Y-81038713D02*
X77172157Y-81086332D01*
X77172157Y-81086332D02*
X77195966Y-81133951D01*
X77053109Y-80419666D02*
X77053109Y-80514904D01*
X77053109Y-80514904D02*
X77076919Y-80562523D01*
X77076919Y-80562523D02*
X77100728Y-80586333D01*
X77100728Y-80586333D02*
X77172157Y-80633952D01*
X77172157Y-80633952D02*
X77267395Y-80657761D01*
X77267395Y-80657761D02*
X77457871Y-80657761D01*
X77457871Y-80657761D02*
X77505490Y-80633952D01*
X77505490Y-80633952D02*
X77529300Y-80610142D01*
X77529300Y-80610142D02*
X77553109Y-80562523D01*
X77553109Y-80562523D02*
X77553109Y-80467285D01*
X77553109Y-80467285D02*
X77529300Y-80419666D01*
X77529300Y-80419666D02*
X77505490Y-80395857D01*
X77505490Y-80395857D02*
X77457871Y-80372047D01*
X77457871Y-80372047D02*
X77338823Y-80372047D01*
X77338823Y-80372047D02*
X77291204Y-80395857D01*
X77291204Y-80395857D02*
X77267395Y-80419666D01*
X77267395Y-80419666D02*
X77243585Y-80467285D01*
X77243585Y-80467285D02*
X77243585Y-80562523D01*
X77243585Y-80562523D02*
X77267395Y-80610142D01*
X77267395Y-80610142D02*
X77291204Y-80633952D01*
X77291204Y-80633952D02*
X77338823Y-80657761D01*
D11*
X69454819Y-76142857D02*
X68978628Y-76476190D01*
X69454819Y-76714285D02*
X68454819Y-76714285D01*
X68454819Y-76714285D02*
X68454819Y-76333333D01*
X68454819Y-76333333D02*
X68502438Y-76238095D01*
X68502438Y-76238095D02*
X68550057Y-76190476D01*
X68550057Y-76190476D02*
X68645295Y-76142857D01*
X68645295Y-76142857D02*
X68788152Y-76142857D01*
X68788152Y-76142857D02*
X68883390Y-76190476D01*
X68883390Y-76190476D02*
X68931009Y-76238095D01*
X68931009Y-76238095D02*
X68978628Y-76333333D01*
X68978628Y-76333333D02*
X68978628Y-76714285D01*
X69454819Y-75190476D02*
X69454819Y-75761904D01*
X69454819Y-75476190D02*
X68454819Y-75476190D01*
X68454819Y-75476190D02*
X68597676Y-75571428D01*
X68597676Y-75571428D02*
X68692914Y-75666666D01*
X68692914Y-75666666D02*
X68740533Y-75761904D01*
X69454819Y-74714285D02*
X69454819Y-74523809D01*
X69454819Y-74523809D02*
X69407200Y-74428571D01*
X69407200Y-74428571D02*
X69359580Y-74380952D01*
X69359580Y-74380952D02*
X69216723Y-74285714D01*
X69216723Y-74285714D02*
X69026247Y-74238095D01*
X69026247Y-74238095D02*
X68645295Y-74238095D01*
X68645295Y-74238095D02*
X68550057Y-74285714D01*
X68550057Y-74285714D02*
X68502438Y-74333333D01*
X68502438Y-74333333D02*
X68454819Y-74428571D01*
X68454819Y-74428571D02*
X68454819Y-74619047D01*
X68454819Y-74619047D02*
X68502438Y-74714285D01*
X68502438Y-74714285D02*
X68550057Y-74761904D01*
X68550057Y-74761904D02*
X68645295Y-74809523D01*
X68645295Y-74809523D02*
X68883390Y-74809523D01*
X68883390Y-74809523D02*
X68978628Y-74761904D01*
X68978628Y-74761904D02*
X69026247Y-74714285D01*
X69026247Y-74714285D02*
X69073866Y-74619047D01*
X69073866Y-74619047D02*
X69073866Y-74428571D01*
X69073866Y-74428571D02*
X69026247Y-74333333D01*
X69026247Y-74333333D02*
X68978628Y-74285714D01*
X68978628Y-74285714D02*
X68883390Y-74238095D01*
X70833333Y-64454819D02*
X70500000Y-63978628D01*
X70261905Y-64454819D02*
X70261905Y-63454819D01*
X70261905Y-63454819D02*
X70642857Y-63454819D01*
X70642857Y-63454819D02*
X70738095Y-63502438D01*
X70738095Y-63502438D02*
X70785714Y-63550057D01*
X70785714Y-63550057D02*
X70833333Y-63645295D01*
X70833333Y-63645295D02*
X70833333Y-63788152D01*
X70833333Y-63788152D02*
X70785714Y-63883390D01*
X70785714Y-63883390D02*
X70738095Y-63931009D01*
X70738095Y-63931009D02*
X70642857Y-63978628D01*
X70642857Y-63978628D02*
X70261905Y-63978628D01*
X71690476Y-63788152D02*
X71690476Y-64454819D01*
X71452381Y-63407200D02*
X71214286Y-64121485D01*
X71214286Y-64121485D02*
X71833333Y-64121485D01*
X56470580Y-71118476D02*
X56518200Y-71166095D01*
X56518200Y-71166095D02*
X56565819Y-71308952D01*
X56565819Y-71308952D02*
X56565819Y-71404190D01*
X56565819Y-71404190D02*
X56518200Y-71547047D01*
X56518200Y-71547047D02*
X56422961Y-71642285D01*
X56422961Y-71642285D02*
X56327723Y-71689904D01*
X56327723Y-71689904D02*
X56137247Y-71737523D01*
X56137247Y-71737523D02*
X55994390Y-71737523D01*
X55994390Y-71737523D02*
X55803914Y-71689904D01*
X55803914Y-71689904D02*
X55708676Y-71642285D01*
X55708676Y-71642285D02*
X55613438Y-71547047D01*
X55613438Y-71547047D02*
X55565819Y-71404190D01*
X55565819Y-71404190D02*
X55565819Y-71308952D01*
X55565819Y-71308952D02*
X55613438Y-71166095D01*
X55613438Y-71166095D02*
X55661057Y-71118476D01*
X56565819Y-70689904D02*
X55565819Y-70689904D01*
X55565819Y-70689904D02*
X56565819Y-70118476D01*
X56565819Y-70118476D02*
X55565819Y-70118476D01*
X56565819Y-69118476D02*
X56565819Y-69689904D01*
X56565819Y-69404190D02*
X55565819Y-69404190D01*
X55565819Y-69404190D02*
X55708676Y-69499428D01*
X55708676Y-69499428D02*
X55803914Y-69594666D01*
X55803914Y-69594666D02*
X55851533Y-69689904D01*
X61494390Y-73975618D02*
X61446771Y-74070856D01*
X61446771Y-74070856D02*
X61399152Y-74118475D01*
X61399152Y-74118475D02*
X61303914Y-74166094D01*
X61303914Y-74166094D02*
X61256295Y-74166094D01*
X61256295Y-74166094D02*
X61161057Y-74118475D01*
X61161057Y-74118475D02*
X61113438Y-74070856D01*
X61113438Y-74070856D02*
X61065819Y-73975618D01*
X61065819Y-73975618D02*
X61065819Y-73785142D01*
X61065819Y-73785142D02*
X61113438Y-73689904D01*
X61113438Y-73689904D02*
X61161057Y-73642285D01*
X61161057Y-73642285D02*
X61256295Y-73594666D01*
X61256295Y-73594666D02*
X61303914Y-73594666D01*
X61303914Y-73594666D02*
X61399152Y-73642285D01*
X61399152Y-73642285D02*
X61446771Y-73689904D01*
X61446771Y-73689904D02*
X61494390Y-73785142D01*
X61494390Y-73785142D02*
X61494390Y-73975618D01*
X61494390Y-73975618D02*
X61542009Y-74070856D01*
X61542009Y-74070856D02*
X61589628Y-74118475D01*
X61589628Y-74118475D02*
X61684866Y-74166094D01*
X61684866Y-74166094D02*
X61875342Y-74166094D01*
X61875342Y-74166094D02*
X61970580Y-74118475D01*
X61970580Y-74118475D02*
X62018200Y-74070856D01*
X62018200Y-74070856D02*
X62065819Y-73975618D01*
X62065819Y-73975618D02*
X62065819Y-73785142D01*
X62065819Y-73785142D02*
X62018200Y-73689904D01*
X62018200Y-73689904D02*
X61970580Y-73642285D01*
X61970580Y-73642285D02*
X61875342Y-73594666D01*
X61875342Y-73594666D02*
X61684866Y-73594666D01*
X61684866Y-73594666D02*
X61589628Y-73642285D01*
X61589628Y-73642285D02*
X61542009Y-73689904D01*
X61542009Y-73689904D02*
X61494390Y-73785142D01*
X62065819Y-73166094D02*
X61065819Y-73166094D01*
X61065819Y-73166094D02*
X61065819Y-72785142D01*
X61065819Y-72785142D02*
X61113438Y-72689904D01*
X61113438Y-72689904D02*
X61161057Y-72642285D01*
X61161057Y-72642285D02*
X61256295Y-72594666D01*
X61256295Y-72594666D02*
X61399152Y-72594666D01*
X61399152Y-72594666D02*
X61494390Y-72642285D01*
X61494390Y-72642285D02*
X61542009Y-72689904D01*
X61542009Y-72689904D02*
X61589628Y-72785142D01*
X61589628Y-72785142D02*
X61589628Y-73166094D01*
X61494390Y-72023237D02*
X61446771Y-72118475D01*
X61446771Y-72118475D02*
X61399152Y-72166094D01*
X61399152Y-72166094D02*
X61303914Y-72213713D01*
X61303914Y-72213713D02*
X61256295Y-72213713D01*
X61256295Y-72213713D02*
X61161057Y-72166094D01*
X61161057Y-72166094D02*
X61113438Y-72118475D01*
X61113438Y-72118475D02*
X61065819Y-72023237D01*
X61065819Y-72023237D02*
X61065819Y-71832761D01*
X61065819Y-71832761D02*
X61113438Y-71737523D01*
X61113438Y-71737523D02*
X61161057Y-71689904D01*
X61161057Y-71689904D02*
X61256295Y-71642285D01*
X61256295Y-71642285D02*
X61303914Y-71642285D01*
X61303914Y-71642285D02*
X61399152Y-71689904D01*
X61399152Y-71689904D02*
X61446771Y-71737523D01*
X61446771Y-71737523D02*
X61494390Y-71832761D01*
X61494390Y-71832761D02*
X61494390Y-72023237D01*
X61494390Y-72023237D02*
X61542009Y-72118475D01*
X61542009Y-72118475D02*
X61589628Y-72166094D01*
X61589628Y-72166094D02*
X61684866Y-72213713D01*
X61684866Y-72213713D02*
X61875342Y-72213713D01*
X61875342Y-72213713D02*
X61970580Y-72166094D01*
X61970580Y-72166094D02*
X62018200Y-72118475D01*
X62018200Y-72118475D02*
X62065819Y-72023237D01*
X62065819Y-72023237D02*
X62065819Y-71832761D01*
X62065819Y-71832761D02*
X62018200Y-71737523D01*
X62018200Y-71737523D02*
X61970580Y-71689904D01*
X61970580Y-71689904D02*
X61875342Y-71642285D01*
X61875342Y-71642285D02*
X61684866Y-71642285D01*
X61684866Y-71642285D02*
X61589628Y-71689904D01*
X61589628Y-71689904D02*
X61542009Y-71737523D01*
X61542009Y-71737523D02*
X61494390Y-71832761D01*
X61970580Y-70642285D02*
X62018200Y-70689904D01*
X62018200Y-70689904D02*
X62065819Y-70832761D01*
X62065819Y-70832761D02*
X62065819Y-70927999D01*
X62065819Y-70927999D02*
X62018200Y-71070856D01*
X62018200Y-71070856D02*
X61922961Y-71166094D01*
X61922961Y-71166094D02*
X61827723Y-71213713D01*
X61827723Y-71213713D02*
X61637247Y-71261332D01*
X61637247Y-71261332D02*
X61494390Y-71261332D01*
X61494390Y-71261332D02*
X61303914Y-71213713D01*
X61303914Y-71213713D02*
X61208676Y-71166094D01*
X61208676Y-71166094D02*
X61113438Y-71070856D01*
X61113438Y-71070856D02*
X61065819Y-70927999D01*
X61065819Y-70927999D02*
X61065819Y-70832761D01*
X61065819Y-70832761D02*
X61113438Y-70689904D01*
X61113438Y-70689904D02*
X61161057Y-70642285D01*
X61684866Y-70213713D02*
X61684866Y-69451809D01*
X62065819Y-68499428D02*
X62065819Y-68975618D01*
X62065819Y-68975618D02*
X61065819Y-68975618D01*
X61542009Y-68166094D02*
X61542009Y-67832761D01*
X62065819Y-67689904D02*
X62065819Y-68166094D01*
X62065819Y-68166094D02*
X61065819Y-68166094D01*
X61065819Y-68166094D02*
X61065819Y-67689904D01*
X62065819Y-67261332D02*
X61065819Y-67261332D01*
X61065819Y-67261332D02*
X61065819Y-67023237D01*
X61065819Y-67023237D02*
X61113438Y-66880380D01*
X61113438Y-66880380D02*
X61208676Y-66785142D01*
X61208676Y-66785142D02*
X61303914Y-66737523D01*
X61303914Y-66737523D02*
X61494390Y-66689904D01*
X61494390Y-66689904D02*
X61637247Y-66689904D01*
X61637247Y-66689904D02*
X61827723Y-66737523D01*
X61827723Y-66737523D02*
X61922961Y-66785142D01*
X61922961Y-66785142D02*
X62018200Y-66880380D01*
X62018200Y-66880380D02*
X62065819Y-67023237D01*
X62065819Y-67023237D02*
X62065819Y-67261332D01*
X71954819Y-84166666D02*
X71478628Y-84499999D01*
X71954819Y-84738094D02*
X70954819Y-84738094D01*
X70954819Y-84738094D02*
X70954819Y-84357142D01*
X70954819Y-84357142D02*
X71002438Y-84261904D01*
X71002438Y-84261904D02*
X71050057Y-84214285D01*
X71050057Y-84214285D02*
X71145295Y-84166666D01*
X71145295Y-84166666D02*
X71288152Y-84166666D01*
X71288152Y-84166666D02*
X71383390Y-84214285D01*
X71383390Y-84214285D02*
X71431009Y-84261904D01*
X71431009Y-84261904D02*
X71478628Y-84357142D01*
X71478628Y-84357142D02*
X71478628Y-84738094D01*
X71954819Y-83214285D02*
X71954819Y-83785713D01*
X71954819Y-83499999D02*
X70954819Y-83499999D01*
X70954819Y-83499999D02*
X71097676Y-83595237D01*
X71097676Y-83595237D02*
X71192914Y-83690475D01*
X71192914Y-83690475D02*
X71240533Y-83785713D01*
X80454819Y-84166666D02*
X79978628Y-84499999D01*
X80454819Y-84738094D02*
X79454819Y-84738094D01*
X79454819Y-84738094D02*
X79454819Y-84357142D01*
X79454819Y-84357142D02*
X79502438Y-84261904D01*
X79502438Y-84261904D02*
X79550057Y-84214285D01*
X79550057Y-84214285D02*
X79645295Y-84166666D01*
X79645295Y-84166666D02*
X79788152Y-84166666D01*
X79788152Y-84166666D02*
X79883390Y-84214285D01*
X79883390Y-84214285D02*
X79931009Y-84261904D01*
X79931009Y-84261904D02*
X79978628Y-84357142D01*
X79978628Y-84357142D02*
X79978628Y-84738094D01*
X79454819Y-83261904D02*
X79454819Y-83738094D01*
X79454819Y-83738094D02*
X79931009Y-83785713D01*
X79931009Y-83785713D02*
X79883390Y-83738094D01*
X79883390Y-83738094D02*
X79835771Y-83642856D01*
X79835771Y-83642856D02*
X79835771Y-83404761D01*
X79835771Y-83404761D02*
X79883390Y-83309523D01*
X79883390Y-83309523D02*
X79931009Y-83261904D01*
X79931009Y-83261904D02*
X80026247Y-83214285D01*
X80026247Y-83214285D02*
X80264342Y-83214285D01*
X80264342Y-83214285D02*
X80359580Y-83261904D01*
X80359580Y-83261904D02*
X80407200Y-83309523D01*
X80407200Y-83309523D02*
X80454819Y-83404761D01*
X80454819Y-83404761D02*
X80454819Y-83642856D01*
X80454819Y-83642856D02*
X80407200Y-83738094D01*
X80407200Y-83738094D02*
X80359580Y-83785713D01*
X61857142Y-53359580D02*
X61809523Y-53407200D01*
X61809523Y-53407200D02*
X61666666Y-53454819D01*
X61666666Y-53454819D02*
X61571428Y-53454819D01*
X61571428Y-53454819D02*
X61428571Y-53407200D01*
X61428571Y-53407200D02*
X61333333Y-53311961D01*
X61333333Y-53311961D02*
X61285714Y-53216723D01*
X61285714Y-53216723D02*
X61238095Y-53026247D01*
X61238095Y-53026247D02*
X61238095Y-52883390D01*
X61238095Y-52883390D02*
X61285714Y-52692914D01*
X61285714Y-52692914D02*
X61333333Y-52597676D01*
X61333333Y-52597676D02*
X61428571Y-52502438D01*
X61428571Y-52502438D02*
X61571428Y-52454819D01*
X61571428Y-52454819D02*
X61666666Y-52454819D01*
X61666666Y-52454819D02*
X61809523Y-52502438D01*
X61809523Y-52502438D02*
X61857142Y-52550057D01*
X62809523Y-53454819D02*
X62238095Y-53454819D01*
X62523809Y-53454819D02*
X62523809Y-52454819D01*
X62523809Y-52454819D02*
X62428571Y-52597676D01*
X62428571Y-52597676D02*
X62333333Y-52692914D01*
X62333333Y-52692914D02*
X62238095Y-52740533D01*
X63666666Y-52788152D02*
X63666666Y-53454819D01*
X63428571Y-52407200D02*
X63190476Y-53121485D01*
X63190476Y-53121485D02*
X63809523Y-53121485D01*
X77859580Y-65142857D02*
X77907200Y-65190476D01*
X77907200Y-65190476D02*
X77954819Y-65333333D01*
X77954819Y-65333333D02*
X77954819Y-65428571D01*
X77954819Y-65428571D02*
X77907200Y-65571428D01*
X77907200Y-65571428D02*
X77811961Y-65666666D01*
X77811961Y-65666666D02*
X77716723Y-65714285D01*
X77716723Y-65714285D02*
X77526247Y-65761904D01*
X77526247Y-65761904D02*
X77383390Y-65761904D01*
X77383390Y-65761904D02*
X77192914Y-65714285D01*
X77192914Y-65714285D02*
X77097676Y-65666666D01*
X77097676Y-65666666D02*
X77002438Y-65571428D01*
X77002438Y-65571428D02*
X76954819Y-65428571D01*
X76954819Y-65428571D02*
X76954819Y-65333333D01*
X76954819Y-65333333D02*
X77002438Y-65190476D01*
X77002438Y-65190476D02*
X77050057Y-65142857D01*
X77954819Y-64190476D02*
X77954819Y-64761904D01*
X77954819Y-64476190D02*
X76954819Y-64476190D01*
X76954819Y-64476190D02*
X77097676Y-64571428D01*
X77097676Y-64571428D02*
X77192914Y-64666666D01*
X77192914Y-64666666D02*
X77240533Y-64761904D01*
X76954819Y-63285714D02*
X76954819Y-63761904D01*
X76954819Y-63761904D02*
X77431009Y-63809523D01*
X77431009Y-63809523D02*
X77383390Y-63761904D01*
X77383390Y-63761904D02*
X77335771Y-63666666D01*
X77335771Y-63666666D02*
X77335771Y-63428571D01*
X77335771Y-63428571D02*
X77383390Y-63333333D01*
X77383390Y-63333333D02*
X77431009Y-63285714D01*
X77431009Y-63285714D02*
X77526247Y-63238095D01*
X77526247Y-63238095D02*
X77764342Y-63238095D01*
X77764342Y-63238095D02*
X77859580Y-63285714D01*
X77859580Y-63285714D02*
X77907200Y-63333333D01*
X77907200Y-63333333D02*
X77954819Y-63428571D01*
X77954819Y-63428571D02*
X77954819Y-63666666D01*
X77954819Y-63666666D02*
X77907200Y-63761904D01*
X77907200Y-63761904D02*
X77859580Y-63809523D01*
X94454819Y-84956857D02*
X93978628Y-85290190D01*
X94454819Y-85528285D02*
X93454819Y-85528285D01*
X93454819Y-85528285D02*
X93454819Y-85147333D01*
X93454819Y-85147333D02*
X93502438Y-85052095D01*
X93502438Y-85052095D02*
X93550057Y-85004476D01*
X93550057Y-85004476D02*
X93645295Y-84956857D01*
X93645295Y-84956857D02*
X93788152Y-84956857D01*
X93788152Y-84956857D02*
X93883390Y-85004476D01*
X93883390Y-85004476D02*
X93931009Y-85052095D01*
X93931009Y-85052095D02*
X93978628Y-85147333D01*
X93978628Y-85147333D02*
X93978628Y-85528285D01*
X94454819Y-84004476D02*
X94454819Y-84575904D01*
X94454819Y-84290190D02*
X93454819Y-84290190D01*
X93454819Y-84290190D02*
X93597676Y-84385428D01*
X93597676Y-84385428D02*
X93692914Y-84480666D01*
X93692914Y-84480666D02*
X93740533Y-84575904D01*
X93454819Y-83099714D02*
X93454819Y-83575904D01*
X93454819Y-83575904D02*
X93931009Y-83623523D01*
X93931009Y-83623523D02*
X93883390Y-83575904D01*
X93883390Y-83575904D02*
X93835771Y-83480666D01*
X93835771Y-83480666D02*
X93835771Y-83242571D01*
X93835771Y-83242571D02*
X93883390Y-83147333D01*
X93883390Y-83147333D02*
X93931009Y-83099714D01*
X93931009Y-83099714D02*
X94026247Y-83052095D01*
X94026247Y-83052095D02*
X94264342Y-83052095D01*
X94264342Y-83052095D02*
X94359580Y-83099714D01*
X94359580Y-83099714D02*
X94407200Y-83147333D01*
X94407200Y-83147333D02*
X94454819Y-83242571D01*
X94454819Y-83242571D02*
X94454819Y-83480666D01*
X94454819Y-83480666D02*
X94407200Y-83575904D01*
X94407200Y-83575904D02*
X94359580Y-83623523D01*
D10*
X75981490Y-81324428D02*
X76005300Y-81348237D01*
X76005300Y-81348237D02*
X76029109Y-81419666D01*
X76029109Y-81419666D02*
X76029109Y-81467285D01*
X76029109Y-81467285D02*
X76005300Y-81538713D01*
X76005300Y-81538713D02*
X75957680Y-81586332D01*
X75957680Y-81586332D02*
X75910061Y-81610142D01*
X75910061Y-81610142D02*
X75814823Y-81633951D01*
X75814823Y-81633951D02*
X75743395Y-81633951D01*
X75743395Y-81633951D02*
X75648157Y-81610142D01*
X75648157Y-81610142D02*
X75600538Y-81586332D01*
X75600538Y-81586332D02*
X75552919Y-81538713D01*
X75552919Y-81538713D02*
X75529109Y-81467285D01*
X75529109Y-81467285D02*
X75529109Y-81419666D01*
X75529109Y-81419666D02*
X75552919Y-81348237D01*
X75552919Y-81348237D02*
X75576728Y-81324428D01*
X75576728Y-81133951D02*
X75552919Y-81110142D01*
X75552919Y-81110142D02*
X75529109Y-81062523D01*
X75529109Y-81062523D02*
X75529109Y-80943475D01*
X75529109Y-80943475D02*
X75552919Y-80895856D01*
X75552919Y-80895856D02*
X75576728Y-80872047D01*
X75576728Y-80872047D02*
X75624347Y-80848237D01*
X75624347Y-80848237D02*
X75671966Y-80848237D01*
X75671966Y-80848237D02*
X75743395Y-80872047D01*
X75743395Y-80872047D02*
X76029109Y-81157761D01*
X76029109Y-81157761D02*
X76029109Y-80848237D01*
X75529109Y-80538714D02*
X75529109Y-80491095D01*
X75529109Y-80491095D02*
X75552919Y-80443476D01*
X75552919Y-80443476D02*
X75576728Y-80419666D01*
X75576728Y-80419666D02*
X75624347Y-80395857D01*
X75624347Y-80395857D02*
X75719585Y-80372047D01*
X75719585Y-80372047D02*
X75838633Y-80372047D01*
X75838633Y-80372047D02*
X75933871Y-80395857D01*
X75933871Y-80395857D02*
X75981490Y-80419666D01*
X75981490Y-80419666D02*
X76005300Y-80443476D01*
X76005300Y-80443476D02*
X76029109Y-80491095D01*
X76029109Y-80491095D02*
X76029109Y-80538714D01*
X76029109Y-80538714D02*
X76005300Y-80586333D01*
X76005300Y-80586333D02*
X75981490Y-80610142D01*
X75981490Y-80610142D02*
X75933871Y-80633952D01*
X75933871Y-80633952D02*
X75838633Y-80657761D01*
X75838633Y-80657761D02*
X75719585Y-80657761D01*
X75719585Y-80657761D02*
X75624347Y-80633952D01*
X75624347Y-80633952D02*
X75576728Y-80610142D01*
X75576728Y-80610142D02*
X75552919Y-80586333D01*
X75552919Y-80586333D02*
X75529109Y-80538714D01*
D12*
X86971904Y-96804318D02*
X87818571Y-98074318D01*
X87818571Y-96804318D02*
X86971904Y-98074318D01*
X88241904Y-96925270D02*
X88302380Y-96864794D01*
X88302380Y-96864794D02*
X88423333Y-96804318D01*
X88423333Y-96804318D02*
X88725714Y-96804318D01*
X88725714Y-96804318D02*
X88846666Y-96864794D01*
X88846666Y-96864794D02*
X88907142Y-96925270D01*
X88907142Y-96925270D02*
X88967619Y-97046222D01*
X88967619Y-97046222D02*
X88967619Y-97167175D01*
X88967619Y-97167175D02*
X88907142Y-97348603D01*
X88907142Y-97348603D02*
X88181428Y-98074318D01*
X88181428Y-98074318D02*
X88967619Y-98074318D01*
X74471904Y-96804318D02*
X75318571Y-98074318D01*
X75318571Y-96804318D02*
X74471904Y-98074318D01*
X76467619Y-98074318D02*
X75741904Y-98074318D01*
X76104761Y-98074318D02*
X76104761Y-96804318D01*
X76104761Y-96804318D02*
X75983809Y-96985746D01*
X75983809Y-96985746D02*
X75862857Y-97106699D01*
X75862857Y-97106699D02*
X75741904Y-97167175D01*
D10*
X79542580Y-73261905D02*
X78733057Y-73261905D01*
X78733057Y-73261905D02*
X78637819Y-73309524D01*
X78637819Y-73309524D02*
X78590200Y-73357143D01*
X78590200Y-73357143D02*
X78542580Y-73452381D01*
X78542580Y-73452381D02*
X78542580Y-73642857D01*
X78542580Y-73642857D02*
X78590200Y-73738095D01*
X78590200Y-73738095D02*
X78637819Y-73785714D01*
X78637819Y-73785714D02*
X78733057Y-73833333D01*
X78733057Y-73833333D02*
X79542580Y-73833333D01*
X78590200Y-74261905D02*
X78542580Y-74404762D01*
X78542580Y-74404762D02*
X78542580Y-74642857D01*
X78542580Y-74642857D02*
X78590200Y-74738095D01*
X78590200Y-74738095D02*
X78637819Y-74785714D01*
X78637819Y-74785714D02*
X78733057Y-74833333D01*
X78733057Y-74833333D02*
X78828295Y-74833333D01*
X78828295Y-74833333D02*
X78923533Y-74785714D01*
X78923533Y-74785714D02*
X78971152Y-74738095D01*
X78971152Y-74738095D02*
X79018771Y-74642857D01*
X79018771Y-74642857D02*
X79066390Y-74452381D01*
X79066390Y-74452381D02*
X79114009Y-74357143D01*
X79114009Y-74357143D02*
X79161628Y-74309524D01*
X79161628Y-74309524D02*
X79256866Y-74261905D01*
X79256866Y-74261905D02*
X79352104Y-74261905D01*
X79352104Y-74261905D02*
X79447342Y-74309524D01*
X79447342Y-74309524D02*
X79494961Y-74357143D01*
X79494961Y-74357143D02*
X79542580Y-74452381D01*
X79542580Y-74452381D02*
X79542580Y-74690476D01*
X79542580Y-74690476D02*
X79494961Y-74833333D01*
X79685438Y-74547619D02*
X78399723Y-74547619D01*
X79542580Y-75690476D02*
X79542580Y-75500000D01*
X79542580Y-75500000D02*
X79494961Y-75404762D01*
X79494961Y-75404762D02*
X79447342Y-75357143D01*
X79447342Y-75357143D02*
X79304485Y-75261905D01*
X79304485Y-75261905D02*
X79114009Y-75214286D01*
X79114009Y-75214286D02*
X78733057Y-75214286D01*
X78733057Y-75214286D02*
X78637819Y-75261905D01*
X78637819Y-75261905D02*
X78590200Y-75309524D01*
X78590200Y-75309524D02*
X78542580Y-75404762D01*
X78542580Y-75404762D02*
X78542580Y-75595238D01*
X78542580Y-75595238D02*
X78590200Y-75690476D01*
X78590200Y-75690476D02*
X78637819Y-75738095D01*
X78637819Y-75738095D02*
X78733057Y-75785714D01*
X78733057Y-75785714D02*
X78971152Y-75785714D01*
X78971152Y-75785714D02*
X79066390Y-75738095D01*
X79066390Y-75738095D02*
X79114009Y-75690476D01*
X79114009Y-75690476D02*
X79161628Y-75595238D01*
X79161628Y-75595238D02*
X79161628Y-75404762D01*
X79161628Y-75404762D02*
X79114009Y-75309524D01*
X79114009Y-75309524D02*
X79066390Y-75261905D01*
X79066390Y-75261905D02*
X78971152Y-75214286D01*
D11*
X89719819Y-84956857D02*
X89243628Y-85290190D01*
X89719819Y-85528285D02*
X88719819Y-85528285D01*
X88719819Y-85528285D02*
X88719819Y-85147333D01*
X88719819Y-85147333D02*
X88767438Y-85052095D01*
X88767438Y-85052095D02*
X88815057Y-85004476D01*
X88815057Y-85004476D02*
X88910295Y-84956857D01*
X88910295Y-84956857D02*
X89053152Y-84956857D01*
X89053152Y-84956857D02*
X89148390Y-85004476D01*
X89148390Y-85004476D02*
X89196009Y-85052095D01*
X89196009Y-85052095D02*
X89243628Y-85147333D01*
X89243628Y-85147333D02*
X89243628Y-85528285D01*
X89719819Y-84004476D02*
X89719819Y-84575904D01*
X89719819Y-84290190D02*
X88719819Y-84290190D01*
X88719819Y-84290190D02*
X88862676Y-84385428D01*
X88862676Y-84385428D02*
X88957914Y-84480666D01*
X88957914Y-84480666D02*
X89005533Y-84575904D01*
X88719819Y-83671142D02*
X88719819Y-83052095D01*
X88719819Y-83052095D02*
X89100771Y-83385428D01*
X89100771Y-83385428D02*
X89100771Y-83242571D01*
X89100771Y-83242571D02*
X89148390Y-83147333D01*
X89148390Y-83147333D02*
X89196009Y-83099714D01*
X89196009Y-83099714D02*
X89291247Y-83052095D01*
X89291247Y-83052095D02*
X89529342Y-83052095D01*
X89529342Y-83052095D02*
X89624580Y-83099714D01*
X89624580Y-83099714D02*
X89672200Y-83147333D01*
X89672200Y-83147333D02*
X89719819Y-83242571D01*
X89719819Y-83242571D02*
X89719819Y-83528285D01*
X89719819Y-83528285D02*
X89672200Y-83623523D01*
X89672200Y-83623523D02*
X89624580Y-83671142D01*
D12*
X64304318Y-93528095D02*
X65574318Y-92681428D01*
X64304318Y-92681428D02*
X65574318Y-93528095D01*
X64304318Y-92318571D02*
X64304318Y-91532380D01*
X64304318Y-91532380D02*
X64788127Y-91955714D01*
X64788127Y-91955714D02*
X64788127Y-91774285D01*
X64788127Y-91774285D02*
X64848603Y-91653333D01*
X64848603Y-91653333D02*
X64909080Y-91592857D01*
X64909080Y-91592857D02*
X65030032Y-91532380D01*
X65030032Y-91532380D02*
X65332413Y-91532380D01*
X65332413Y-91532380D02*
X65453365Y-91592857D01*
X65453365Y-91592857D02*
X65513842Y-91653333D01*
X65513842Y-91653333D02*
X65574318Y-91774285D01*
X65574318Y-91774285D02*
X65574318Y-92137142D01*
X65574318Y-92137142D02*
X65513842Y-92258095D01*
X65513842Y-92258095D02*
X65453365Y-92318571D01*
D11*
X94954819Y-95688285D02*
X93954819Y-95688285D01*
X93954819Y-95688285D02*
X93954819Y-95450190D01*
X93954819Y-95450190D02*
X94002438Y-95307333D01*
X94002438Y-95307333D02*
X94097676Y-95212095D01*
X94097676Y-95212095D02*
X94192914Y-95164476D01*
X94192914Y-95164476D02*
X94383390Y-95116857D01*
X94383390Y-95116857D02*
X94526247Y-95116857D01*
X94526247Y-95116857D02*
X94716723Y-95164476D01*
X94716723Y-95164476D02*
X94811961Y-95212095D01*
X94811961Y-95212095D02*
X94907200Y-95307333D01*
X94907200Y-95307333D02*
X94954819Y-95450190D01*
X94954819Y-95450190D02*
X94954819Y-95688285D01*
X94954819Y-94164476D02*
X94954819Y-94735904D01*
X94954819Y-94450190D02*
X93954819Y-94450190D01*
X93954819Y-94450190D02*
X94097676Y-94545428D01*
X94097676Y-94545428D02*
X94192914Y-94640666D01*
X94192914Y-94640666D02*
X94240533Y-94735904D01*
X94954819Y-93212095D02*
X94954819Y-93783523D01*
X94954819Y-93497809D02*
X93954819Y-93497809D01*
X93954819Y-93497809D02*
X94097676Y-93593047D01*
X94097676Y-93593047D02*
X94192914Y-93688285D01*
X94192914Y-93688285D02*
X94240533Y-93783523D01*
X85954819Y-84166666D02*
X85478628Y-84499999D01*
X85954819Y-84738094D02*
X84954819Y-84738094D01*
X84954819Y-84738094D02*
X84954819Y-84357142D01*
X84954819Y-84357142D02*
X85002438Y-84261904D01*
X85002438Y-84261904D02*
X85050057Y-84214285D01*
X85050057Y-84214285D02*
X85145295Y-84166666D01*
X85145295Y-84166666D02*
X85288152Y-84166666D01*
X85288152Y-84166666D02*
X85383390Y-84214285D01*
X85383390Y-84214285D02*
X85431009Y-84261904D01*
X85431009Y-84261904D02*
X85478628Y-84357142D01*
X85478628Y-84357142D02*
X85478628Y-84738094D01*
X84954819Y-83309523D02*
X84954819Y-83499999D01*
X84954819Y-83499999D02*
X85002438Y-83595237D01*
X85002438Y-83595237D02*
X85050057Y-83642856D01*
X85050057Y-83642856D02*
X85192914Y-83738094D01*
X85192914Y-83738094D02*
X85383390Y-83785713D01*
X85383390Y-83785713D02*
X85764342Y-83785713D01*
X85764342Y-83785713D02*
X85859580Y-83738094D01*
X85859580Y-83738094D02*
X85907200Y-83690475D01*
X85907200Y-83690475D02*
X85954819Y-83595237D01*
X85954819Y-83595237D02*
X85954819Y-83404761D01*
X85954819Y-83404761D02*
X85907200Y-83309523D01*
X85907200Y-83309523D02*
X85859580Y-83261904D01*
X85859580Y-83261904D02*
X85764342Y-83214285D01*
X85764342Y-83214285D02*
X85526247Y-83214285D01*
X85526247Y-83214285D02*
X85431009Y-83261904D01*
X85431009Y-83261904D02*
X85383390Y-83309523D01*
X85383390Y-83309523D02*
X85335771Y-83404761D01*
X85335771Y-83404761D02*
X85335771Y-83595237D01*
X85335771Y-83595237D02*
X85383390Y-83690475D01*
X85383390Y-83690475D02*
X85431009Y-83738094D01*
X85431009Y-83738094D02*
X85526247Y-83785713D01*
D12*
X70409080Y-70923332D02*
X70409080Y-71346666D01*
X71074318Y-71346666D02*
X69804318Y-71346666D01*
X69804318Y-71346666D02*
X69804318Y-70741904D01*
X71074318Y-69592856D02*
X71074318Y-70318571D01*
X71074318Y-69955714D02*
X69804318Y-69955714D01*
X69804318Y-69955714D02*
X69985746Y-70076666D01*
X69985746Y-70076666D02*
X70106699Y-70197618D01*
X70106699Y-70197618D02*
X70167175Y-70318571D01*
D10*
X74505109Y-81324428D02*
X74267014Y-81491094D01*
X74505109Y-81610142D02*
X74005109Y-81610142D01*
X74005109Y-81610142D02*
X74005109Y-81419666D01*
X74005109Y-81419666D02*
X74028919Y-81372047D01*
X74028919Y-81372047D02*
X74052728Y-81348237D01*
X74052728Y-81348237D02*
X74100347Y-81324428D01*
X74100347Y-81324428D02*
X74171776Y-81324428D01*
X74171776Y-81324428D02*
X74219395Y-81348237D01*
X74219395Y-81348237D02*
X74243204Y-81372047D01*
X74243204Y-81372047D02*
X74267014Y-81419666D01*
X74267014Y-81419666D02*
X74267014Y-81610142D01*
X74505109Y-80848237D02*
X74505109Y-81133951D01*
X74505109Y-80991094D02*
X74005109Y-80991094D01*
X74005109Y-80991094D02*
X74076538Y-81038713D01*
X74076538Y-81038713D02*
X74124157Y-81086332D01*
X74124157Y-81086332D02*
X74147966Y-81133951D01*
X74005109Y-80681571D02*
X74005109Y-80348238D01*
X74005109Y-80348238D02*
X74505109Y-80562523D01*
D11*
X80761905Y-96454819D02*
X80761905Y-95454819D01*
X80761905Y-95454819D02*
X81000000Y-95454819D01*
X81000000Y-95454819D02*
X81142857Y-95502438D01*
X81142857Y-95502438D02*
X81238095Y-95597676D01*
X81238095Y-95597676D02*
X81285714Y-95692914D01*
X81285714Y-95692914D02*
X81333333Y-95883390D01*
X81333333Y-95883390D02*
X81333333Y-96026247D01*
X81333333Y-96026247D02*
X81285714Y-96216723D01*
X81285714Y-96216723D02*
X81238095Y-96311961D01*
X81238095Y-96311961D02*
X81142857Y-96407200D01*
X81142857Y-96407200D02*
X81000000Y-96454819D01*
X81000000Y-96454819D02*
X80761905Y-96454819D01*
X81714286Y-95550057D02*
X81761905Y-95502438D01*
X81761905Y-95502438D02*
X81857143Y-95454819D01*
X81857143Y-95454819D02*
X82095238Y-95454819D01*
X82095238Y-95454819D02*
X82190476Y-95502438D01*
X82190476Y-95502438D02*
X82238095Y-95550057D01*
X82238095Y-95550057D02*
X82285714Y-95645295D01*
X82285714Y-95645295D02*
X82285714Y-95740533D01*
X82285714Y-95740533D02*
X82238095Y-95883390D01*
X82238095Y-95883390D02*
X81666667Y-96454819D01*
X81666667Y-96454819D02*
X82285714Y-96454819D01*
X74954819Y-84217666D02*
X74478628Y-84550999D01*
X74954819Y-84789094D02*
X73954819Y-84789094D01*
X73954819Y-84789094D02*
X73954819Y-84408142D01*
X73954819Y-84408142D02*
X74002438Y-84312904D01*
X74002438Y-84312904D02*
X74050057Y-84265285D01*
X74050057Y-84265285D02*
X74145295Y-84217666D01*
X74145295Y-84217666D02*
X74288152Y-84217666D01*
X74288152Y-84217666D02*
X74383390Y-84265285D01*
X74383390Y-84265285D02*
X74431009Y-84312904D01*
X74431009Y-84312904D02*
X74478628Y-84408142D01*
X74478628Y-84408142D02*
X74478628Y-84789094D01*
X74050057Y-83836713D02*
X74002438Y-83789094D01*
X74002438Y-83789094D02*
X73954819Y-83693856D01*
X73954819Y-83693856D02*
X73954819Y-83455761D01*
X73954819Y-83455761D02*
X74002438Y-83360523D01*
X74002438Y-83360523D02*
X74050057Y-83312904D01*
X74050057Y-83312904D02*
X74145295Y-83265285D01*
X74145295Y-83265285D02*
X74240533Y-83265285D01*
X74240533Y-83265285D02*
X74383390Y-83312904D01*
X74383390Y-83312904D02*
X74954819Y-83884332D01*
X74954819Y-83884332D02*
X74954819Y-83265285D01*
X74859580Y-72763357D02*
X74907200Y-72810976D01*
X74907200Y-72810976D02*
X74954819Y-72953833D01*
X74954819Y-72953833D02*
X74954819Y-73049071D01*
X74954819Y-73049071D02*
X74907200Y-73191928D01*
X74907200Y-73191928D02*
X74811961Y-73287166D01*
X74811961Y-73287166D02*
X74716723Y-73334785D01*
X74716723Y-73334785D02*
X74526247Y-73382404D01*
X74526247Y-73382404D02*
X74383390Y-73382404D01*
X74383390Y-73382404D02*
X74192914Y-73334785D01*
X74192914Y-73334785D02*
X74097676Y-73287166D01*
X74097676Y-73287166D02*
X74002438Y-73191928D01*
X74002438Y-73191928D02*
X73954819Y-73049071D01*
X73954819Y-73049071D02*
X73954819Y-72953833D01*
X73954819Y-72953833D02*
X74002438Y-72810976D01*
X74002438Y-72810976D02*
X74050057Y-72763357D01*
X74954819Y-71810976D02*
X74954819Y-72382404D01*
X74954819Y-72096690D02*
X73954819Y-72096690D01*
X73954819Y-72096690D02*
X74097676Y-72191928D01*
X74097676Y-72191928D02*
X74192914Y-72287166D01*
X74192914Y-72287166D02*
X74240533Y-72382404D01*
X73954819Y-70953833D02*
X73954819Y-71144309D01*
X73954819Y-71144309D02*
X74002438Y-71239547D01*
X74002438Y-71239547D02*
X74050057Y-71287166D01*
X74050057Y-71287166D02*
X74192914Y-71382404D01*
X74192914Y-71382404D02*
X74383390Y-71430023D01*
X74383390Y-71430023D02*
X74764342Y-71430023D01*
X74764342Y-71430023D02*
X74859580Y-71382404D01*
X74859580Y-71382404D02*
X74907200Y-71334785D01*
X74907200Y-71334785D02*
X74954819Y-71239547D01*
X74954819Y-71239547D02*
X74954819Y-71049071D01*
X74954819Y-71049071D02*
X74907200Y-70953833D01*
X74907200Y-70953833D02*
X74859580Y-70906214D01*
X74859580Y-70906214D02*
X74764342Y-70858595D01*
X74764342Y-70858595D02*
X74526247Y-70858595D01*
X74526247Y-70858595D02*
X74431009Y-70906214D01*
X74431009Y-70906214D02*
X74383390Y-70953833D01*
X74383390Y-70953833D02*
X74335771Y-71049071D01*
X74335771Y-71049071D02*
X74335771Y-71239547D01*
X74335771Y-71239547D02*
X74383390Y-71334785D01*
X74383390Y-71334785D02*
X74431009Y-71382404D01*
X74431009Y-71382404D02*
X74526247Y-71430023D01*
X67857142Y-60930819D02*
X67523809Y-60454628D01*
X67285714Y-60930819D02*
X67285714Y-59930819D01*
X67285714Y-59930819D02*
X67666666Y-59930819D01*
X67666666Y-59930819D02*
X67761904Y-59978438D01*
X67761904Y-59978438D02*
X67809523Y-60026057D01*
X67809523Y-60026057D02*
X67857142Y-60121295D01*
X67857142Y-60121295D02*
X67857142Y-60264152D01*
X67857142Y-60264152D02*
X67809523Y-60359390D01*
X67809523Y-60359390D02*
X67761904Y-60407009D01*
X67761904Y-60407009D02*
X67666666Y-60454628D01*
X67666666Y-60454628D02*
X67285714Y-60454628D01*
X68238095Y-60026057D02*
X68285714Y-59978438D01*
X68285714Y-59978438D02*
X68380952Y-59930819D01*
X68380952Y-59930819D02*
X68619047Y-59930819D01*
X68619047Y-59930819D02*
X68714285Y-59978438D01*
X68714285Y-59978438D02*
X68761904Y-60026057D01*
X68761904Y-60026057D02*
X68809523Y-60121295D01*
X68809523Y-60121295D02*
X68809523Y-60216533D01*
X68809523Y-60216533D02*
X68761904Y-60359390D01*
X68761904Y-60359390D02*
X68190476Y-60930819D01*
X68190476Y-60930819D02*
X68809523Y-60930819D01*
X69428571Y-59930819D02*
X69523809Y-59930819D01*
X69523809Y-59930819D02*
X69619047Y-59978438D01*
X69619047Y-59978438D02*
X69666666Y-60026057D01*
X69666666Y-60026057D02*
X69714285Y-60121295D01*
X69714285Y-60121295D02*
X69761904Y-60311771D01*
X69761904Y-60311771D02*
X69761904Y-60549866D01*
X69761904Y-60549866D02*
X69714285Y-60740342D01*
X69714285Y-60740342D02*
X69666666Y-60835580D01*
X69666666Y-60835580D02*
X69619047Y-60883200D01*
X69619047Y-60883200D02*
X69523809Y-60930819D01*
X69523809Y-60930819D02*
X69428571Y-60930819D01*
X69428571Y-60930819D02*
X69333333Y-60883200D01*
X69333333Y-60883200D02*
X69285714Y-60835580D01*
X69285714Y-60835580D02*
X69238095Y-60740342D01*
X69238095Y-60740342D02*
X69190476Y-60549866D01*
X69190476Y-60549866D02*
X69190476Y-60311771D01*
X69190476Y-60311771D02*
X69238095Y-60121295D01*
X69238095Y-60121295D02*
X69285714Y-60026057D01*
X69285714Y-60026057D02*
X69333333Y-59978438D01*
X69333333Y-59978438D02*
X69428571Y-59930819D01*
D13*
X79619047Y-80912400D02*
X79761904Y-80960019D01*
X79761904Y-80960019D02*
X79999999Y-80960019D01*
X79999999Y-80960019D02*
X80095237Y-80912400D01*
X80095237Y-80912400D02*
X80142856Y-80864780D01*
X80142856Y-80864780D02*
X80190475Y-80769542D01*
X80190475Y-80769542D02*
X80190475Y-80674304D01*
X80190475Y-80674304D02*
X80142856Y-80579066D01*
X80142856Y-80579066D02*
X80095237Y-80531447D01*
X80095237Y-80531447D02*
X79999999Y-80483828D01*
X79999999Y-80483828D02*
X79809523Y-80436209D01*
X79809523Y-80436209D02*
X79714285Y-80388590D01*
X79714285Y-80388590D02*
X79666666Y-80340971D01*
X79666666Y-80340971D02*
X79619047Y-80245733D01*
X79619047Y-80245733D02*
X79619047Y-80150495D01*
X79619047Y-80150495D02*
X79666666Y-80055257D01*
X79666666Y-80055257D02*
X79714285Y-80007638D01*
X79714285Y-80007638D02*
X79809523Y-79960019D01*
X79809523Y-79960019D02*
X80047618Y-79960019D01*
X80047618Y-79960019D02*
X80190475Y-80007638D01*
X80476190Y-79960019D02*
X81047618Y-79960019D01*
X80761904Y-80960019D02*
X80761904Y-79960019D01*
X81380952Y-80960019D02*
X81380952Y-79960019D01*
X81380952Y-79960019D02*
X81714285Y-80674304D01*
X81714285Y-80674304D02*
X82047618Y-79960019D01*
X82047618Y-79960019D02*
X82047618Y-80960019D01*
X82428571Y-79960019D02*
X83047618Y-79960019D01*
X83047618Y-79960019D02*
X82714285Y-80340971D01*
X82714285Y-80340971D02*
X82857142Y-80340971D01*
X82857142Y-80340971D02*
X82952380Y-80388590D01*
X82952380Y-80388590D02*
X82999999Y-80436209D01*
X82999999Y-80436209D02*
X83047618Y-80531447D01*
X83047618Y-80531447D02*
X83047618Y-80769542D01*
X83047618Y-80769542D02*
X82999999Y-80864780D01*
X82999999Y-80864780D02*
X82952380Y-80912400D01*
X82952380Y-80912400D02*
X82857142Y-80960019D01*
X82857142Y-80960019D02*
X82571428Y-80960019D01*
X82571428Y-80960019D02*
X82476190Y-80912400D01*
X82476190Y-80912400D02*
X82428571Y-80864780D01*
X83428571Y-80055257D02*
X83476190Y-80007638D01*
X83476190Y-80007638D02*
X83571428Y-79960019D01*
X83571428Y-79960019D02*
X83809523Y-79960019D01*
X83809523Y-79960019D02*
X83904761Y-80007638D01*
X83904761Y-80007638D02*
X83952380Y-80055257D01*
X83952380Y-80055257D02*
X83999999Y-80150495D01*
X83999999Y-80150495D02*
X83999999Y-80245733D01*
X83999999Y-80245733D02*
X83952380Y-80388590D01*
X83952380Y-80388590D02*
X83380952Y-80960019D01*
X83380952Y-80960019D02*
X83999999Y-80960019D01*
X84761904Y-80436209D02*
X84428571Y-80436209D01*
X84428571Y-80960019D02*
X84428571Y-79960019D01*
X84428571Y-79960019D02*
X84904761Y-79960019D01*
X85809523Y-80960019D02*
X85238095Y-80960019D01*
X85523809Y-80960019D02*
X85523809Y-79960019D01*
X85523809Y-79960019D02*
X85428571Y-80102876D01*
X85428571Y-80102876D02*
X85333333Y-80198114D01*
X85333333Y-80198114D02*
X85238095Y-80245733D01*
X86428571Y-79960019D02*
X86523809Y-79960019D01*
X86523809Y-79960019D02*
X86619047Y-80007638D01*
X86619047Y-80007638D02*
X86666666Y-80055257D01*
X86666666Y-80055257D02*
X86714285Y-80150495D01*
X86714285Y-80150495D02*
X86761904Y-80340971D01*
X86761904Y-80340971D02*
X86761904Y-80579066D01*
X86761904Y-80579066D02*
X86714285Y-80769542D01*
X86714285Y-80769542D02*
X86666666Y-80864780D01*
X86666666Y-80864780D02*
X86619047Y-80912400D01*
X86619047Y-80912400D02*
X86523809Y-80960019D01*
X86523809Y-80960019D02*
X86428571Y-80960019D01*
X86428571Y-80960019D02*
X86333333Y-80912400D01*
X86333333Y-80912400D02*
X86285714Y-80864780D01*
X86285714Y-80864780D02*
X86238095Y-80769542D01*
X86238095Y-80769542D02*
X86190476Y-80579066D01*
X86190476Y-80579066D02*
X86190476Y-80340971D01*
X86190476Y-80340971D02*
X86238095Y-80150495D01*
X86238095Y-80150495D02*
X86285714Y-80055257D01*
X86285714Y-80055257D02*
X86333333Y-80007638D01*
X86333333Y-80007638D02*
X86428571Y-79960019D01*
X87095238Y-79960019D02*
X87714285Y-79960019D01*
X87714285Y-79960019D02*
X87380952Y-80340971D01*
X87380952Y-80340971D02*
X87523809Y-80340971D01*
X87523809Y-80340971D02*
X87619047Y-80388590D01*
X87619047Y-80388590D02*
X87666666Y-80436209D01*
X87666666Y-80436209D02*
X87714285Y-80531447D01*
X87714285Y-80531447D02*
X87714285Y-80769542D01*
X87714285Y-80769542D02*
X87666666Y-80864780D01*
X87666666Y-80864780D02*
X87619047Y-80912400D01*
X87619047Y-80912400D02*
X87523809Y-80960019D01*
X87523809Y-80960019D02*
X87238095Y-80960019D01*
X87238095Y-80960019D02*
X87142857Y-80912400D01*
X87142857Y-80912400D02*
X87095238Y-80864780D01*
X88714285Y-80864780D02*
X88666666Y-80912400D01*
X88666666Y-80912400D02*
X88523809Y-80960019D01*
X88523809Y-80960019D02*
X88428571Y-80960019D01*
X88428571Y-80960019D02*
X88285714Y-80912400D01*
X88285714Y-80912400D02*
X88190476Y-80817161D01*
X88190476Y-80817161D02*
X88142857Y-80721923D01*
X88142857Y-80721923D02*
X88095238Y-80531447D01*
X88095238Y-80531447D02*
X88095238Y-80388590D01*
X88095238Y-80388590D02*
X88142857Y-80198114D01*
X88142857Y-80198114D02*
X88190476Y-80102876D01*
X88190476Y-80102876D02*
X88285714Y-80007638D01*
X88285714Y-80007638D02*
X88428571Y-79960019D01*
X88428571Y-79960019D02*
X88523809Y-79960019D01*
X88523809Y-79960019D02*
X88666666Y-80007638D01*
X88666666Y-80007638D02*
X88714285Y-80055257D01*
X89285714Y-80388590D02*
X89190476Y-80340971D01*
X89190476Y-80340971D02*
X89142857Y-80293352D01*
X89142857Y-80293352D02*
X89095238Y-80198114D01*
X89095238Y-80198114D02*
X89095238Y-80150495D01*
X89095238Y-80150495D02*
X89142857Y-80055257D01*
X89142857Y-80055257D02*
X89190476Y-80007638D01*
X89190476Y-80007638D02*
X89285714Y-79960019D01*
X89285714Y-79960019D02*
X89476190Y-79960019D01*
X89476190Y-79960019D02*
X89571428Y-80007638D01*
X89571428Y-80007638D02*
X89619047Y-80055257D01*
X89619047Y-80055257D02*
X89666666Y-80150495D01*
X89666666Y-80150495D02*
X89666666Y-80198114D01*
X89666666Y-80198114D02*
X89619047Y-80293352D01*
X89619047Y-80293352D02*
X89571428Y-80340971D01*
X89571428Y-80340971D02*
X89476190Y-80388590D01*
X89476190Y-80388590D02*
X89285714Y-80388590D01*
X89285714Y-80388590D02*
X89190476Y-80436209D01*
X89190476Y-80436209D02*
X89142857Y-80483828D01*
X89142857Y-80483828D02*
X89095238Y-80579066D01*
X89095238Y-80579066D02*
X89095238Y-80769542D01*
X89095238Y-80769542D02*
X89142857Y-80864780D01*
X89142857Y-80864780D02*
X89190476Y-80912400D01*
X89190476Y-80912400D02*
X89285714Y-80960019D01*
X89285714Y-80960019D02*
X89476190Y-80960019D01*
X89476190Y-80960019D02*
X89571428Y-80912400D01*
X89571428Y-80912400D02*
X89619047Y-80864780D01*
X89619047Y-80864780D02*
X89666666Y-80769542D01*
X89666666Y-80769542D02*
X89666666Y-80579066D01*
X89666666Y-80579066D02*
X89619047Y-80483828D01*
X89619047Y-80483828D02*
X89571428Y-80436209D01*
X89571428Y-80436209D02*
X89476190Y-80388590D01*
X89952381Y-79960019D02*
X90523809Y-79960019D01*
X90238095Y-80960019D02*
X90238095Y-79960019D01*
X91285714Y-79960019D02*
X91095238Y-79960019D01*
X91095238Y-79960019D02*
X91000000Y-80007638D01*
X91000000Y-80007638D02*
X90952381Y-80055257D01*
X90952381Y-80055257D02*
X90857143Y-80198114D01*
X90857143Y-80198114D02*
X90809524Y-80388590D01*
X90809524Y-80388590D02*
X90809524Y-80769542D01*
X90809524Y-80769542D02*
X90857143Y-80864780D01*
X90857143Y-80864780D02*
X90904762Y-80912400D01*
X90904762Y-80912400D02*
X91000000Y-80960019D01*
X91000000Y-80960019D02*
X91190476Y-80960019D01*
X91190476Y-80960019D02*
X91285714Y-80912400D01*
X91285714Y-80912400D02*
X91333333Y-80864780D01*
X91333333Y-80864780D02*
X91380952Y-80769542D01*
X91380952Y-80769542D02*
X91380952Y-80531447D01*
X91380952Y-80531447D02*
X91333333Y-80436209D01*
X91333333Y-80436209D02*
X91285714Y-80388590D01*
X91285714Y-80388590D02*
X91190476Y-80340971D01*
X91190476Y-80340971D02*
X91000000Y-80340971D01*
X91000000Y-80340971D02*
X90904762Y-80388590D01*
X90904762Y-80388590D02*
X90857143Y-80436209D01*
X90857143Y-80436209D02*
X90809524Y-80531447D01*
D11*
X82954819Y-84166666D02*
X82478628Y-84499999D01*
X82954819Y-84738094D02*
X81954819Y-84738094D01*
X81954819Y-84738094D02*
X81954819Y-84357142D01*
X81954819Y-84357142D02*
X82002438Y-84261904D01*
X82002438Y-84261904D02*
X82050057Y-84214285D01*
X82050057Y-84214285D02*
X82145295Y-84166666D01*
X82145295Y-84166666D02*
X82288152Y-84166666D01*
X82288152Y-84166666D02*
X82383390Y-84214285D01*
X82383390Y-84214285D02*
X82431009Y-84261904D01*
X82431009Y-84261904D02*
X82478628Y-84357142D01*
X82478628Y-84357142D02*
X82478628Y-84738094D01*
X81954819Y-83833332D02*
X81954819Y-83166666D01*
X81954819Y-83166666D02*
X82954819Y-83595237D01*
X75261905Y-96454819D02*
X75261905Y-95454819D01*
X75261905Y-95454819D02*
X75500000Y-95454819D01*
X75500000Y-95454819D02*
X75642857Y-95502438D01*
X75642857Y-95502438D02*
X75738095Y-95597676D01*
X75738095Y-95597676D02*
X75785714Y-95692914D01*
X75785714Y-95692914D02*
X75833333Y-95883390D01*
X75833333Y-95883390D02*
X75833333Y-96026247D01*
X75833333Y-96026247D02*
X75785714Y-96216723D01*
X75785714Y-96216723D02*
X75738095Y-96311961D01*
X75738095Y-96311961D02*
X75642857Y-96407200D01*
X75642857Y-96407200D02*
X75500000Y-96454819D01*
X75500000Y-96454819D02*
X75261905Y-96454819D01*
X76785714Y-96454819D02*
X76214286Y-96454819D01*
X76500000Y-96454819D02*
X76500000Y-95454819D01*
X76500000Y-95454819D02*
X76404762Y-95597676D01*
X76404762Y-95597676D02*
X76309524Y-95692914D01*
X76309524Y-95692914D02*
X76214286Y-95740533D01*
X92454819Y-95688285D02*
X91454819Y-95688285D01*
X91454819Y-95688285D02*
X91454819Y-95450190D01*
X91454819Y-95450190D02*
X91502438Y-95307333D01*
X91502438Y-95307333D02*
X91597676Y-95212095D01*
X91597676Y-95212095D02*
X91692914Y-95164476D01*
X91692914Y-95164476D02*
X91883390Y-95116857D01*
X91883390Y-95116857D02*
X92026247Y-95116857D01*
X92026247Y-95116857D02*
X92216723Y-95164476D01*
X92216723Y-95164476D02*
X92311961Y-95212095D01*
X92311961Y-95212095D02*
X92407200Y-95307333D01*
X92407200Y-95307333D02*
X92454819Y-95450190D01*
X92454819Y-95450190D02*
X92454819Y-95688285D01*
X92454819Y-94164476D02*
X92454819Y-94735904D01*
X92454819Y-94450190D02*
X91454819Y-94450190D01*
X91454819Y-94450190D02*
X91597676Y-94545428D01*
X91597676Y-94545428D02*
X91692914Y-94640666D01*
X91692914Y-94640666D02*
X91740533Y-94735904D01*
X91454819Y-93545428D02*
X91454819Y-93450190D01*
X91454819Y-93450190D02*
X91502438Y-93354952D01*
X91502438Y-93354952D02*
X91550057Y-93307333D01*
X91550057Y-93307333D02*
X91645295Y-93259714D01*
X91645295Y-93259714D02*
X91835771Y-93212095D01*
X91835771Y-93212095D02*
X92073866Y-93212095D01*
X92073866Y-93212095D02*
X92264342Y-93259714D01*
X92264342Y-93259714D02*
X92359580Y-93307333D01*
X92359580Y-93307333D02*
X92407200Y-93354952D01*
X92407200Y-93354952D02*
X92454819Y-93450190D01*
X92454819Y-93450190D02*
X92454819Y-93545428D01*
X92454819Y-93545428D02*
X92407200Y-93640666D01*
X92407200Y-93640666D02*
X92359580Y-93688285D01*
X92359580Y-93688285D02*
X92264342Y-93735904D01*
X92264342Y-93735904D02*
X92073866Y-93783523D01*
X92073866Y-93783523D02*
X91835771Y-93783523D01*
X91835771Y-93783523D02*
X91645295Y-93735904D01*
X91645295Y-93735904D02*
X91550057Y-93688285D01*
X91550057Y-93688285D02*
X91502438Y-93640666D01*
X91502438Y-93640666D02*
X91454819Y-93545428D01*
X72857142Y-52454819D02*
X72523809Y-51978628D01*
X72285714Y-52454819D02*
X72285714Y-51454819D01*
X72285714Y-51454819D02*
X72666666Y-51454819D01*
X72666666Y-51454819D02*
X72761904Y-51502438D01*
X72761904Y-51502438D02*
X72809523Y-51550057D01*
X72809523Y-51550057D02*
X72857142Y-51645295D01*
X72857142Y-51645295D02*
X72857142Y-51788152D01*
X72857142Y-51788152D02*
X72809523Y-51883390D01*
X72809523Y-51883390D02*
X72761904Y-51931009D01*
X72761904Y-51931009D02*
X72666666Y-51978628D01*
X72666666Y-51978628D02*
X72285714Y-51978628D01*
X73238095Y-51550057D02*
X73285714Y-51502438D01*
X73285714Y-51502438D02*
X73380952Y-51454819D01*
X73380952Y-51454819D02*
X73619047Y-51454819D01*
X73619047Y-51454819D02*
X73714285Y-51502438D01*
X73714285Y-51502438D02*
X73761904Y-51550057D01*
X73761904Y-51550057D02*
X73809523Y-51645295D01*
X73809523Y-51645295D02*
X73809523Y-51740533D01*
X73809523Y-51740533D02*
X73761904Y-51883390D01*
X73761904Y-51883390D02*
X73190476Y-52454819D01*
X73190476Y-52454819D02*
X73809523Y-52454819D01*
X74142857Y-51454819D02*
X74761904Y-51454819D01*
X74761904Y-51454819D02*
X74428571Y-51835771D01*
X74428571Y-51835771D02*
X74571428Y-51835771D01*
X74571428Y-51835771D02*
X74666666Y-51883390D01*
X74666666Y-51883390D02*
X74714285Y-51931009D01*
X74714285Y-51931009D02*
X74761904Y-52026247D01*
X74761904Y-52026247D02*
X74761904Y-52264342D01*
X74761904Y-52264342D02*
X74714285Y-52359580D01*
X74714285Y-52359580D02*
X74666666Y-52407200D01*
X74666666Y-52407200D02*
X74571428Y-52454819D01*
X74571428Y-52454819D02*
X74285714Y-52454819D01*
X74285714Y-52454819D02*
X74190476Y-52407200D01*
X74190476Y-52407200D02*
X74142857Y-52359580D01*
X72859580Y-72828357D02*
X72907200Y-72875976D01*
X72907200Y-72875976D02*
X72954819Y-73018833D01*
X72954819Y-73018833D02*
X72954819Y-73114071D01*
X72954819Y-73114071D02*
X72907200Y-73256928D01*
X72907200Y-73256928D02*
X72811961Y-73352166D01*
X72811961Y-73352166D02*
X72716723Y-73399785D01*
X72716723Y-73399785D02*
X72526247Y-73447404D01*
X72526247Y-73447404D02*
X72383390Y-73447404D01*
X72383390Y-73447404D02*
X72192914Y-73399785D01*
X72192914Y-73399785D02*
X72097676Y-73352166D01*
X72097676Y-73352166D02*
X72002438Y-73256928D01*
X72002438Y-73256928D02*
X71954819Y-73114071D01*
X71954819Y-73114071D02*
X71954819Y-73018833D01*
X71954819Y-73018833D02*
X72002438Y-72875976D01*
X72002438Y-72875976D02*
X72050057Y-72828357D01*
X72954819Y-71875976D02*
X72954819Y-72447404D01*
X72954819Y-72161690D02*
X71954819Y-72161690D01*
X71954819Y-72161690D02*
X72097676Y-72256928D01*
X72097676Y-72256928D02*
X72192914Y-72352166D01*
X72192914Y-72352166D02*
X72240533Y-72447404D01*
X72954819Y-71399785D02*
X72954819Y-71209309D01*
X72954819Y-71209309D02*
X72907200Y-71114071D01*
X72907200Y-71114071D02*
X72859580Y-71066452D01*
X72859580Y-71066452D02*
X72716723Y-70971214D01*
X72716723Y-70971214D02*
X72526247Y-70923595D01*
X72526247Y-70923595D02*
X72145295Y-70923595D01*
X72145295Y-70923595D02*
X72050057Y-70971214D01*
X72050057Y-70971214D02*
X72002438Y-71018833D01*
X72002438Y-71018833D02*
X71954819Y-71114071D01*
X71954819Y-71114071D02*
X71954819Y-71304547D01*
X71954819Y-71304547D02*
X72002438Y-71399785D01*
X72002438Y-71399785D02*
X72050057Y-71447404D01*
X72050057Y-71447404D02*
X72145295Y-71495023D01*
X72145295Y-71495023D02*
X72383390Y-71495023D01*
X72383390Y-71495023D02*
X72478628Y-71447404D01*
X72478628Y-71447404D02*
X72526247Y-71399785D01*
X72526247Y-71399785D02*
X72573866Y-71304547D01*
X72573866Y-71304547D02*
X72573866Y-71114071D01*
X72573866Y-71114071D02*
X72526247Y-71018833D01*
X72526247Y-71018833D02*
X72478628Y-70971214D01*
X72478628Y-70971214D02*
X72383390Y-70923595D01*
D10*
X80833333Y-51957419D02*
X80357143Y-51957419D01*
X80357143Y-51957419D02*
X80357143Y-50957419D01*
X81690476Y-51957419D02*
X81119048Y-51957419D01*
X81404762Y-51957419D02*
X81404762Y-50957419D01*
X81404762Y-50957419D02*
X81309524Y-51100276D01*
X81309524Y-51100276D02*
X81214286Y-51195514D01*
X81214286Y-51195514D02*
X81119048Y-51243133D01*
X64738095Y-84751419D02*
X64738095Y-85560942D01*
X64738095Y-85560942D02*
X64785714Y-85656180D01*
X64785714Y-85656180D02*
X64833333Y-85703800D01*
X64833333Y-85703800D02*
X64928571Y-85751419D01*
X64928571Y-85751419D02*
X65119047Y-85751419D01*
X65119047Y-85751419D02*
X65214285Y-85703800D01*
X65214285Y-85703800D02*
X65261904Y-85656180D01*
X65261904Y-85656180D02*
X65309523Y-85560942D01*
X65309523Y-85560942D02*
X65309523Y-84751419D01*
X65738095Y-84846657D02*
X65785714Y-84799038D01*
X65785714Y-84799038D02*
X65880952Y-84751419D01*
X65880952Y-84751419D02*
X66119047Y-84751419D01*
X66119047Y-84751419D02*
X66214285Y-84799038D01*
X66214285Y-84799038D02*
X66261904Y-84846657D01*
X66261904Y-84846657D02*
X66309523Y-84941895D01*
X66309523Y-84941895D02*
X66309523Y-85037133D01*
X66309523Y-85037133D02*
X66261904Y-85179990D01*
X66261904Y-85179990D02*
X65690476Y-85751419D01*
X65690476Y-85751419D02*
X66309523Y-85751419D01*
D11*
X68761905Y-96454819D02*
X68761905Y-95454819D01*
X68761905Y-95454819D02*
X69000000Y-95454819D01*
X69000000Y-95454819D02*
X69142857Y-95502438D01*
X69142857Y-95502438D02*
X69238095Y-95597676D01*
X69238095Y-95597676D02*
X69285714Y-95692914D01*
X69285714Y-95692914D02*
X69333333Y-95883390D01*
X69333333Y-95883390D02*
X69333333Y-96026247D01*
X69333333Y-96026247D02*
X69285714Y-96216723D01*
X69285714Y-96216723D02*
X69238095Y-96311961D01*
X69238095Y-96311961D02*
X69142857Y-96407200D01*
X69142857Y-96407200D02*
X69000000Y-96454819D01*
X69000000Y-96454819D02*
X68761905Y-96454819D01*
X69952381Y-95454819D02*
X70047619Y-95454819D01*
X70047619Y-95454819D02*
X70142857Y-95502438D01*
X70142857Y-95502438D02*
X70190476Y-95550057D01*
X70190476Y-95550057D02*
X70238095Y-95645295D01*
X70238095Y-95645295D02*
X70285714Y-95835771D01*
X70285714Y-95835771D02*
X70285714Y-96073866D01*
X70285714Y-96073866D02*
X70238095Y-96264342D01*
X70238095Y-96264342D02*
X70190476Y-96359580D01*
X70190476Y-96359580D02*
X70142857Y-96407200D01*
X70142857Y-96407200D02*
X70047619Y-96454819D01*
X70047619Y-96454819D02*
X69952381Y-96454819D01*
X69952381Y-96454819D02*
X69857143Y-96407200D01*
X69857143Y-96407200D02*
X69809524Y-96359580D01*
X69809524Y-96359580D02*
X69761905Y-96264342D01*
X69761905Y-96264342D02*
X69714286Y-96073866D01*
X69714286Y-96073866D02*
X69714286Y-95835771D01*
X69714286Y-95835771D02*
X69761905Y-95645295D01*
X69761905Y-95645295D02*
X69809524Y-95550057D01*
X69809524Y-95550057D02*
X69857143Y-95502438D01*
X69857143Y-95502438D02*
X69952381Y-95454819D01*
X77454819Y-84166666D02*
X76978628Y-84499999D01*
X77454819Y-84738094D02*
X76454819Y-84738094D01*
X76454819Y-84738094D02*
X76454819Y-84357142D01*
X76454819Y-84357142D02*
X76502438Y-84261904D01*
X76502438Y-84261904D02*
X76550057Y-84214285D01*
X76550057Y-84214285D02*
X76645295Y-84166666D01*
X76645295Y-84166666D02*
X76788152Y-84166666D01*
X76788152Y-84166666D02*
X76883390Y-84214285D01*
X76883390Y-84214285D02*
X76931009Y-84261904D01*
X76931009Y-84261904D02*
X76978628Y-84357142D01*
X76978628Y-84357142D02*
X76978628Y-84738094D01*
X76454819Y-83833332D02*
X76454819Y-83214285D01*
X76454819Y-83214285D02*
X76835771Y-83547618D01*
X76835771Y-83547618D02*
X76835771Y-83404761D01*
X76835771Y-83404761D02*
X76883390Y-83309523D01*
X76883390Y-83309523D02*
X76931009Y-83261904D01*
X76931009Y-83261904D02*
X77026247Y-83214285D01*
X77026247Y-83214285D02*
X77264342Y-83214285D01*
X77264342Y-83214285D02*
X77359580Y-83261904D01*
X77359580Y-83261904D02*
X77407200Y-83309523D01*
X77407200Y-83309523D02*
X77454819Y-83404761D01*
X77454819Y-83404761D02*
X77454819Y-83690475D01*
X77454819Y-83690475D02*
X77407200Y-83785713D01*
X77407200Y-83785713D02*
X77359580Y-83833332D01*
X73954819Y-65142857D02*
X73478628Y-65476190D01*
X73954819Y-65714285D02*
X72954819Y-65714285D01*
X72954819Y-65714285D02*
X72954819Y-65333333D01*
X72954819Y-65333333D02*
X73002438Y-65238095D01*
X73002438Y-65238095D02*
X73050057Y-65190476D01*
X73050057Y-65190476D02*
X73145295Y-65142857D01*
X73145295Y-65142857D02*
X73288152Y-65142857D01*
X73288152Y-65142857D02*
X73383390Y-65190476D01*
X73383390Y-65190476D02*
X73431009Y-65238095D01*
X73431009Y-65238095D02*
X73478628Y-65333333D01*
X73478628Y-65333333D02*
X73478628Y-65714285D01*
X73050057Y-64761904D02*
X73002438Y-64714285D01*
X73002438Y-64714285D02*
X72954819Y-64619047D01*
X72954819Y-64619047D02*
X72954819Y-64380952D01*
X72954819Y-64380952D02*
X73002438Y-64285714D01*
X73002438Y-64285714D02*
X73050057Y-64238095D01*
X73050057Y-64238095D02*
X73145295Y-64190476D01*
X73145295Y-64190476D02*
X73240533Y-64190476D01*
X73240533Y-64190476D02*
X73383390Y-64238095D01*
X73383390Y-64238095D02*
X73954819Y-64809523D01*
X73954819Y-64809523D02*
X73954819Y-64190476D01*
X73050057Y-63809523D02*
X73002438Y-63761904D01*
X73002438Y-63761904D02*
X72954819Y-63666666D01*
X72954819Y-63666666D02*
X72954819Y-63428571D01*
X72954819Y-63428571D02*
X73002438Y-63333333D01*
X73002438Y-63333333D02*
X73050057Y-63285714D01*
X73050057Y-63285714D02*
X73145295Y-63238095D01*
X73145295Y-63238095D02*
X73240533Y-63238095D01*
X73240533Y-63238095D02*
X73383390Y-63285714D01*
X73383390Y-63285714D02*
X73954819Y-63857142D01*
X73954819Y-63857142D02*
X73954819Y-63238095D01*
D14*
G04 #@! TO.C,U7*
X80029000Y-58979000D02*
X81229000Y-58979000D01*
X80029000Y-61879000D02*
X80029000Y-58979000D01*
X81229000Y-58979000D02*
X81229000Y-61879000D01*
X81229000Y-61879000D02*
X80029000Y-61879000D01*
X82479000Y-61929000D02*
X81579000Y-61929000D01*
D15*
G04 #@! TO.C,R18*
X68754724Y-65477500D02*
X68245276Y-65477500D01*
X68754724Y-66522500D02*
X68245276Y-66522500D01*
G04 #@! TO.C,R21*
X74477500Y-61245276D02*
X74477500Y-61754724D01*
X75522500Y-61245276D02*
X75522500Y-61754724D01*
G04 #@! TO.C,JP1*
X88189000Y-59050000D02*
X89519000Y-59050000D01*
X88189000Y-60380000D02*
X88189000Y-59050000D01*
X88189000Y-61650000D02*
X88189000Y-69330000D01*
X88189000Y-61650000D02*
X90789000Y-61650000D01*
X88189000Y-69330000D02*
X93389000Y-69330000D01*
X90789000Y-59050000D02*
X93389000Y-59050000D01*
X90789000Y-61650000D02*
X90789000Y-59050000D01*
X93389000Y-59050000D02*
X93389000Y-69330000D01*
D10*
G04 #@! TO.C,SW1*
X52400000Y-82500000D02*
X52400000Y-82500000D01*
X52400000Y-82500000D02*
X52400000Y-84500000D01*
X52400000Y-84500000D02*
X52400000Y-82500000D01*
X52400000Y-84500000D02*
X52400000Y-84500000D01*
X52400000Y-86600000D02*
X52400000Y-86600000D01*
X52400000Y-86600000D02*
X58600000Y-86600000D01*
X52500000Y-80400000D02*
X52500000Y-80400000D01*
X52500000Y-80400000D02*
X58600000Y-80400000D01*
X58600000Y-80400000D02*
X52500000Y-80400000D01*
X58600000Y-80400000D02*
X58600000Y-80400000D01*
X58600000Y-82500000D02*
X58600000Y-82500000D01*
X58600000Y-82500000D02*
X58600000Y-84500000D01*
X58600000Y-84500000D02*
X58600000Y-82500000D01*
X58600000Y-84500000D02*
X58600000Y-84500000D01*
X58600000Y-86600000D02*
X52400000Y-86600000D01*
X58600000Y-86600000D02*
X58600000Y-86600000D01*
D14*
X62100000Y-85500000D02*
X62100000Y-85500000D01*
X62100000Y-85500000D02*
X62100000Y-85500000D01*
X62200000Y-85500000D02*
X62200000Y-85500000D01*
X62100000Y-85500000D02*
G75*
G02*
X62200000Y-85500000I50000J0D01*
G01*
X62200000Y-85500000D02*
G75*
G02*
X62100000Y-85500000I-50000J0D01*
G01*
X62200000Y-85500000D02*
G75*
G02*
X62100000Y-85500000I-50000J0D01*
G01*
D15*
G04 #@! TO.C,C18*
X83990000Y-60282733D02*
X83990000Y-60575267D01*
X85010000Y-60282733D02*
X85010000Y-60575267D01*
G04 #@! TO.C,D8*
X85765000Y-50840000D02*
X85765000Y-53300000D01*
X87235000Y-50840000D02*
X85765000Y-50840000D01*
X87235000Y-53300000D02*
X87235000Y-50840000D01*
D10*
G04 #@! TO.C,U6*
X68800000Y-58595000D02*
X68800000Y-53595000D01*
X72800000Y-53595000D02*
X68800000Y-53595000D01*
X72800000Y-58595000D02*
X68800000Y-58595000D01*
X72800000Y-58595000D02*
X72800000Y-53595000D01*
D15*
G04 #@! TO.C,R14*
X90977500Y-87245276D02*
X90977500Y-87754724D01*
X92022500Y-87245276D02*
X92022500Y-87754724D01*
G04 #@! TO.C,D9*
X88540000Y-89312000D02*
X88540000Y-92172000D01*
X90460000Y-89312000D02*
X88540000Y-89312000D01*
X90460000Y-92172000D02*
X90460000Y-89312000D01*
D14*
G04 #@! TO.C,X0*
X59627000Y-98177000D02*
X67127000Y-98177000D01*
X59627000Y-110777000D02*
X59627000Y-98177000D01*
X67127000Y-98177000D02*
X67127000Y-110777000D01*
X67127000Y-110777000D02*
X59627000Y-110777000D01*
D10*
X67627000Y-101577000D02*
X67627000Y-101577000D01*
X67727000Y-101577000D02*
X67727000Y-101577000D01*
X67627000Y-101577000D02*
G75*
G02*
X67727000Y-101577000I50000J0D01*
G01*
X67727000Y-101577000D02*
G75*
G02*
X67627000Y-101577000I-50000J0D01*
G01*
D15*
G04 #@! TO.C,C17*
X79960000Y-65493000D02*
X78420000Y-65493000D01*
X79960000Y-65533000D02*
X78420000Y-65533000D01*
X79960000Y-65573000D02*
X78421000Y-65573000D01*
X79960000Y-65613000D02*
X78422000Y-65613000D01*
X79960000Y-65653000D02*
X78424000Y-65653000D01*
X79960000Y-65693000D02*
X78427000Y-65693000D01*
X79960000Y-65733000D02*
X78431000Y-65733000D01*
X79960000Y-65773000D02*
X78435000Y-65773000D01*
X79960000Y-65813000D02*
X78439000Y-65813000D01*
X79960000Y-65853000D02*
X78444000Y-65853000D01*
X79960000Y-65893000D02*
X78450000Y-65893000D01*
X79960000Y-65933000D02*
X78457000Y-65933000D01*
X79960000Y-65973000D02*
X78464000Y-65973000D01*
X79960000Y-66013000D02*
X78472000Y-66013000D01*
X79960000Y-66053000D02*
X78480000Y-66053000D01*
X79960000Y-66093000D02*
X78489000Y-66093000D01*
X79960000Y-66133000D02*
X78499000Y-66133000D01*
X79960000Y-66173000D02*
X78509000Y-66173000D01*
X79960000Y-66214000D02*
X78520000Y-66214000D01*
X79960000Y-66254000D02*
X78532000Y-66254000D01*
X79960000Y-66294000D02*
X78545000Y-66294000D01*
X79960000Y-66334000D02*
X78558000Y-66334000D01*
X79960000Y-66374000D02*
X78572000Y-66374000D01*
X79960000Y-66414000D02*
X78586000Y-66414000D01*
X79960000Y-66454000D02*
X78602000Y-66454000D01*
X79960000Y-66494000D02*
X78618000Y-66494000D01*
X79960000Y-66534000D02*
X78635000Y-66534000D01*
X79960000Y-66574000D02*
X78652000Y-66574000D01*
X79960000Y-66614000D02*
X78671000Y-66614000D01*
X79960000Y-66654000D02*
X78690000Y-66654000D01*
X79960000Y-66694000D02*
X78710000Y-66694000D01*
X79960000Y-66734000D02*
X78732000Y-66734000D01*
X79960000Y-66774000D02*
X78753000Y-66774000D01*
X79960000Y-66814000D02*
X78776000Y-66814000D01*
X79960000Y-66854000D02*
X78800000Y-66854000D01*
X79960000Y-66894000D02*
X78825000Y-66894000D01*
X79960000Y-66934000D02*
X78851000Y-66934000D01*
X79960000Y-66974000D02*
X78878000Y-66974000D01*
X79960000Y-67014000D02*
X78905000Y-67014000D01*
X79960000Y-67054000D02*
X78935000Y-67054000D01*
X79960000Y-67094000D02*
X78965000Y-67094000D01*
X79960000Y-67134000D02*
X78996000Y-67134000D01*
X79960000Y-67174000D02*
X79029000Y-67174000D01*
X79960000Y-67214000D02*
X79063000Y-67214000D01*
X79960000Y-67254000D02*
X79099000Y-67254000D01*
X79960000Y-67294000D02*
X79136000Y-67294000D01*
X79960000Y-67334000D02*
X79174000Y-67334000D01*
X79960000Y-67374000D02*
X79215000Y-67374000D01*
X79960000Y-67414000D02*
X79257000Y-67414000D01*
X79960000Y-67454000D02*
X79301000Y-67454000D01*
X79960000Y-67494000D02*
X79347000Y-67494000D01*
X81284000Y-68094000D02*
X80716000Y-68094000D01*
X81518000Y-68054000D02*
X80482000Y-68054000D01*
X81677000Y-68014000D02*
X80323000Y-68014000D01*
X81805000Y-67974000D02*
X80195000Y-67974000D01*
X81915000Y-67934000D02*
X80085000Y-67934000D01*
X82011000Y-67894000D02*
X79989000Y-67894000D01*
X82098000Y-67854000D02*
X79902000Y-67854000D01*
X82178000Y-67814000D02*
X79822000Y-67814000D01*
X82251000Y-67774000D02*
X79749000Y-67774000D01*
X82319000Y-67734000D02*
X79681000Y-67734000D01*
X82383000Y-67694000D02*
X79617000Y-67694000D01*
X82443000Y-67654000D02*
X79557000Y-67654000D01*
X82475000Y-62688225D02*
X82475000Y-63188225D01*
X82500000Y-67614000D02*
X79500000Y-67614000D01*
X82554000Y-67574000D02*
X79446000Y-67574000D01*
X82605000Y-67534000D02*
X79395000Y-67534000D01*
X82653000Y-67494000D02*
X82040000Y-67494000D01*
X82699000Y-67454000D02*
X82040000Y-67454000D01*
X82725000Y-62938225D02*
X82225000Y-62938225D01*
X82743000Y-67414000D02*
X82040000Y-67414000D01*
X82785000Y-67374000D02*
X82040000Y-67374000D01*
X82826000Y-67334000D02*
X82040000Y-67334000D01*
X82864000Y-67294000D02*
X82040000Y-67294000D01*
X82901000Y-67254000D02*
X82040000Y-67254000D01*
X82937000Y-67214000D02*
X82040000Y-67214000D01*
X82971000Y-67174000D02*
X82040000Y-67174000D01*
X83004000Y-67134000D02*
X82040000Y-67134000D01*
X83035000Y-67094000D02*
X82040000Y-67094000D01*
X83065000Y-67054000D02*
X82040000Y-67054000D01*
X83095000Y-67014000D02*
X82040000Y-67014000D01*
X83122000Y-66974000D02*
X82040000Y-66974000D01*
X83149000Y-66934000D02*
X82040000Y-66934000D01*
X83175000Y-66894000D02*
X82040000Y-66894000D01*
X83200000Y-66854000D02*
X82040000Y-66854000D01*
X83224000Y-66814000D02*
X82040000Y-66814000D01*
X83247000Y-66774000D02*
X82040000Y-66774000D01*
X83268000Y-66734000D02*
X82040000Y-66734000D01*
X83290000Y-66694000D02*
X82040000Y-66694000D01*
X83310000Y-66654000D02*
X82040000Y-66654000D01*
X83329000Y-66614000D02*
X82040000Y-66614000D01*
X83348000Y-66574000D02*
X82040000Y-66574000D01*
X83365000Y-66534000D02*
X82040000Y-66534000D01*
X83382000Y-66494000D02*
X82040000Y-66494000D01*
X83398000Y-66454000D02*
X82040000Y-66454000D01*
X83414000Y-66414000D02*
X82040000Y-66414000D01*
X83428000Y-66374000D02*
X82040000Y-66374000D01*
X83442000Y-66334000D02*
X82040000Y-66334000D01*
X83455000Y-66294000D02*
X82040000Y-66294000D01*
X83468000Y-66254000D02*
X82040000Y-66254000D01*
X83480000Y-66214000D02*
X82040000Y-66214000D01*
X83491000Y-66173000D02*
X82040000Y-66173000D01*
X83501000Y-66133000D02*
X82040000Y-66133000D01*
X83511000Y-66093000D02*
X82040000Y-66093000D01*
X83520000Y-66053000D02*
X82040000Y-66053000D01*
X83528000Y-66013000D02*
X82040000Y-66013000D01*
X83536000Y-65973000D02*
X82040000Y-65973000D01*
X83543000Y-65933000D02*
X82040000Y-65933000D01*
X83550000Y-65893000D02*
X82040000Y-65893000D01*
X83556000Y-65853000D02*
X82040000Y-65853000D01*
X83561000Y-65813000D02*
X82040000Y-65813000D01*
X83565000Y-65773000D02*
X82040000Y-65773000D01*
X83569000Y-65733000D02*
X82040000Y-65733000D01*
X83573000Y-65693000D02*
X82040000Y-65693000D01*
X83576000Y-65653000D02*
X82040000Y-65653000D01*
X83578000Y-65613000D02*
X82040000Y-65613000D01*
X83579000Y-65573000D02*
X82040000Y-65573000D01*
X83580000Y-65493000D02*
X82040000Y-65493000D01*
X83580000Y-65533000D02*
X82040000Y-65533000D01*
X83620000Y-65493000D02*
G75*
G02*
X78380000Y-65493000I-2620000J0D01*
G01*
X78380000Y-65493000D02*
G75*
G02*
X83620000Y-65493000I2620000J0D01*
G01*
G04 #@! TO.C,R16*
X76804500Y-78717724D02*
X76804500Y-78208276D01*
X77849500Y-78717724D02*
X77849500Y-78208276D01*
G04 #@! TO.C,R19*
X66977500Y-75754724D02*
X66977500Y-75245276D01*
X68022500Y-75754724D02*
X68022500Y-75245276D01*
D14*
G04 #@! TO.C,TLP172AM3*
X70875000Y-92657000D02*
X70875000Y-88657000D01*
D10*
X74025000Y-86457000D02*
X74025000Y-86457000D01*
X74125000Y-86457000D02*
X74125000Y-86457000D01*
D14*
X74575000Y-92657000D02*
X74575000Y-88657000D01*
D10*
X74025000Y-86457000D02*
G75*
G02*
X74125000Y-86457000I50000J0D01*
G01*
X74125000Y-86457000D02*
G75*
G02*
X74025000Y-86457000I-50000J0D01*
G01*
D15*
G04 #@! TO.C,R4*
X68245276Y-63477500D02*
X68754724Y-63477500D01*
X68245276Y-64522500D02*
X68754724Y-64522500D01*
D16*
G04 #@! TO.C,CN1*
X49983000Y-61490000D02*
X49983000Y-78254000D01*
X49983000Y-78254000D02*
X57623702Y-78254000D01*
X57623702Y-61490000D02*
X49983000Y-61490000D01*
X60376298Y-78254000D02*
X65985000Y-78254000D01*
X65985000Y-61490000D02*
X60376298Y-61490000D01*
X65985000Y-78254000D02*
X65985000Y-61490000D01*
X57730000Y-78889000D02*
G75*
G02*
X58009666Y-78521723I381000J0D01*
G01*
D15*
G04 #@! TO.C,R1*
X72232500Y-83796276D02*
X72232500Y-84305724D01*
X73277500Y-83796276D02*
X73277500Y-84305724D01*
G04 #@! TO.C,R5*
X80614500Y-83796276D02*
X80614500Y-84305724D01*
X81659500Y-83796276D02*
X81659500Y-84305724D01*
G04 #@! TO.C,C14*
X59854113Y-56784000D02*
X59854113Y-56216000D01*
X59894113Y-57018000D02*
X59894113Y-55982000D01*
X59934113Y-57177000D02*
X59934113Y-55823000D01*
X59974113Y-57305000D02*
X59974113Y-55695000D01*
X60014113Y-57415000D02*
X60014113Y-55585000D01*
X60054113Y-57511000D02*
X60054113Y-55489000D01*
X60094113Y-57598000D02*
X60094113Y-55402000D01*
X60134113Y-57678000D02*
X60134113Y-55322000D01*
X60174113Y-57751000D02*
X60174113Y-55249000D01*
X60214113Y-57819000D02*
X60214113Y-55181000D01*
X60254113Y-57883000D02*
X60254113Y-55117000D01*
X60294113Y-57943000D02*
X60294113Y-55057000D01*
X60334113Y-58000000D02*
X60334113Y-55000000D01*
X60374113Y-58054000D02*
X60374113Y-54946000D01*
X60414113Y-58105000D02*
X60414113Y-54895000D01*
X60454113Y-55460000D02*
X60454113Y-54847000D01*
X60454113Y-58153000D02*
X60454113Y-57540000D01*
X60494113Y-55460000D02*
X60494113Y-54801000D01*
X60494113Y-58199000D02*
X60494113Y-57540000D01*
X60534113Y-55460000D02*
X60534113Y-54757000D01*
X60534113Y-58243000D02*
X60534113Y-57540000D01*
X60574113Y-55460000D02*
X60574113Y-54715000D01*
X60574113Y-58285000D02*
X60574113Y-57540000D01*
X60614113Y-55460000D02*
X60614113Y-54674000D01*
X60614113Y-58326000D02*
X60614113Y-57540000D01*
X60654113Y-55460000D02*
X60654113Y-54636000D01*
X60654113Y-58364000D02*
X60654113Y-57540000D01*
X60694113Y-55460000D02*
X60694113Y-54599000D01*
X60694113Y-58401000D02*
X60694113Y-57540000D01*
X60734113Y-55460000D02*
X60734113Y-54563000D01*
X60734113Y-58437000D02*
X60734113Y-57540000D01*
X60774113Y-55460000D02*
X60774113Y-54529000D01*
X60774113Y-58471000D02*
X60774113Y-57540000D01*
X60814113Y-55460000D02*
X60814113Y-54496000D01*
X60814113Y-58504000D02*
X60814113Y-57540000D01*
X60854113Y-55460000D02*
X60854113Y-54465000D01*
X60854113Y-58535000D02*
X60854113Y-57540000D01*
X60894113Y-55460000D02*
X60894113Y-54435000D01*
X60894113Y-58565000D02*
X60894113Y-57540000D01*
X60934113Y-55460000D02*
X60934113Y-54405000D01*
X60934113Y-58595000D02*
X60934113Y-57540000D01*
X60974113Y-55460000D02*
X60974113Y-54378000D01*
X60974113Y-58622000D02*
X60974113Y-57540000D01*
X61014113Y-55460000D02*
X61014113Y-54351000D01*
X61014113Y-58649000D02*
X61014113Y-57540000D01*
X61054113Y-55460000D02*
X61054113Y-54325000D01*
X61054113Y-58675000D02*
X61054113Y-57540000D01*
X61094113Y-55460000D02*
X61094113Y-54300000D01*
X61094113Y-58700000D02*
X61094113Y-57540000D01*
X61134113Y-55460000D02*
X61134113Y-54276000D01*
X61134113Y-58724000D02*
X61134113Y-57540000D01*
X61174113Y-55460000D02*
X61174113Y-54253000D01*
X61174113Y-58747000D02*
X61174113Y-57540000D01*
X61214113Y-55460000D02*
X61214113Y-54232000D01*
X61214113Y-58768000D02*
X61214113Y-57540000D01*
X61254113Y-55460000D02*
X61254113Y-54210000D01*
X61254113Y-58790000D02*
X61254113Y-57540000D01*
X61294113Y-55460000D02*
X61294113Y-54190000D01*
X61294113Y-58810000D02*
X61294113Y-57540000D01*
X61334113Y-55460000D02*
X61334113Y-54171000D01*
X61334113Y-58829000D02*
X61334113Y-57540000D01*
X61374113Y-55460000D02*
X61374113Y-54152000D01*
X61374113Y-58848000D02*
X61374113Y-57540000D01*
X61414113Y-55460000D02*
X61414113Y-54135000D01*
X61414113Y-58865000D02*
X61414113Y-57540000D01*
X61454113Y-55460000D02*
X61454113Y-54118000D01*
X61454113Y-58882000D02*
X61454113Y-57540000D01*
X61494113Y-55460000D02*
X61494113Y-54102000D01*
X61494113Y-58898000D02*
X61494113Y-57540000D01*
X61534113Y-55460000D02*
X61534113Y-54086000D01*
X61534113Y-58914000D02*
X61534113Y-57540000D01*
X61574113Y-55460000D02*
X61574113Y-54072000D01*
X61574113Y-58928000D02*
X61574113Y-57540000D01*
X61614113Y-55460000D02*
X61614113Y-54058000D01*
X61614113Y-58942000D02*
X61614113Y-57540000D01*
X61654113Y-55460000D02*
X61654113Y-54045000D01*
X61654113Y-58955000D02*
X61654113Y-57540000D01*
X61694113Y-55460000D02*
X61694113Y-54032000D01*
X61694113Y-58968000D02*
X61694113Y-57540000D01*
X61734113Y-55460000D02*
X61734113Y-54020000D01*
X61734113Y-58980000D02*
X61734113Y-57540000D01*
X61775113Y-55460000D02*
X61775113Y-54009000D01*
X61775113Y-58991000D02*
X61775113Y-57540000D01*
X61815113Y-55460000D02*
X61815113Y-53999000D01*
X61815113Y-59001000D02*
X61815113Y-57540000D01*
X61855113Y-55460000D02*
X61855113Y-53989000D01*
X61855113Y-59011000D02*
X61855113Y-57540000D01*
X61895113Y-55460000D02*
X61895113Y-53980000D01*
X61895113Y-59020000D02*
X61895113Y-57540000D01*
X61935113Y-55460000D02*
X61935113Y-53972000D01*
X61935113Y-59028000D02*
X61935113Y-57540000D01*
X61975113Y-55460000D02*
X61975113Y-53964000D01*
X61975113Y-59036000D02*
X61975113Y-57540000D01*
X62015113Y-55460000D02*
X62015113Y-53957000D01*
X62015113Y-59043000D02*
X62015113Y-57540000D01*
X62055113Y-55460000D02*
X62055113Y-53950000D01*
X62055113Y-59050000D02*
X62055113Y-57540000D01*
X62095113Y-55460000D02*
X62095113Y-53944000D01*
X62095113Y-59056000D02*
X62095113Y-57540000D01*
X62135113Y-55460000D02*
X62135113Y-53939000D01*
X62135113Y-59061000D02*
X62135113Y-57540000D01*
X62175113Y-55460000D02*
X62175113Y-53935000D01*
X62175113Y-59065000D02*
X62175113Y-57540000D01*
X62215113Y-55460000D02*
X62215113Y-53931000D01*
X62215113Y-59069000D02*
X62215113Y-57540000D01*
X62255113Y-55460000D02*
X62255113Y-53927000D01*
X62255113Y-59073000D02*
X62255113Y-57540000D01*
X62295113Y-55460000D02*
X62295113Y-53924000D01*
X62295113Y-59076000D02*
X62295113Y-57540000D01*
X62335113Y-55460000D02*
X62335113Y-53922000D01*
X62335113Y-59078000D02*
X62335113Y-57540000D01*
X62375113Y-55460000D02*
X62375113Y-53921000D01*
X62375113Y-59079000D02*
X62375113Y-57540000D01*
X62415113Y-55460000D02*
X62415113Y-53920000D01*
X62415113Y-59080000D02*
X62415113Y-57540000D01*
X62455113Y-55460000D02*
X62455113Y-53920000D01*
X62455113Y-59080000D02*
X62455113Y-57540000D01*
X65009888Y-58225000D02*
X65009888Y-57725000D01*
X65259888Y-57975000D02*
X64759888Y-57975000D01*
X65075113Y-56500000D02*
G75*
G02*
X59835113Y-56500000I-2620000J0D01*
G01*
X59835113Y-56500000D02*
G75*
G02*
X65075113Y-56500000I2620000J0D01*
G01*
D14*
G04 #@! TO.C,TLP172AM1*
X76717000Y-92657000D02*
X76717000Y-88657000D01*
D10*
X79867000Y-86457000D02*
X79867000Y-86457000D01*
X79967000Y-86457000D02*
X79967000Y-86457000D01*
D14*
X80417000Y-92657000D02*
X80417000Y-88657000D01*
D10*
X79867000Y-86457000D02*
G75*
G02*
X79967000Y-86457000I50000J0D01*
G01*
X79967000Y-86457000D02*
G75*
G02*
X79867000Y-86457000I-50000J0D01*
G01*
D15*
G04 #@! TO.C,C15*
X76490000Y-61353733D02*
X76490000Y-61646267D01*
X77510000Y-61353733D02*
X77510000Y-61646267D01*
G04 #@! TO.C,R15*
X93477500Y-87210776D02*
X93477500Y-87720224D01*
X94522500Y-87210776D02*
X94522500Y-87720224D01*
G04 #@! TO.C,C20*
X75293000Y-78609267D02*
X75293000Y-78316733D01*
X76313000Y-78609267D02*
X76313000Y-78316733D01*
D14*
G04 #@! TO.C,X2*
X78891000Y-98177000D02*
X86391000Y-98177000D01*
X78891000Y-110777000D02*
X78891000Y-98177000D01*
X86391000Y-98177000D02*
X86391000Y-110777000D01*
X86391000Y-110777000D02*
X78891000Y-110777000D01*
D10*
X86891000Y-101577000D02*
X86891000Y-101577000D01*
X86991000Y-101577000D02*
X86991000Y-101577000D01*
X86891000Y-101577000D02*
G75*
G02*
X86991000Y-101577000I50000J0D01*
G01*
X86991000Y-101577000D02*
G75*
G02*
X86891000Y-101577000I-50000J0D01*
G01*
D14*
G04 #@! TO.C,X1*
X69279000Y-98177000D02*
X76779000Y-98177000D01*
X69279000Y-110777000D02*
X69279000Y-98177000D01*
X76779000Y-98177000D02*
X76779000Y-110777000D01*
X76779000Y-110777000D02*
X69279000Y-110777000D01*
D10*
X77279000Y-101577000D02*
X77279000Y-101577000D01*
X77379000Y-101577000D02*
X77379000Y-101577000D01*
X77279000Y-101577000D02*
G75*
G02*
X77379000Y-101577000I50000J0D01*
G01*
X77379000Y-101577000D02*
G75*
G02*
X77279000Y-101577000I-50000J0D01*
G01*
G04 #@! TO.C,U$6*
X76727000Y-72799000D02*
X77927000Y-72799000D01*
X76727000Y-75999000D02*
X76727000Y-72799000D01*
X77927000Y-72799000D02*
X77927000Y-75999000D01*
X77927000Y-75999000D02*
X76727000Y-75999000D01*
D15*
G04 #@! TO.C,R13*
X88742500Y-87210776D02*
X88742500Y-87720224D01*
X89787500Y-87210776D02*
X89787500Y-87720224D01*
D14*
G04 #@! TO.C,X3*
X51300000Y-88663000D02*
X63900000Y-88663000D01*
X51300000Y-96163000D02*
X51300000Y-88663000D01*
D10*
X60500000Y-96663000D02*
X60500000Y-96663000D01*
X60500000Y-96763000D02*
X60500000Y-96763000D01*
D14*
X63900000Y-88663000D02*
X63900000Y-96163000D01*
X63900000Y-96163000D02*
X51300000Y-96163000D01*
D10*
X60500000Y-96663000D02*
G75*
G02*
X60500000Y-96763000I0J-50000D01*
G01*
X60500000Y-96763000D02*
G75*
G02*
X60500000Y-96663000I0J50000D01*
G01*
D15*
G04 #@! TO.C,D11*
X93540000Y-89312000D02*
X93540000Y-92172000D01*
X95460000Y-89312000D02*
X93540000Y-89312000D01*
X95460000Y-92172000D02*
X95460000Y-89312000D01*
G04 #@! TO.C,R6*
X86202500Y-83796276D02*
X86202500Y-84305724D01*
X87247500Y-83796276D02*
X87247500Y-84305724D01*
D14*
G04 #@! TO.C,F1*
X67808000Y-70500000D02*
X69192000Y-70500000D01*
X68400000Y-73100000D02*
X68400000Y-73100000D01*
X68600000Y-73100000D02*
X68600000Y-73100000D01*
X68400000Y-73100000D02*
G75*
G02*
X68600000Y-73100000I100000J0D01*
G01*
X68600000Y-73100000D02*
G75*
G02*
X68400000Y-73100000I-100000J0D01*
G01*
D15*
G04 #@! TO.C,R17*
X73756500Y-78717724D02*
X73756500Y-78208276D01*
X74801500Y-78717724D02*
X74801500Y-78208276D01*
G04 #@! TO.C,D2*
X82666000Y-95508000D02*
X82666000Y-96978000D01*
X82666000Y-96978000D02*
X85126000Y-96978000D01*
X85126000Y-95508000D02*
X82666000Y-95508000D01*
G04 #@! TO.C,R2*
X75026500Y-83796276D02*
X75026500Y-84305724D01*
X76071500Y-83796276D02*
X76071500Y-84305724D01*
G04 #@! TO.C,C16*
X73990000Y-68991233D02*
X73990000Y-69283767D01*
X75010000Y-68991233D02*
X75010000Y-69283767D01*
G04 #@! TO.C,R20*
X68754724Y-61477500D02*
X68245276Y-61477500D01*
X68754724Y-62522500D02*
X68245276Y-62522500D01*
D17*
G04 #@! TO.C,STM32F103C8T6*
X81855000Y-71191000D02*
X81855000Y-71581000D01*
X81855000Y-78001000D02*
X81855000Y-78391000D01*
X81855000Y-78391000D02*
X82245000Y-78391000D01*
X82245000Y-71191000D02*
X81855000Y-71191000D01*
X88665000Y-78391000D02*
X89055000Y-78391000D01*
X89055000Y-71191000D02*
X88665000Y-71191000D01*
X89055000Y-71581000D02*
X89055000Y-71191000D01*
X89055000Y-78391000D02*
X89055000Y-78001000D01*
D14*
X79605000Y-71841000D02*
G75*
G02*
X79305000Y-71841000I-150000J0D01*
G01*
X79305000Y-71841000D02*
G75*
G02*
X79605000Y-71841000I150000J0D01*
G01*
D15*
G04 #@! TO.C,R7*
X83408500Y-83796276D02*
X83408500Y-84305724D01*
X84453500Y-83796276D02*
X84453500Y-84305724D01*
G04 #@! TO.C,D1*
X77078000Y-95508000D02*
X77078000Y-96978000D01*
X77078000Y-96978000D02*
X79538000Y-96978000D01*
X79538000Y-95508000D02*
X77078000Y-95508000D01*
G04 #@! TO.C,D10*
X91040000Y-89312000D02*
X91040000Y-92172000D01*
X92960000Y-89312000D02*
X91040000Y-89312000D01*
X92960000Y-92172000D02*
X92960000Y-89312000D01*
G04 #@! TO.C,R23*
X70245276Y-51477500D02*
X70754724Y-51477500D01*
X70245276Y-52522500D02*
X70754724Y-52522500D01*
G04 #@! TO.C,C19*
X71990000Y-69283767D02*
X71990000Y-68991233D01*
X73010000Y-69283767D02*
X73010000Y-68991233D01*
D10*
G04 #@! TO.C,L1*
X84000000Y-55500000D02*
G75*
G02*
X78000000Y-55500000I-3000000J0D01*
G01*
X78000000Y-55500000D02*
G75*
G02*
X84000000Y-55500000I3000000J0D01*
G01*
D15*
G04 #@! TO.C,D0*
X70841000Y-95508000D02*
X70841000Y-96978000D01*
X70841000Y-96978000D02*
X73301000Y-96978000D01*
X73301000Y-95508000D02*
X70841000Y-95508000D01*
G04 #@! TO.C,R3*
X77820500Y-83796276D02*
X77820500Y-84305724D01*
X78865500Y-83796276D02*
X78865500Y-84305724D01*
G04 #@! TO.C,R22*
X71977500Y-61754724D02*
X71977500Y-61245276D01*
X73022500Y-61754724D02*
X73022500Y-61245276D01*
D14*
G04 #@! TO.C,TLP172AM2*
X82589000Y-92657000D02*
X82589000Y-88657000D01*
D10*
X85739000Y-86457000D02*
X85739000Y-86457000D01*
X85839000Y-86457000D02*
X85839000Y-86457000D01*
D14*
X86289000Y-92657000D02*
X86289000Y-88657000D01*
D10*
X85739000Y-86457000D02*
G75*
G02*
X85839000Y-86457000I50000J0D01*
G01*
X85839000Y-86457000D02*
G75*
G02*
X85739000Y-86457000I-50000J0D01*
G01*
G04 #@! TD*
M02*
