G04 #@! TF.GenerationSoftware,KiCad,Pcbnew,8.0.8*
G04 #@! TF.CreationDate,2025-02-07T18:14:43+09:00*
G04 #@! TF.ProjectId,solenoid valve2020,736f6c65-6e6f-4696-9420-76616c766532,rev?*
G04 #@! TF.SameCoordinates,Original*
G04 #@! TF.FileFunction,Copper,L2,Bot*
G04 #@! TF.FilePolarity,Positive*
%FSLAX46Y46*%
G04 Gerber Fmt 4.6, Leading zero omitted, Abs format (unit mm)*
G04 Created by KiCad (PCBNEW 8.0.8) date 2025-02-07 18:14:43*
%MOMM*%
%LPD*%
G01*
G04 APERTURE LIST*
G04 #@! TA.AperFunction,ComponentPad*
%ADD10R,1.700000X1.700000*%
G04 #@! TD*
G04 #@! TA.AperFunction,ComponentPad*
%ADD11O,1.700000X1.700000*%
G04 #@! TD*
G04 #@! TA.AperFunction,ComponentPad*
%ADD12R,1.400000X1.400000*%
G04 #@! TD*
G04 #@! TA.AperFunction,ComponentPad*
%ADD13C,1.400000*%
G04 #@! TD*
G04 #@! TA.AperFunction,ComponentPad*
%ADD14R,1.600000X1.600000*%
G04 #@! TD*
G04 #@! TA.AperFunction,ComponentPad*
%ADD15C,1.600000*%
G04 #@! TD*
G04 #@! TA.AperFunction,ComponentPad*
%ADD16C,1.397000*%
G04 #@! TD*
G04 #@! TA.AperFunction,ComponentPad*
%ADD17C,2.133600*%
G04 #@! TD*
G04 #@! TA.AperFunction,ViaPad*
%ADD18C,0.800000*%
G04 #@! TD*
G04 #@! TA.AperFunction,Conductor*
%ADD19C,0.500000*%
G04 #@! TD*
G04 #@! TA.AperFunction,Conductor*
%ADD20C,0.250000*%
G04 #@! TD*
G04 APERTURE END LIST*
D10*
G04 #@! TO.P,JP1,1,1*
G04 #@! TO.N,/mcu/UART_RX*
X89519000Y-60380000D03*
D11*
G04 #@! TO.P,JP1,2,2*
G04 #@! TO.N,GNDIO*
X92059000Y-60380000D03*
G04 #@! TO.P,JP1,3,3*
G04 #@! TO.N,/mcu/UART_TX*
X89519000Y-62920000D03*
G04 #@! TO.P,JP1,4,4*
G04 #@! TO.N,/mcu/SWCLK*
X92059000Y-62920000D03*
G04 #@! TO.P,JP1,5,5*
G04 #@! TO.N,5V*
X89519000Y-65460000D03*
G04 #@! TO.P,JP1,6,6*
G04 #@! TO.N,/mcu/SWDIO*
X92059000Y-65460000D03*
G04 #@! TO.P,JP1,7,7*
G04 #@! TO.N,GNDIO*
X89519000Y-68000000D03*
G04 #@! TO.P,JP1,8,8*
G04 #@! TO.N,3v3*
X92059000Y-68000000D03*
G04 #@! TD*
D12*
G04 #@! TO.P,X0,1,1*
G04 #@! TO.N,Net-(D0-PadC)*
X64627000Y-101577000D03*
D13*
G04 #@! TO.P,X0,2,2*
G04 #@! TO.N,GND*
X62127000Y-101577000D03*
G04 #@! TD*
D14*
G04 #@! TO.P,C17,1,1*
G04 #@! TO.N,5V*
X81000000Y-64493000D03*
D15*
G04 #@! TO.P,C17,2,2*
G04 #@! TO.N,GNDIO*
X81000000Y-66493000D03*
G04 #@! TD*
D16*
G04 #@! TO.P,CN1,1,1*
G04 #@! TO.N,/can/CANH*
X58111000Y-73428000D03*
G04 #@! TO.P,CN1,2,2*
G04 #@! TO.N,/can/CANL*
X59889000Y-72412000D03*
G04 #@! TO.P,CN1,3,3*
G04 #@! TO.N,GNDIO*
X58111000Y-71396000D03*
G04 #@! TO.P,CN1,4,4*
G04 #@! TO.N,Net-(CN1-Pad4)*
X59889000Y-70380000D03*
G04 #@! TO.P,CN1,5,5*
X58111000Y-69364000D03*
G04 #@! TO.P,CN1,6,6*
G04 #@! TO.N,Net-(CN1-Pad6)*
X59889000Y-68348000D03*
G04 #@! TO.P,CN1,7,7*
G04 #@! TO.N,GNDIO*
X58111000Y-67332000D03*
G04 #@! TO.P,CN1,8,8*
X59889000Y-66316000D03*
G04 #@! TO.P,CN1,GA,A-G*
G04 #@! TO.N,+24V*
X64715000Y-74444000D03*
G04 #@! TO.P,CN1,GC,C-G*
G04 #@! TO.N,Net-(CN1-C-G)*
X64715000Y-76730000D03*
D17*
G04 #@! TO.P,CN1,M1,SHIELD*
G04 #@! TO.N,GNDIO*
X59000000Y-61744000D03*
G04 #@! TO.P,CN1,M2,SHIELD*
X59000000Y-78000000D03*
D16*
G04 #@! TO.P,CN1,YA,A-Y*
G04 #@! TO.N,LED_CAN*
X64715000Y-63014000D03*
G04 #@! TO.P,CN1,YC,C-Y*
G04 #@! TO.N,Net-(CN1-C-Y)*
X64715000Y-65300000D03*
G04 #@! TD*
D14*
G04 #@! TO.P,C14,1,1*
G04 #@! TO.N,+24V*
X63455113Y-56500000D03*
D15*
G04 #@! TO.P,C14,2,2*
G04 #@! TO.N,GNDIO*
X61455113Y-56500000D03*
G04 #@! TD*
D12*
G04 #@! TO.P,X2,1,1*
G04 #@! TO.N,Net-(D2-PadC)*
X83891000Y-101577000D03*
D13*
G04 #@! TO.P,X2,2,2*
G04 #@! TO.N,GND*
X81391000Y-101577000D03*
G04 #@! TD*
D12*
G04 #@! TO.P,X1,1,1*
G04 #@! TO.N,Net-(D1-PadC)*
X74279000Y-101577000D03*
D13*
G04 #@! TO.P,X1,2,2*
G04 #@! TO.N,GND*
X71779000Y-101577000D03*
G04 #@! TD*
D12*
G04 #@! TO.P,X3,1,1*
G04 #@! TO.N,VCC*
X60500000Y-93663000D03*
D13*
G04 #@! TO.P,X3,2,2*
G04 #@! TO.N,GND*
X60500000Y-91163000D03*
G04 #@! TD*
D18*
G04 #@! TO.N,GNDIO*
X65000000Y-52000000D03*
X93500000Y-75500000D03*
X77778287Y-70752981D03*
X52500000Y-60000000D03*
X93000000Y-80500000D03*
X79500000Y-78000000D03*
X88000000Y-84500000D03*
X95000000Y-87500000D03*
X52500000Y-79000000D03*
X82500000Y-84500000D03*
X52500000Y-52000000D03*
X70500000Y-71500000D03*
X92500000Y-85500000D03*
X68500000Y-63000000D03*
X72500000Y-64000000D03*
X55500000Y-85500000D03*
X62000000Y-87000000D03*
X83000000Y-81000000D03*
X78000000Y-63500000D03*
X70500000Y-82500000D03*
X88000000Y-57000000D03*
X87500000Y-88000000D03*
X74500000Y-53000000D03*
X81500000Y-51500000D03*
X66500000Y-87000000D03*
X94000000Y-52500000D03*
X92000000Y-94500000D03*
X81000000Y-54500000D03*
X83500000Y-63000000D03*
X94000000Y-57000000D03*
X89500000Y-94500000D03*
X69000000Y-75000000D03*
X83500000Y-51500000D03*
X52500000Y-74500000D03*
X85500000Y-84500000D03*
X94500000Y-64000000D03*
X67500000Y-70500000D03*
X73500000Y-82000000D03*
X63000000Y-78000000D03*
X52500000Y-70000000D03*
X75000000Y-73500000D03*
X80000000Y-84500000D03*
X88000000Y-52500000D03*
X67000000Y-68000000D03*
X67500000Y-60500000D03*
X72500000Y-72500000D03*
X52500000Y-65000000D03*
X94500000Y-94500000D03*
X55500000Y-81500000D03*
X90500000Y-70000000D03*
X62000000Y-71000000D03*
X59000000Y-52000000D03*
X73000000Y-89000000D03*
X79000000Y-89000000D03*
X76500000Y-76500000D03*
X90000000Y-85000000D03*
G04 #@! TO.N,Net-(U6-TC)*
X76000000Y-58000000D03*
X75500000Y-55500000D03*
G04 #@! TO.N,3v3*
X86500000Y-60500000D03*
G04 #@! TO.N,SOLV0*
X86217000Y-80532000D03*
X76819000Y-83289000D03*
G04 #@! TO.N,SOLV1*
X87233000Y-80495000D03*
X82407000Y-83035000D03*
G04 #@! TO.N,SOLV2*
X90027000Y-78209000D03*
X87736347Y-83039653D03*
G04 #@! TO.N,~{EMS}*
X76500000Y-72000000D03*
X70000000Y-67500000D03*
G04 #@! TO.N,Net-(U6-FB)*
X71500000Y-59500000D03*
X70000000Y-55000000D03*
G04 #@! TO.N,LED_CAN*
X79000000Y-73000000D03*
G04 #@! TO.N,GND*
X68000000Y-110000000D03*
X56500000Y-109500000D03*
X81500000Y-93000000D03*
X66500000Y-91500000D03*
X68000000Y-106500000D03*
X70000000Y-93000000D03*
X85500000Y-102500000D03*
X75500000Y-97500000D03*
X77500000Y-106500000D03*
X85000000Y-91000000D03*
X68500000Y-95500000D03*
X81500000Y-97500000D03*
X55000000Y-98000000D03*
X66500000Y-97500000D03*
X51500000Y-90500000D03*
X77500000Y-110000000D03*
X86000000Y-92000000D03*
X62500000Y-97500000D03*
X68000000Y-103000000D03*
X77500000Y-103000000D03*
X85500000Y-110000000D03*
X57000000Y-100000000D03*
X85500000Y-106500000D03*
X64000000Y-91500000D03*
X54500000Y-107000000D03*
X53000000Y-96000000D03*
X53000000Y-100000000D03*
X52500000Y-109500000D03*
X75500000Y-93000000D03*
X57000000Y-96000000D03*
G04 #@! TD*
D19*
G04 #@! TO.N,Net-(U6-TC)*
X76000000Y-58000000D02*
X76000000Y-56000000D01*
X76000000Y-56000000D02*
X75500000Y-55500000D01*
G04 #@! TO.N,5V*
X89519000Y-65460000D02*
X81967000Y-65460000D01*
X81967000Y-65460000D02*
X81000000Y-64493000D01*
D20*
G04 #@! TO.N,3v3*
X90884000Y-64973299D02*
X90005701Y-64095000D01*
X88595000Y-64095000D02*
X86500000Y-62000000D01*
X92059000Y-68000000D02*
X90884000Y-66825000D01*
X90005701Y-64095000D02*
X88595000Y-64095000D01*
X86500000Y-62000000D02*
X86500000Y-60500000D01*
X90884000Y-66825000D02*
X90884000Y-64973299D01*
G04 #@! TO.N,SOLV0*
X84730000Y-82019000D02*
X78089000Y-82019000D01*
X86217000Y-80532000D02*
X84730000Y-82019000D01*
X78089000Y-82019000D02*
X76819000Y-83289000D01*
G04 #@! TO.N,SOLV1*
X87233000Y-80495000D02*
X87233000Y-80749000D01*
X84947000Y-83035000D02*
X82407000Y-83035000D01*
X87233000Y-80749000D02*
X84947000Y-83035000D01*
X87233000Y-80495000D02*
X87279305Y-80541305D01*
G04 #@! TO.N,SOLV2*
X87736347Y-83039653D02*
X90027000Y-80749000D01*
X90027000Y-80749000D02*
X90027000Y-78209000D01*
G04 #@! TO.N,~{EMS}*
X76500000Y-72000000D02*
X74500000Y-72000000D01*
X74500000Y-72000000D02*
X70000000Y-67500000D01*
D19*
G04 #@! TO.N,Net-(U6-FB)*
X71500000Y-59500000D02*
X71500000Y-56500000D01*
X71500000Y-56500000D02*
X70000000Y-55000000D01*
D20*
G04 #@! TO.N,LED_CAN*
X64715000Y-63014000D02*
X65426000Y-63725000D01*
X69725000Y-63725000D02*
X79000000Y-73000000D01*
X65426000Y-63725000D02*
X69725000Y-63725000D01*
G04 #@! TD*
G04 #@! TA.AperFunction,Conductor*
G04 #@! TO.N,GNDIO*
G36*
X95443039Y-50519685D02*
G01*
X95488794Y-50572489D01*
X95500000Y-50624000D01*
X95500000Y-95876000D01*
X95480315Y-95943039D01*
X95427511Y-95988794D01*
X95376000Y-96000000D01*
X88124000Y-96000000D01*
X88056961Y-95980315D01*
X88011206Y-95927511D01*
X88000000Y-95876000D01*
X88000000Y-89500000D01*
X67551362Y-89500000D01*
X67484323Y-89480315D01*
X67463681Y-89463681D01*
X66500000Y-88500000D01*
X50624000Y-88500000D01*
X50556961Y-88480315D01*
X50511206Y-88427511D01*
X50500000Y-88376000D01*
X50500000Y-83288998D01*
X76213318Y-83288998D01*
X76213318Y-83289001D01*
X76233955Y-83445760D01*
X76233956Y-83445762D01*
X76294464Y-83591841D01*
X76390718Y-83717282D01*
X76516159Y-83813536D01*
X76662238Y-83874044D01*
X76740619Y-83884363D01*
X76818999Y-83894682D01*
X76819000Y-83894682D01*
X76819001Y-83894682D01*
X76871254Y-83887802D01*
X76975762Y-83874044D01*
X77121841Y-83813536D01*
X77247282Y-83717282D01*
X77343536Y-83591841D01*
X77404044Y-83445762D01*
X77424682Y-83289000D01*
X77415753Y-83221181D01*
X77426518Y-83152146D01*
X77451008Y-83117317D01*
X78187508Y-82380819D01*
X78248831Y-82347334D01*
X78275189Y-82344500D01*
X81955155Y-82344500D01*
X82022194Y-82364185D01*
X82067949Y-82416989D01*
X82077893Y-82486147D01*
X82048868Y-82549703D01*
X82030645Y-82566872D01*
X81978718Y-82606718D01*
X81882463Y-82732160D01*
X81821956Y-82878237D01*
X81821955Y-82878239D01*
X81801318Y-83034998D01*
X81801318Y-83035001D01*
X81821955Y-83191760D01*
X81821956Y-83191762D01*
X81862232Y-83288998D01*
X81882464Y-83337841D01*
X81978718Y-83463282D01*
X82104159Y-83559536D01*
X82250238Y-83620044D01*
X82328619Y-83630363D01*
X82406999Y-83640682D01*
X82407000Y-83640682D01*
X82407001Y-83640682D01*
X82459254Y-83633802D01*
X82563762Y-83620044D01*
X82709841Y-83559536D01*
X82835282Y-83463282D01*
X82876923Y-83409013D01*
X82933351Y-83367811D01*
X82975299Y-83360500D01*
X84989851Y-83360500D01*
X84989853Y-83360500D01*
X85072639Y-83338318D01*
X85146862Y-83295465D01*
X85402676Y-83039651D01*
X87130665Y-83039651D01*
X87130665Y-83039654D01*
X87151302Y-83196413D01*
X87151303Y-83196415D01*
X87209883Y-83337841D01*
X87211811Y-83342494D01*
X87308065Y-83467935D01*
X87433506Y-83564189D01*
X87579585Y-83624697D01*
X87657966Y-83635016D01*
X87736346Y-83645335D01*
X87736347Y-83645335D01*
X87736348Y-83645335D01*
X87788601Y-83638455D01*
X87893109Y-83624697D01*
X88039188Y-83564189D01*
X88164629Y-83467935D01*
X88260883Y-83342494D01*
X88321391Y-83196415D01*
X88342029Y-83039653D01*
X88341416Y-83035000D01*
X88333100Y-82971833D01*
X88343865Y-82902798D01*
X88368355Y-82867969D01*
X90216652Y-81019673D01*
X90216657Y-81019669D01*
X90226860Y-81009465D01*
X90226862Y-81009465D01*
X90287465Y-80948862D01*
X90330318Y-80874638D01*
X90332417Y-80866805D01*
X90352501Y-80791852D01*
X90352501Y-80706147D01*
X90352501Y-80698552D01*
X90352500Y-80698534D01*
X90352500Y-78777298D01*
X90372185Y-78710259D01*
X90401010Y-78678925D01*
X90455282Y-78637282D01*
X90551536Y-78511841D01*
X90612044Y-78365762D01*
X90632682Y-78209000D01*
X90612044Y-78052238D01*
X90551536Y-77906159D01*
X90455282Y-77780718D01*
X90329841Y-77684464D01*
X90183762Y-77623956D01*
X90183760Y-77623955D01*
X90027001Y-77603318D01*
X90026999Y-77603318D01*
X89870239Y-77623955D01*
X89870237Y-77623956D01*
X89724160Y-77684463D01*
X89598718Y-77780718D01*
X89502463Y-77906160D01*
X89441956Y-78052237D01*
X89441955Y-78052239D01*
X89421318Y-78208998D01*
X89421318Y-78209001D01*
X89441955Y-78365760D01*
X89441956Y-78365762D01*
X89502464Y-78511841D01*
X89598718Y-78637282D01*
X89652987Y-78678924D01*
X89694189Y-78735349D01*
X89701500Y-78777298D01*
X89701500Y-80562811D01*
X89681815Y-80629850D01*
X89665181Y-80650492D01*
X87908031Y-82407641D01*
X87846708Y-82441126D01*
X87804165Y-82442899D01*
X87736348Y-82433971D01*
X87736346Y-82433971D01*
X87579586Y-82454608D01*
X87579584Y-82454609D01*
X87433507Y-82515116D01*
X87308065Y-82611371D01*
X87211810Y-82736813D01*
X87151303Y-82882890D01*
X87151302Y-82882892D01*
X87130665Y-83039651D01*
X85402676Y-83039651D01*
X87328731Y-81113594D01*
X87384322Y-81081501D01*
X87389754Y-81080044D01*
X87389762Y-81080044D01*
X87535841Y-81019536D01*
X87661282Y-80923282D01*
X87757536Y-80797841D01*
X87818044Y-80651762D01*
X87838682Y-80495000D01*
X87818044Y-80338238D01*
X87757536Y-80192159D01*
X87661282Y-80066718D01*
X87535841Y-79970464D01*
X87479085Y-79946955D01*
X87389762Y-79909956D01*
X87389760Y-79909955D01*
X87233001Y-79889318D01*
X87232999Y-79889318D01*
X87076239Y-79909955D01*
X87076237Y-79909956D01*
X86930160Y-79970463D01*
X86804713Y-80066722D01*
X86803245Y-80068636D01*
X86801593Y-80069841D01*
X86798967Y-80072468D01*
X86798557Y-80072058D01*
X86746816Y-80109836D01*
X86677069Y-80113988D01*
X86629387Y-80091521D01*
X86519842Y-80007464D01*
X86373762Y-79946956D01*
X86373760Y-79946955D01*
X86217001Y-79926318D01*
X86216999Y-79926318D01*
X86060239Y-79946955D01*
X86060237Y-79946956D01*
X85914160Y-80007463D01*
X85788718Y-80103718D01*
X85692463Y-80229160D01*
X85631956Y-80375237D01*
X85631955Y-80375239D01*
X85611318Y-80531998D01*
X85611318Y-80532001D01*
X85620246Y-80599818D01*
X85609480Y-80668853D01*
X85584988Y-80703684D01*
X84631492Y-81657181D01*
X84570169Y-81690666D01*
X84543811Y-81693500D01*
X78046147Y-81693500D01*
X77963359Y-81715682D01*
X77889138Y-81758535D01*
X77889135Y-81758537D01*
X76990683Y-82656988D01*
X76929360Y-82690473D01*
X76886817Y-82692246D01*
X76819001Y-82683318D01*
X76818999Y-82683318D01*
X76662239Y-82703955D01*
X76662237Y-82703956D01*
X76516160Y-82764463D01*
X76390718Y-82860718D01*
X76294463Y-82986160D01*
X76233956Y-83132237D01*
X76233955Y-83132239D01*
X76213318Y-83288998D01*
X50500000Y-83288998D01*
X50500000Y-76099026D01*
X53694900Y-76099026D01*
X53694900Y-76344973D01*
X53727000Y-76588791D01*
X53790654Y-76826350D01*
X53884765Y-77053554D01*
X53884767Y-77053558D01*
X54007733Y-77266541D01*
X54007736Y-77266546D01*
X54007738Y-77266548D01*
X54157445Y-77461651D01*
X54157451Y-77461658D01*
X54331341Y-77635548D01*
X54331348Y-77635554D01*
X54526451Y-77785261D01*
X54526459Y-77785267D01*
X54739442Y-77908233D01*
X54966654Y-78002347D01*
X55204206Y-78065999D01*
X55448034Y-78098100D01*
X55448041Y-78098100D01*
X55693959Y-78098100D01*
X55693966Y-78098100D01*
X55937794Y-78065999D01*
X56175346Y-78002347D01*
X56181012Y-78000000D01*
X57428355Y-78000000D01*
X57447705Y-78245862D01*
X57505276Y-78485664D01*
X57599653Y-78713512D01*
X57726287Y-78920159D01*
X58274356Y-78372089D01*
X58279706Y-78385005D01*
X58368657Y-78518130D01*
X58481870Y-78631343D01*
X58614995Y-78720294D01*
X58627908Y-78725643D01*
X58079839Y-79273711D01*
X58286487Y-79400346D01*
X58514335Y-79494723D01*
X58754137Y-79552294D01*
X59000000Y-79571644D01*
X59245862Y-79552294D01*
X59485664Y-79494723D01*
X59713512Y-79400346D01*
X59920159Y-79273711D01*
X59372090Y-78725643D01*
X59385005Y-78720294D01*
X59518130Y-78631343D01*
X59631343Y-78518130D01*
X59720294Y-78385005D01*
X59725643Y-78372090D01*
X60273711Y-78920159D01*
X60400346Y-78713512D01*
X60494723Y-78485664D01*
X60552294Y-78245862D01*
X60571644Y-78000000D01*
X60552294Y-77754137D01*
X60494723Y-77514335D01*
X60400346Y-77286487D01*
X60273711Y-77079839D01*
X59725642Y-77627908D01*
X59720294Y-77614995D01*
X59631343Y-77481870D01*
X59518130Y-77368657D01*
X59385005Y-77279706D01*
X59372089Y-77274356D01*
X59916446Y-76730000D01*
X63811048Y-76730000D01*
X63830802Y-76917943D01*
X63830803Y-76917946D01*
X63889199Y-77097671D01*
X63889200Y-77097673D01*
X63983684Y-77261326D01*
X63983685Y-77261328D01*
X63983687Y-77261330D01*
X64110138Y-77401767D01*
X64110141Y-77401769D01*
X64263019Y-77512842D01*
X64263020Y-77512842D01*
X64263024Y-77512845D01*
X64403817Y-77575530D01*
X64435658Y-77589707D01*
X64435663Y-77589709D01*
X64620511Y-77629000D01*
X64809489Y-77629000D01*
X64994337Y-77589709D01*
X65166976Y-77512845D01*
X65319862Y-77401767D01*
X65446313Y-77261330D01*
X65540801Y-77097670D01*
X65599198Y-76917942D01*
X65618952Y-76730000D01*
X65599198Y-76542058D01*
X65540801Y-76362330D01*
X65446313Y-76198670D01*
X65319862Y-76058233D01*
X65319858Y-76058230D01*
X65166980Y-75947157D01*
X65166977Y-75947155D01*
X65166976Y-75947155D01*
X65104289Y-75919245D01*
X64994341Y-75870292D01*
X64994336Y-75870290D01*
X64809489Y-75831000D01*
X64620511Y-75831000D01*
X64435663Y-75870290D01*
X64435658Y-75870292D01*
X64263024Y-75947155D01*
X64263019Y-75947157D01*
X64110141Y-76058230D01*
X63983684Y-76198673D01*
X63889200Y-76362326D01*
X63889199Y-76362328D01*
X63830803Y-76542053D01*
X63830802Y-76542056D01*
X63811048Y-76730000D01*
X59916446Y-76730000D01*
X59920159Y-76726287D01*
X59713512Y-76599653D01*
X59485664Y-76505276D01*
X59245862Y-76447705D01*
X59000000Y-76428355D01*
X58754137Y-76447705D01*
X58514335Y-76505276D01*
X58286495Y-76599650D01*
X58286490Y-76599653D01*
X58079839Y-76726287D01*
X58627909Y-77274356D01*
X58614995Y-77279706D01*
X58481870Y-77368657D01*
X58368657Y-77481870D01*
X58279706Y-77614995D01*
X58274356Y-77627909D01*
X57726287Y-77079839D01*
X57599653Y-77286490D01*
X57599650Y-77286495D01*
X57505276Y-77514335D01*
X57447705Y-77754137D01*
X57428355Y-78000000D01*
X56181012Y-78000000D01*
X56402558Y-77908233D01*
X56615541Y-77785267D01*
X56810653Y-77635553D01*
X56984553Y-77461653D01*
X57134267Y-77266541D01*
X57257233Y-77053558D01*
X57351347Y-76826346D01*
X57414999Y-76588794D01*
X57447100Y-76344966D01*
X57447100Y-76099034D01*
X57414999Y-75855206D01*
X57351347Y-75617654D01*
X57257233Y-75390442D01*
X57134267Y-75177459D01*
X56984553Y-74982347D01*
X56984548Y-74982341D01*
X56810658Y-74808451D01*
X56810651Y-74808445D01*
X56615548Y-74658738D01*
X56615546Y-74658736D01*
X56615541Y-74658733D01*
X56402558Y-74535767D01*
X56402554Y-74535765D01*
X56181014Y-74444000D01*
X63811048Y-74444000D01*
X63830802Y-74631943D01*
X63830803Y-74631946D01*
X63889199Y-74811671D01*
X63889200Y-74811673D01*
X63983684Y-74975326D01*
X63983685Y-74975328D01*
X63983687Y-74975330D01*
X64110138Y-75115767D01*
X64110141Y-75115769D01*
X64263019Y-75226842D01*
X64263020Y-75226842D01*
X64263024Y-75226845D01*
X64403817Y-75289530D01*
X64435658Y-75303707D01*
X64435663Y-75303709D01*
X64620511Y-75343000D01*
X64809489Y-75343000D01*
X64994337Y-75303709D01*
X65166976Y-75226845D01*
X65319862Y-75115767D01*
X65446313Y-74975330D01*
X65540801Y-74811670D01*
X65599198Y-74631942D01*
X65618952Y-74444000D01*
X65599198Y-74256058D01*
X65540801Y-74076330D01*
X65496732Y-74000000D01*
X65446315Y-73912673D01*
X65446314Y-73912672D01*
X65446313Y-73912670D01*
X65319862Y-73772233D01*
X65319858Y-73772230D01*
X65166980Y-73661157D01*
X65166977Y-73661155D01*
X65166976Y-73661155D01*
X65104289Y-73633245D01*
X64994341Y-73584292D01*
X64994336Y-73584290D01*
X64809489Y-73545000D01*
X64620511Y-73545000D01*
X64435663Y-73584290D01*
X64435658Y-73584292D01*
X64263024Y-73661155D01*
X64263019Y-73661157D01*
X64110141Y-73772230D01*
X64110138Y-73772232D01*
X64110138Y-73772233D01*
X64046912Y-73842451D01*
X63983684Y-73912673D01*
X63889200Y-74076326D01*
X63889199Y-74076328D01*
X63830803Y-74256053D01*
X63830802Y-74256056D01*
X63811048Y-74444000D01*
X56181014Y-74444000D01*
X56175350Y-74441654D01*
X55937791Y-74378000D01*
X55693973Y-74345900D01*
X55693966Y-74345900D01*
X55448034Y-74345900D01*
X55448026Y-74345900D01*
X55204208Y-74378000D01*
X54966649Y-74441654D01*
X54739445Y-74535765D01*
X54739441Y-74535767D01*
X54611152Y-74609835D01*
X54526459Y-74658733D01*
X54526456Y-74658734D01*
X54526451Y-74658738D01*
X54331348Y-74808445D01*
X54331341Y-74808451D01*
X54157451Y-74982341D01*
X54157445Y-74982348D01*
X54007738Y-75177451D01*
X53884767Y-75390441D01*
X53884765Y-75390445D01*
X53790654Y-75617649D01*
X53727000Y-75855208D01*
X53694900Y-76099026D01*
X50500000Y-76099026D01*
X50500000Y-67331999D01*
X56907366Y-67331999D01*
X56907366Y-67332000D01*
X56927859Y-67553166D01*
X56927860Y-67553168D01*
X56988643Y-67766798D01*
X56988649Y-67766813D01*
X57087646Y-67965626D01*
X57087651Y-67965634D01*
X57103209Y-67986235D01*
X57673352Y-67416093D01*
X57696792Y-67503571D01*
X57755311Y-67604930D01*
X57838070Y-67687689D01*
X57939429Y-67746208D01*
X58026904Y-67769647D01*
X57458761Y-68337790D01*
X57458762Y-68337791D01*
X57574490Y-68409447D01*
X57579631Y-68412007D01*
X57578731Y-68413813D01*
X57626991Y-68450896D01*
X57650582Y-68516662D01*
X57634872Y-68584743D01*
X57599682Y-68624269D01*
X57506139Y-68692232D01*
X57379684Y-68832673D01*
X57285200Y-68996326D01*
X57285199Y-68996328D01*
X57226803Y-69176053D01*
X57226802Y-69176056D01*
X57207048Y-69364000D01*
X57226802Y-69551943D01*
X57226803Y-69551946D01*
X57285199Y-69731671D01*
X57285200Y-69731673D01*
X57379684Y-69895326D01*
X57379685Y-69895328D01*
X57379687Y-69895330D01*
X57506138Y-70035767D01*
X57506141Y-70035769D01*
X57599681Y-70103730D01*
X57642347Y-70159060D01*
X57648326Y-70228673D01*
X57615720Y-70290468D01*
X57579018Y-70314771D01*
X57579628Y-70315995D01*
X57574496Y-70318550D01*
X57458761Y-70390208D01*
X58026905Y-70958352D01*
X57939429Y-70981792D01*
X57838070Y-71040311D01*
X57755311Y-71123070D01*
X57696792Y-71224429D01*
X57673352Y-71311905D01*
X57103210Y-70741762D01*
X57087651Y-70762367D01*
X57087646Y-70762374D01*
X56988649Y-70961186D01*
X56988643Y-70961201D01*
X56927860Y-71174831D01*
X56927859Y-71174833D01*
X56907366Y-71395999D01*
X56907366Y-71396000D01*
X56927859Y-71617166D01*
X56927860Y-71617168D01*
X56988643Y-71830798D01*
X56988649Y-71830813D01*
X57087646Y-72029626D01*
X57087651Y-72029634D01*
X57103209Y-72050235D01*
X57673352Y-71480093D01*
X57696792Y-71567571D01*
X57755311Y-71668930D01*
X57838070Y-71751689D01*
X57939429Y-71810208D01*
X58026904Y-71833647D01*
X57458761Y-72401790D01*
X57458762Y-72401791D01*
X57574490Y-72473447D01*
X57579631Y-72476007D01*
X57578731Y-72477813D01*
X57626991Y-72514896D01*
X57650582Y-72580662D01*
X57634872Y-72648743D01*
X57599682Y-72688269D01*
X57506139Y-72756232D01*
X57379684Y-72896673D01*
X57285200Y-73060326D01*
X57285199Y-73060328D01*
X57226803Y-73240053D01*
X57226802Y-73240056D01*
X57207048Y-73428000D01*
X57226802Y-73615943D01*
X57226803Y-73615946D01*
X57285199Y-73795671D01*
X57285200Y-73795673D01*
X57379684Y-73959326D01*
X57379685Y-73959328D01*
X57379687Y-73959330D01*
X57506138Y-74099767D01*
X57506141Y-74099769D01*
X57659019Y-74210842D01*
X57659020Y-74210842D01*
X57659024Y-74210845D01*
X57760574Y-74256058D01*
X57831658Y-74287707D01*
X57831663Y-74287709D01*
X58016511Y-74327000D01*
X58205489Y-74327000D01*
X58390337Y-74287709D01*
X58562976Y-74210845D01*
X58715862Y-74099767D01*
X58768751Y-74041027D01*
X58828238Y-74004379D01*
X58860901Y-74000000D01*
X60000000Y-74000000D01*
X60000000Y-73407903D01*
X60019685Y-73340864D01*
X60072489Y-73295109D01*
X60098219Y-73286613D01*
X60102780Y-73285643D01*
X60168337Y-73271709D01*
X60340976Y-73194845D01*
X60493862Y-73083767D01*
X60620313Y-72943330D01*
X60714801Y-72779670D01*
X60773198Y-72599942D01*
X60792952Y-72412000D01*
X60773198Y-72224058D01*
X60714801Y-72044330D01*
X60706316Y-72029634D01*
X60620315Y-71880673D01*
X60620314Y-71880672D01*
X60620313Y-71880670D01*
X60493862Y-71740233D01*
X60493858Y-71740230D01*
X60340980Y-71629157D01*
X60340977Y-71629155D01*
X60340976Y-71629155D01*
X60252031Y-71589554D01*
X60168341Y-71552292D01*
X60168336Y-71552290D01*
X60029402Y-71522759D01*
X60003670Y-71517289D01*
X59942189Y-71484098D01*
X59908413Y-71422935D01*
X59913065Y-71353220D01*
X59954670Y-71297088D01*
X60003670Y-71274710D01*
X60168337Y-71239709D01*
X60340976Y-71162845D01*
X60493862Y-71051767D01*
X60620313Y-70911330D01*
X60714801Y-70747670D01*
X60773198Y-70567942D01*
X60792952Y-70380000D01*
X60773198Y-70192058D01*
X60714801Y-70012330D01*
X60620313Y-69848670D01*
X60493862Y-69708233D01*
X60493858Y-69708230D01*
X60340980Y-69597157D01*
X60340977Y-69597155D01*
X60340976Y-69597155D01*
X60278289Y-69569245D01*
X60168341Y-69520292D01*
X60168336Y-69520290D01*
X60029402Y-69490759D01*
X60003670Y-69485289D01*
X59942189Y-69452098D01*
X59908413Y-69390935D01*
X59913065Y-69321220D01*
X59954670Y-69265088D01*
X60003670Y-69242710D01*
X60168337Y-69207709D01*
X60340976Y-69130845D01*
X60493862Y-69019767D01*
X60620313Y-68879330D01*
X60714801Y-68715670D01*
X60773198Y-68535942D01*
X60792952Y-68348000D01*
X60773198Y-68160058D01*
X60714801Y-67980330D01*
X60706316Y-67965634D01*
X60620315Y-67816673D01*
X60620314Y-67816672D01*
X60620313Y-67816670D01*
X60493862Y-67676233D01*
X60493858Y-67676230D01*
X60400318Y-67608269D01*
X60357652Y-67552939D01*
X60351673Y-67483326D01*
X60384279Y-67421531D01*
X60420987Y-67397239D01*
X60420373Y-67396005D01*
X60425506Y-67393448D01*
X60541237Y-67321790D01*
X59973093Y-66753647D01*
X60060571Y-66730208D01*
X60161930Y-66671689D01*
X60244689Y-66588930D01*
X60303208Y-66487571D01*
X60326647Y-66400094D01*
X60896788Y-66970235D01*
X60896789Y-66970235D01*
X60912349Y-66949632D01*
X60912350Y-66949629D01*
X61011350Y-66750813D01*
X61011356Y-66750798D01*
X61072139Y-66537168D01*
X61072140Y-66537166D01*
X61092634Y-66316000D01*
X61092634Y-66315999D01*
X61072140Y-66094833D01*
X61072139Y-66094831D01*
X61011356Y-65881201D01*
X61011350Y-65881186D01*
X60912351Y-65682370D01*
X60912349Y-65682367D01*
X60896788Y-65661762D01*
X60326647Y-66231904D01*
X60303208Y-66144429D01*
X60244689Y-66043070D01*
X60161930Y-65960311D01*
X60060571Y-65901792D01*
X59973094Y-65878352D01*
X60541237Y-65310208D01*
X60541236Y-65310207D01*
X60524751Y-65300000D01*
X63811048Y-65300000D01*
X63830802Y-65487943D01*
X63830803Y-65487946D01*
X63889199Y-65667671D01*
X63889200Y-65667673D01*
X63983684Y-65831326D01*
X63983685Y-65831328D01*
X63983687Y-65831330D01*
X64110138Y-65971767D01*
X64110141Y-65971769D01*
X64263019Y-66082842D01*
X64263020Y-66082842D01*
X64263024Y-66082845D01*
X64376797Y-66133500D01*
X64435658Y-66159707D01*
X64435663Y-66159709D01*
X64620511Y-66199000D01*
X64809489Y-66199000D01*
X64994337Y-66159709D01*
X65166976Y-66082845D01*
X65319862Y-65971767D01*
X65446313Y-65831330D01*
X65540801Y-65667670D01*
X65599198Y-65487942D01*
X65618952Y-65300000D01*
X65599198Y-65112058D01*
X65540801Y-64932330D01*
X65448454Y-64772379D01*
X65446315Y-64768673D01*
X65446314Y-64768672D01*
X65446313Y-64768670D01*
X65319862Y-64628233D01*
X65319858Y-64628230D01*
X65166980Y-64517157D01*
X65166977Y-64517155D01*
X65166976Y-64517155D01*
X65094234Y-64484768D01*
X64994341Y-64440292D01*
X64994336Y-64440290D01*
X64809489Y-64401000D01*
X64620511Y-64401000D01*
X64435663Y-64440290D01*
X64435658Y-64440292D01*
X64263024Y-64517155D01*
X64263019Y-64517157D01*
X64110141Y-64628230D01*
X63983684Y-64768673D01*
X63889200Y-64932326D01*
X63889199Y-64932328D01*
X63830803Y-65112053D01*
X63830802Y-65112056D01*
X63811048Y-65300000D01*
X60524751Y-65300000D01*
X60425509Y-65238552D01*
X60425503Y-65238549D01*
X60218392Y-65158315D01*
X60000055Y-65117500D01*
X59777945Y-65117500D01*
X59559607Y-65158315D01*
X59352495Y-65238550D01*
X59236761Y-65310208D01*
X59804906Y-65878352D01*
X59717429Y-65901792D01*
X59616070Y-65960311D01*
X59533311Y-66043070D01*
X59474792Y-66144429D01*
X59451352Y-66231905D01*
X58881210Y-65661762D01*
X58865651Y-65682367D01*
X58865646Y-65682374D01*
X58766649Y-65881186D01*
X58766643Y-65881201D01*
X58705860Y-66094831D01*
X58705860Y-66094832D01*
X58704701Y-66107339D01*
X58678913Y-66172276D01*
X58622112Y-66212962D01*
X58552331Y-66216480D01*
X58536436Y-66211522D01*
X58440392Y-66174315D01*
X58222055Y-66133500D01*
X57999945Y-66133500D01*
X57781607Y-66174315D01*
X57574495Y-66254550D01*
X57458761Y-66326208D01*
X58026905Y-66894352D01*
X57939429Y-66917792D01*
X57838070Y-66976311D01*
X57755311Y-67059070D01*
X57696792Y-67160429D01*
X57673352Y-67247905D01*
X57103210Y-66677762D01*
X57087651Y-66698367D01*
X57087646Y-66698374D01*
X56988649Y-66897186D01*
X56988643Y-66897201D01*
X56927860Y-67110831D01*
X56927859Y-67110833D01*
X56907366Y-67331999D01*
X50500000Y-67331999D01*
X50500000Y-63399026D01*
X53694900Y-63399026D01*
X53694900Y-63644973D01*
X53727000Y-63888791D01*
X53790654Y-64126350D01*
X53884765Y-64353554D01*
X53884767Y-64353558D01*
X54007733Y-64566541D01*
X54007736Y-64566546D01*
X54007738Y-64566548D01*
X54157445Y-64761651D01*
X54157451Y-64761658D01*
X54331341Y-64935548D01*
X54331348Y-64935554D01*
X54380385Y-64973181D01*
X54526459Y-65085267D01*
X54739442Y-65208233D01*
X54966654Y-65302347D01*
X55204206Y-65365999D01*
X55448034Y-65398100D01*
X55448041Y-65398100D01*
X55693959Y-65398100D01*
X55693966Y-65398100D01*
X55937794Y-65365999D01*
X56175346Y-65302347D01*
X56402558Y-65208233D01*
X56615541Y-65085267D01*
X56810653Y-64935553D01*
X56984553Y-64761653D01*
X57134267Y-64566541D01*
X57257233Y-64353558D01*
X57351347Y-64126346D01*
X57414999Y-63888794D01*
X57447100Y-63644966D01*
X57447100Y-63399034D01*
X57414999Y-63155206D01*
X57351347Y-62917654D01*
X57257233Y-62690442D01*
X57134267Y-62477459D01*
X57113504Y-62450400D01*
X56984554Y-62282348D01*
X56984548Y-62282341D01*
X56810658Y-62108451D01*
X56810651Y-62108445D01*
X56615548Y-61958738D01*
X56615546Y-61958736D01*
X56615541Y-61958733D01*
X56402558Y-61835767D01*
X56402554Y-61835765D01*
X56181014Y-61744000D01*
X57428355Y-61744000D01*
X57447705Y-61989862D01*
X57505276Y-62229664D01*
X57599653Y-62457512D01*
X57726287Y-62664159D01*
X58274356Y-62116089D01*
X58279706Y-62129005D01*
X58368657Y-62262130D01*
X58481870Y-62375343D01*
X58614995Y-62464294D01*
X58627908Y-62469643D01*
X58079839Y-63017711D01*
X58286487Y-63144346D01*
X58514335Y-63238723D01*
X58754137Y-63296294D01*
X59000000Y-63315644D01*
X59245862Y-63296294D01*
X59485664Y-63238723D01*
X59713512Y-63144346D01*
X59920159Y-63017711D01*
X59916448Y-63014000D01*
X63811048Y-63014000D01*
X63830802Y-63201943D01*
X63830803Y-63201946D01*
X63889199Y-63381671D01*
X63889200Y-63381673D01*
X63983684Y-63545326D01*
X63983685Y-63545328D01*
X63983687Y-63545330D01*
X64110138Y-63685767D01*
X64110141Y-63685769D01*
X64263019Y-63796842D01*
X64263020Y-63796842D01*
X64263024Y-63796845D01*
X64403817Y-63859530D01*
X64435658Y-63873707D01*
X64435661Y-63873708D01*
X64435663Y-63873709D01*
X64620511Y-63913000D01*
X64809489Y-63913000D01*
X64994337Y-63873709D01*
X64999534Y-63871394D01*
X65068783Y-63862103D01*
X65132063Y-63891725D01*
X65137662Y-63896988D01*
X65161194Y-63920520D01*
X65161204Y-63920531D01*
X65165534Y-63924861D01*
X65165535Y-63924862D01*
X65226138Y-63985465D01*
X65263250Y-64006891D01*
X65263252Y-64006893D01*
X65291428Y-64023160D01*
X65300361Y-64028318D01*
X65383147Y-64050500D01*
X69538811Y-64050500D01*
X69605850Y-64070185D01*
X69626492Y-64086819D01*
X70827992Y-65288319D01*
X70861477Y-65349642D01*
X70856493Y-65419334D01*
X70814621Y-65475267D01*
X70749157Y-65499684D01*
X70740311Y-65500000D01*
X68999999Y-65500000D01*
X69680715Y-66861432D01*
X69693090Y-66930197D01*
X69666322Y-66994736D01*
X69645293Y-67015261D01*
X69571720Y-67071715D01*
X69475463Y-67197160D01*
X69414956Y-67343237D01*
X69414955Y-67343239D01*
X69394318Y-67499998D01*
X69394318Y-67500000D01*
X69414955Y-67656760D01*
X69414956Y-67656762D01*
X69453576Y-67750000D01*
X69475464Y-67802841D01*
X69571718Y-67928282D01*
X69697159Y-68024536D01*
X69843238Y-68085044D01*
X69871548Y-68088771D01*
X69999999Y-68105682D01*
X69999999Y-68105681D01*
X70000000Y-68105682D01*
X70067817Y-68096753D01*
X70136852Y-68107518D01*
X70171684Y-68132011D01*
X74300138Y-72260465D01*
X74374361Y-72303318D01*
X74457147Y-72325500D01*
X74542853Y-72325500D01*
X75931701Y-72325500D01*
X75998740Y-72345185D01*
X76030077Y-72374014D01*
X76061492Y-72414956D01*
X76071718Y-72428282D01*
X76197159Y-72524536D01*
X76343238Y-72585044D01*
X76421619Y-72595363D01*
X76499999Y-72605682D01*
X76500000Y-72605682D01*
X76500001Y-72605682D01*
X76552254Y-72598802D01*
X76656762Y-72585044D01*
X76802841Y-72524536D01*
X76842008Y-72494481D01*
X76907177Y-72469287D01*
X76975622Y-72483325D01*
X76995850Y-72498280D01*
X77000000Y-72500000D01*
X77988312Y-72500000D01*
X78055351Y-72519685D01*
X78075993Y-72536319D01*
X78367988Y-72828314D01*
X78401473Y-72889637D01*
X78403246Y-72932179D01*
X78394318Y-72999997D01*
X78394318Y-73000001D01*
X78414955Y-73156760D01*
X78414956Y-73156762D01*
X78449457Y-73240056D01*
X78475464Y-73302841D01*
X78571718Y-73428282D01*
X78697159Y-73524536D01*
X78843238Y-73585044D01*
X78921619Y-73595363D01*
X78999999Y-73605682D01*
X79000000Y-73605682D01*
X79000001Y-73605682D01*
X79052254Y-73598802D01*
X79156762Y-73585044D01*
X79302841Y-73524536D01*
X79428282Y-73428282D01*
X79524536Y-73302841D01*
X79585044Y-73156762D01*
X79605682Y-73000000D01*
X79585044Y-72843238D01*
X79524536Y-72697159D01*
X79428282Y-72571718D01*
X79302841Y-72475464D01*
X79287928Y-72469287D01*
X79156762Y-72414956D01*
X79156760Y-72414955D01*
X79000001Y-72394318D01*
X78999997Y-72394318D01*
X78932179Y-72403246D01*
X78863144Y-72392480D01*
X78828314Y-72367988D01*
X74394500Y-67934174D01*
X72953323Y-66492997D01*
X79695034Y-66492997D01*
X79695034Y-66493002D01*
X79714858Y-66719599D01*
X79714860Y-66719610D01*
X79773730Y-66939317D01*
X79773735Y-66939331D01*
X79869863Y-67145478D01*
X79920974Y-67218472D01*
X80600000Y-66539446D01*
X80600000Y-66545661D01*
X80627259Y-66647394D01*
X80679920Y-66738606D01*
X80754394Y-66813080D01*
X80845606Y-66865741D01*
X80947339Y-66893000D01*
X80953553Y-66893000D01*
X80274526Y-67572025D01*
X80347513Y-67623132D01*
X80347521Y-67623136D01*
X80553668Y-67719264D01*
X80553682Y-67719269D01*
X80773389Y-67778139D01*
X80773400Y-67778141D01*
X80999998Y-67797966D01*
X81000002Y-67797966D01*
X81226599Y-67778141D01*
X81226610Y-67778139D01*
X81446317Y-67719269D01*
X81446331Y-67719264D01*
X81652478Y-67623136D01*
X81725471Y-67572024D01*
X81046447Y-66893000D01*
X81052661Y-66893000D01*
X81154394Y-66865741D01*
X81245606Y-66813080D01*
X81320080Y-66738606D01*
X81372741Y-66647394D01*
X81400000Y-66545661D01*
X81400000Y-66539446D01*
X82079024Y-67218471D01*
X82130136Y-67145478D01*
X82226264Y-66939331D01*
X82226269Y-66939317D01*
X82285139Y-66719610D01*
X82285141Y-66719599D01*
X82304966Y-66493002D01*
X82304966Y-66492997D01*
X82285141Y-66266400D01*
X82285140Y-66266393D01*
X82231604Y-66066594D01*
X82233267Y-65996744D01*
X82272429Y-65938881D01*
X82336658Y-65911377D01*
X82351379Y-65910500D01*
X87876000Y-65910500D01*
X87943039Y-65930185D01*
X87988794Y-65982989D01*
X88000000Y-66034500D01*
X88000000Y-67500000D01*
X88093752Y-67500000D01*
X88160791Y-67519685D01*
X88206546Y-67572489D01*
X88216490Y-67641647D01*
X88213527Y-67656094D01*
X88188364Y-67749999D01*
X88188364Y-67750000D01*
X89085988Y-67750000D01*
X89053075Y-67807007D01*
X89019000Y-67934174D01*
X89019000Y-68065826D01*
X89053075Y-68192993D01*
X89085988Y-68250000D01*
X88188364Y-68250000D01*
X88245567Y-68463486D01*
X88245570Y-68463492D01*
X88345399Y-68677578D01*
X88480894Y-68871082D01*
X88647917Y-69038105D01*
X88841421Y-69173600D01*
X89055507Y-69273429D01*
X89055516Y-69273433D01*
X89269000Y-69330634D01*
X89269000Y-68433012D01*
X89326007Y-68465925D01*
X89453174Y-68500000D01*
X89584826Y-68500000D01*
X89711993Y-68465925D01*
X89769000Y-68433012D01*
X89769000Y-69330633D01*
X89982483Y-69273433D01*
X89982492Y-69273429D01*
X90196578Y-69173600D01*
X90390082Y-69038105D01*
X90557105Y-68871082D01*
X90692600Y-68677578D01*
X90792429Y-68463492D01*
X90792433Y-68463483D01*
X90825158Y-68341350D01*
X90861522Y-68281690D01*
X90924369Y-68251160D01*
X90993745Y-68259454D01*
X91047623Y-68303939D01*
X91063593Y-68337447D01*
X91083768Y-68403954D01*
X91181315Y-68586450D01*
X91181317Y-68586452D01*
X91312589Y-68746410D01*
X91409209Y-68825702D01*
X91472550Y-68877685D01*
X91655046Y-68975232D01*
X91853066Y-69035300D01*
X91853065Y-69035300D01*
X91871529Y-69037118D01*
X92059000Y-69055583D01*
X92264934Y-69035300D01*
X92462954Y-68975232D01*
X92645450Y-68877685D01*
X92805410Y-68746410D01*
X92936685Y-68586450D01*
X93034232Y-68403954D01*
X93094300Y-68205934D01*
X93114583Y-68000000D01*
X93094300Y-67794066D01*
X93034232Y-67596046D01*
X93014641Y-67559395D01*
X93000000Y-67500942D01*
X93000000Y-65959058D01*
X93014642Y-65900604D01*
X93025021Y-65881186D01*
X93034232Y-65863954D01*
X93094300Y-65665934D01*
X93114583Y-65460000D01*
X93094300Y-65254066D01*
X93034232Y-65056046D01*
X92936685Y-64873550D01*
X92853657Y-64772379D01*
X92805410Y-64713589D01*
X92645452Y-64582317D01*
X92645453Y-64582317D01*
X92645450Y-64582315D01*
X92462954Y-64484768D01*
X92264934Y-64424700D01*
X92264932Y-64424699D01*
X92264934Y-64424699D01*
X92059000Y-64404417D01*
X91853067Y-64424699D01*
X91655043Y-64484769D01*
X91472546Y-64582317D01*
X91312587Y-64713592D01*
X91296623Y-64733045D01*
X91238877Y-64772379D01*
X91169033Y-64774250D01*
X91113089Y-64742061D01*
X90236938Y-63865910D01*
X90203453Y-63804587D01*
X90208437Y-63734895D01*
X90245953Y-63682376D01*
X90265410Y-63666410D01*
X90396685Y-63506450D01*
X90494232Y-63323954D01*
X90554300Y-63125934D01*
X90574583Y-62920000D01*
X90554300Y-62714066D01*
X90494232Y-62516046D01*
X90396685Y-62333550D01*
X90344702Y-62270209D01*
X90265410Y-62173589D01*
X90147677Y-62076969D01*
X90105450Y-62042315D01*
X89922954Y-61944768D01*
X89724934Y-61884700D01*
X89724932Y-61884699D01*
X89724934Y-61884699D01*
X89519000Y-61864417D01*
X89313067Y-61884699D01*
X89137692Y-61937898D01*
X89115050Y-61944767D01*
X89115043Y-61944769D01*
X89047102Y-61981085D01*
X88932550Y-62042315D01*
X88932548Y-62042316D01*
X88932547Y-62042317D01*
X88772589Y-62173589D01*
X88641315Y-62333549D01*
X88641310Y-62333555D01*
X88587380Y-62434453D01*
X88538418Y-62484298D01*
X88478022Y-62500000D01*
X88062000Y-62500000D01*
X87994961Y-62480315D01*
X87962800Y-62450400D01*
X86930577Y-61074102D01*
X86906101Y-61008660D01*
X86920891Y-60940373D01*
X86931398Y-60924221D01*
X87024536Y-60802841D01*
X87085044Y-60656762D01*
X87105682Y-60500000D01*
X87085044Y-60343238D01*
X87024536Y-60197159D01*
X86928282Y-60071718D01*
X86802841Y-59975464D01*
X86656762Y-59914956D01*
X86656760Y-59914955D01*
X86500001Y-59894318D01*
X86499999Y-59894318D01*
X86343239Y-59914955D01*
X86343237Y-59914956D01*
X86197160Y-59975463D01*
X86071718Y-60071718D01*
X85975463Y-60197160D01*
X85914956Y-60343237D01*
X85914955Y-60343239D01*
X85894318Y-60499998D01*
X85894318Y-60500001D01*
X85914955Y-60656760D01*
X85914956Y-60656762D01*
X85975464Y-60802841D01*
X86071718Y-60928282D01*
X86125987Y-60969924D01*
X86167189Y-61026349D01*
X86174500Y-61068298D01*
X86174500Y-62042852D01*
X86196682Y-62125640D01*
X86198625Y-62129005D01*
X86239535Y-62199862D01*
X86239537Y-62199864D01*
X86463681Y-62424008D01*
X86497166Y-62485331D01*
X86500000Y-62511689D01*
X86500000Y-64885500D01*
X86480315Y-64952539D01*
X86427511Y-64998294D01*
X86376000Y-65009500D01*
X82204965Y-65009500D01*
X82137926Y-64989815D01*
X82117284Y-64973181D01*
X82036819Y-64892716D01*
X82003334Y-64831393D01*
X82000500Y-64805035D01*
X82000500Y-63673249D01*
X82000499Y-63673247D01*
X81988868Y-63614770D01*
X81988867Y-63614769D01*
X81944552Y-63548447D01*
X81878230Y-63504132D01*
X81878229Y-63504131D01*
X81819752Y-63492500D01*
X81819748Y-63492500D01*
X80180252Y-63492500D01*
X80180247Y-63492500D01*
X80121770Y-63504131D01*
X80121769Y-63504132D01*
X80055447Y-63548447D01*
X80011132Y-63614769D01*
X80011131Y-63614770D01*
X79999500Y-63673247D01*
X79999500Y-65312752D01*
X80011131Y-65371229D01*
X80011132Y-65371230D01*
X80055447Y-65437552D01*
X80121769Y-65481867D01*
X80121770Y-65481868D01*
X80180247Y-65493499D01*
X80180250Y-65493500D01*
X80180252Y-65493500D01*
X80302691Y-65493500D01*
X80369730Y-65513185D01*
X80390372Y-65529819D01*
X80953554Y-66093000D01*
X80947339Y-66093000D01*
X80845606Y-66120259D01*
X80754394Y-66172920D01*
X80679920Y-66247394D01*
X80627259Y-66338606D01*
X80600000Y-66440339D01*
X80600000Y-66446552D01*
X79920974Y-65767526D01*
X79920973Y-65767526D01*
X79869868Y-65840512D01*
X79869866Y-65840516D01*
X79773734Y-66046673D01*
X79773730Y-66046682D01*
X79714860Y-66266389D01*
X79714858Y-66266400D01*
X79695034Y-66492997D01*
X72953323Y-66492997D01*
X69924862Y-63464535D01*
X69887750Y-63443108D01*
X69850640Y-63421682D01*
X69809246Y-63410591D01*
X69767853Y-63399500D01*
X69767852Y-63399500D01*
X65705679Y-63399500D01*
X65638640Y-63379815D01*
X65592885Y-63327011D01*
X65582941Y-63257853D01*
X65587748Y-63237182D01*
X65590432Y-63228917D01*
X65599198Y-63201942D01*
X65618952Y-63014000D01*
X65599198Y-62826058D01*
X65540801Y-62646330D01*
X65489111Y-62556800D01*
X65446315Y-62482673D01*
X65446314Y-62482672D01*
X65446313Y-62482670D01*
X65319862Y-62342233D01*
X65307911Y-62333550D01*
X65166980Y-62231157D01*
X65166977Y-62231155D01*
X65166976Y-62231155D01*
X65104289Y-62203245D01*
X64994341Y-62154292D01*
X64994336Y-62154290D01*
X64809489Y-62115000D01*
X64620511Y-62115000D01*
X64435663Y-62154290D01*
X64435658Y-62154292D01*
X64263024Y-62231155D01*
X64263019Y-62231157D01*
X64110141Y-62342230D01*
X64110138Y-62342232D01*
X64110138Y-62342233D01*
X64046912Y-62412451D01*
X63983684Y-62482673D01*
X63889200Y-62646326D01*
X63889199Y-62646328D01*
X63830803Y-62826053D01*
X63830802Y-62826056D01*
X63811048Y-63014000D01*
X59916448Y-63014000D01*
X59372090Y-62469643D01*
X59385005Y-62464294D01*
X59518130Y-62375343D01*
X59631343Y-62262130D01*
X59720294Y-62129005D01*
X59725643Y-62116091D01*
X60273711Y-62664159D01*
X60400346Y-62457512D01*
X60494723Y-62229664D01*
X60552294Y-61989862D01*
X60571644Y-61744000D01*
X60552294Y-61498137D01*
X60494723Y-61258335D01*
X60400346Y-61030487D01*
X60273711Y-60823839D01*
X59725642Y-61371908D01*
X59720294Y-61358995D01*
X59631343Y-61225870D01*
X59518130Y-61112657D01*
X59385005Y-61023706D01*
X59372089Y-61018356D01*
X59920159Y-60470287D01*
X59713512Y-60343653D01*
X59485664Y-60249276D01*
X59245862Y-60191705D01*
X59000000Y-60172355D01*
X58754137Y-60191705D01*
X58514335Y-60249276D01*
X58286495Y-60343650D01*
X58286490Y-60343653D01*
X58079839Y-60470287D01*
X58627909Y-61018356D01*
X58614995Y-61023706D01*
X58481870Y-61112657D01*
X58368657Y-61225870D01*
X58279706Y-61358995D01*
X58274356Y-61371909D01*
X57726287Y-60823839D01*
X57599653Y-61030490D01*
X57599650Y-61030495D01*
X57505276Y-61258335D01*
X57447705Y-61498137D01*
X57428355Y-61744000D01*
X56181014Y-61744000D01*
X56175350Y-61741654D01*
X55937791Y-61678000D01*
X55693973Y-61645900D01*
X55693966Y-61645900D01*
X55448034Y-61645900D01*
X55448026Y-61645900D01*
X55204208Y-61678000D01*
X54966649Y-61741654D01*
X54739445Y-61835765D01*
X54739441Y-61835767D01*
X54651923Y-61886296D01*
X54526459Y-61958733D01*
X54526456Y-61958734D01*
X54526451Y-61958738D01*
X54331348Y-62108445D01*
X54331341Y-62108451D01*
X54157451Y-62282341D01*
X54157445Y-62282348D01*
X54007738Y-62477451D01*
X54007734Y-62477456D01*
X54007733Y-62477459D01*
X53985455Y-62516046D01*
X53884767Y-62690441D01*
X53884765Y-62690445D01*
X53790654Y-62917649D01*
X53727000Y-63155208D01*
X53694900Y-63399026D01*
X50500000Y-63399026D01*
X50500000Y-54878711D01*
X53149500Y-54878711D01*
X53149500Y-55121288D01*
X53178719Y-55343239D01*
X53181162Y-55361789D01*
X53183326Y-55369866D01*
X53243947Y-55596104D01*
X53336773Y-55820205D01*
X53336777Y-55820214D01*
X53352538Y-55847512D01*
X53458064Y-56030289D01*
X53458066Y-56030292D01*
X53458067Y-56030293D01*
X53605733Y-56222736D01*
X53605739Y-56222743D01*
X53777256Y-56394260D01*
X53777263Y-56394266D01*
X53890321Y-56481018D01*
X53969711Y-56541936D01*
X54179788Y-56663224D01*
X54403900Y-56756054D01*
X54638211Y-56818838D01*
X54818586Y-56842584D01*
X54878711Y-56850500D01*
X54878712Y-56850500D01*
X55121289Y-56850500D01*
X55169388Y-56844167D01*
X55361789Y-56818838D01*
X55596100Y-56756054D01*
X55820212Y-56663224D01*
X56030289Y-56541936D01*
X56084945Y-56499997D01*
X60150147Y-56499997D01*
X60150147Y-56500002D01*
X60169971Y-56726599D01*
X60169973Y-56726610D01*
X60228843Y-56946317D01*
X60228848Y-56946331D01*
X60324976Y-57152478D01*
X60376087Y-57225472D01*
X61055113Y-56546446D01*
X61055113Y-56552661D01*
X61082372Y-56654394D01*
X61135033Y-56745606D01*
X61209507Y-56820080D01*
X61300719Y-56872741D01*
X61402452Y-56900000D01*
X61408666Y-56900000D01*
X60729639Y-57579025D01*
X60802626Y-57630132D01*
X60802634Y-57630136D01*
X61008781Y-57726264D01*
X61008795Y-57726269D01*
X61228502Y-57785139D01*
X61228513Y-57785141D01*
X61455111Y-57804966D01*
X61455115Y-57804966D01*
X61681712Y-57785141D01*
X61681723Y-57785139D01*
X61901430Y-57726269D01*
X61901444Y-57726264D01*
X62107591Y-57630136D01*
X62180584Y-57579024D01*
X61501560Y-56900000D01*
X61507774Y-56900000D01*
X61609507Y-56872741D01*
X61700719Y-56820080D01*
X61775193Y-56745606D01*
X61827854Y-56654394D01*
X61855113Y-56552661D01*
X61855113Y-56546446D01*
X62418294Y-57109627D01*
X62451779Y-57170950D01*
X62454613Y-57197308D01*
X62454613Y-57319752D01*
X62466244Y-57378229D01*
X62466245Y-57378230D01*
X62510560Y-57444552D01*
X62576882Y-57488867D01*
X62576883Y-57488868D01*
X62635360Y-57500499D01*
X62635363Y-57500500D01*
X62635365Y-57500500D01*
X64274863Y-57500500D01*
X64274864Y-57500499D01*
X64289681Y-57497552D01*
X64333342Y-57488868D01*
X64333342Y-57488867D01*
X64333344Y-57488867D01*
X64399665Y-57444552D01*
X64443980Y-57378231D01*
X64443980Y-57378229D01*
X64443981Y-57378229D01*
X64455612Y-57319752D01*
X64455613Y-57319750D01*
X64455613Y-55680249D01*
X64455612Y-55680247D01*
X64443981Y-55621770D01*
X64443980Y-55621769D01*
X64399665Y-55555447D01*
X64333343Y-55511132D01*
X64333342Y-55511131D01*
X64274865Y-55499500D01*
X64274861Y-55499500D01*
X62635365Y-55499500D01*
X62635360Y-55499500D01*
X62576883Y-55511131D01*
X62576882Y-55511132D01*
X62510560Y-55555447D01*
X62466245Y-55621769D01*
X62466244Y-55621770D01*
X62454613Y-55680247D01*
X62454613Y-55802691D01*
X62434928Y-55869730D01*
X62418294Y-55890372D01*
X61855113Y-56453553D01*
X61855113Y-56447339D01*
X61827854Y-56345606D01*
X61775193Y-56254394D01*
X61700719Y-56179920D01*
X61609507Y-56127259D01*
X61507774Y-56100000D01*
X61501558Y-56100000D01*
X62180585Y-55420974D01*
X62107591Y-55369863D01*
X61901444Y-55273735D01*
X61901430Y-55273730D01*
X61681723Y-55214860D01*
X61681712Y-55214858D01*
X61455115Y-55195034D01*
X61455111Y-55195034D01*
X61228513Y-55214858D01*
X61228502Y-55214860D01*
X61008795Y-55273730D01*
X61008786Y-55273734D01*
X60802629Y-55369866D01*
X60802625Y-55369868D01*
X60729639Y-55420973D01*
X60729639Y-55420974D01*
X61408666Y-56100000D01*
X61402452Y-56100000D01*
X61300719Y-56127259D01*
X61209507Y-56179920D01*
X61135033Y-56254394D01*
X61082372Y-56345606D01*
X61055113Y-56447339D01*
X61055113Y-56453552D01*
X60376087Y-55774526D01*
X60376086Y-55774526D01*
X60324981Y-55847512D01*
X60324979Y-55847516D01*
X60228847Y-56053673D01*
X60228843Y-56053682D01*
X60169973Y-56273389D01*
X60169971Y-56273400D01*
X60150147Y-56499997D01*
X56084945Y-56499997D01*
X56222738Y-56394265D01*
X56394265Y-56222738D01*
X56541936Y-56030289D01*
X56663224Y-55820212D01*
X56756054Y-55596100D01*
X56818838Y-55361789D01*
X56850500Y-55121288D01*
X56850500Y-54999998D01*
X69394318Y-54999998D01*
X69394318Y-55000001D01*
X69414955Y-55156760D01*
X69414956Y-55156762D01*
X69475464Y-55302841D01*
X69571718Y-55428282D01*
X69697159Y-55524536D01*
X69843238Y-55585044D01*
X69922083Y-55595424D01*
X69985978Y-55623689D01*
X69993578Y-55630681D01*
X71013181Y-56650284D01*
X71046666Y-56711607D01*
X71049500Y-56737965D01*
X71049500Y-59058580D01*
X71029815Y-59125619D01*
X71023876Y-59134066D01*
X70975464Y-59197157D01*
X70914956Y-59343237D01*
X70914955Y-59343239D01*
X70894318Y-59499998D01*
X70894318Y-59500001D01*
X70914955Y-59656760D01*
X70914956Y-59656762D01*
X70975464Y-59802841D01*
X71071718Y-59928282D01*
X71197159Y-60024536D01*
X71343238Y-60085044D01*
X71421619Y-60095363D01*
X71499999Y-60105682D01*
X71500000Y-60105682D01*
X71500001Y-60105682D01*
X71552254Y-60098802D01*
X71656762Y-60085044D01*
X71802841Y-60024536D01*
X71928282Y-59928282D01*
X72024536Y-59802841D01*
X72085044Y-59656762D01*
X72104333Y-59510247D01*
X88468500Y-59510247D01*
X88468500Y-61249752D01*
X88480131Y-61308229D01*
X88480132Y-61308230D01*
X88524447Y-61374552D01*
X88590769Y-61418867D01*
X88590770Y-61418868D01*
X88649247Y-61430499D01*
X88649250Y-61430500D01*
X88649252Y-61430500D01*
X90388750Y-61430500D01*
X90388751Y-61430499D01*
X90403568Y-61427552D01*
X90447229Y-61418868D01*
X90447229Y-61418867D01*
X90447231Y-61418867D01*
X90513552Y-61374552D01*
X90557867Y-61308231D01*
X90557867Y-61308229D01*
X90557868Y-61308229D01*
X90567792Y-61258335D01*
X90569500Y-61249748D01*
X90569500Y-60939456D01*
X90589185Y-60872417D01*
X90641989Y-60826662D01*
X90711147Y-60816718D01*
X90774703Y-60845743D01*
X90805882Y-60887051D01*
X90885400Y-61057578D01*
X91020894Y-61251082D01*
X91187917Y-61418105D01*
X91381421Y-61553600D01*
X91595507Y-61653429D01*
X91595516Y-61653433D01*
X91717649Y-61686158D01*
X91777310Y-61722523D01*
X91807839Y-61785369D01*
X91799545Y-61854745D01*
X91755059Y-61908623D01*
X91721552Y-61924593D01*
X91655046Y-61944767D01*
X91524358Y-62014622D01*
X91472550Y-62042315D01*
X91472548Y-62042316D01*
X91472547Y-62042317D01*
X91312589Y-62173589D01*
X91181317Y-62333547D01*
X91181315Y-62333550D01*
X91176674Y-62342233D01*
X91083769Y-62516043D01*
X91083768Y-62516045D01*
X91083768Y-62516046D01*
X91076898Y-62538692D01*
X91023699Y-62714067D01*
X91003417Y-62920000D01*
X91023699Y-63125932D01*
X91046757Y-63201943D01*
X91083768Y-63323954D01*
X91181315Y-63506450D01*
X91181317Y-63506452D01*
X91312589Y-63666410D01*
X91396040Y-63734895D01*
X91472550Y-63797685D01*
X91655046Y-63895232D01*
X91853066Y-63955300D01*
X91853065Y-63955300D01*
X91871529Y-63957118D01*
X92059000Y-63975583D01*
X92264934Y-63955300D01*
X92462954Y-63895232D01*
X92645450Y-63797685D01*
X92805410Y-63666410D01*
X92936685Y-63506450D01*
X93034232Y-63323954D01*
X93094300Y-63125934D01*
X93114583Y-62920000D01*
X93094300Y-62714066D01*
X93034232Y-62516046D01*
X92936685Y-62333550D01*
X92884702Y-62270209D01*
X92805410Y-62173589D01*
X92687677Y-62076969D01*
X92645450Y-62042315D01*
X92462954Y-61944768D01*
X92396447Y-61924593D01*
X92338009Y-61886296D01*
X92309553Y-61822484D01*
X92320113Y-61753417D01*
X92366337Y-61701023D01*
X92400350Y-61686158D01*
X92522483Y-61653433D01*
X92522492Y-61653429D01*
X92736578Y-61553600D01*
X92930082Y-61418105D01*
X93097105Y-61251082D01*
X93232600Y-61057578D01*
X93332429Y-60843492D01*
X93332432Y-60843486D01*
X93389636Y-60630000D01*
X92492012Y-60630000D01*
X92524925Y-60572993D01*
X92559000Y-60445826D01*
X92559000Y-60314174D01*
X92524925Y-60187007D01*
X92492012Y-60130000D01*
X93389636Y-60130000D01*
X93389635Y-60129999D01*
X93332432Y-59916513D01*
X93332429Y-59916507D01*
X93232600Y-59702422D01*
X93232599Y-59702420D01*
X93097113Y-59508926D01*
X93097108Y-59508920D01*
X92930082Y-59341894D01*
X92736578Y-59206399D01*
X92522492Y-59106570D01*
X92522486Y-59106567D01*
X92309000Y-59049364D01*
X92309000Y-59946988D01*
X92251993Y-59914075D01*
X92124826Y-59880000D01*
X91993174Y-59880000D01*
X91866007Y-59914075D01*
X91809000Y-59946988D01*
X91809000Y-59049364D01*
X91808999Y-59049364D01*
X91595513Y-59106567D01*
X91595507Y-59106570D01*
X91381422Y-59206399D01*
X91381420Y-59206400D01*
X91187926Y-59341886D01*
X91187920Y-59341891D01*
X91020891Y-59508920D01*
X91020886Y-59508926D01*
X90885400Y-59702420D01*
X90885399Y-59702422D01*
X90805882Y-59872948D01*
X90759710Y-59925387D01*
X90692516Y-59944539D01*
X90625635Y-59924323D01*
X90580300Y-59871158D01*
X90569500Y-59820543D01*
X90569500Y-59510249D01*
X90569499Y-59510247D01*
X90557868Y-59451770D01*
X90557867Y-59451769D01*
X90513552Y-59385447D01*
X90447230Y-59341132D01*
X90447229Y-59341131D01*
X90388752Y-59329500D01*
X90388748Y-59329500D01*
X88649252Y-59329500D01*
X88649247Y-59329500D01*
X88590770Y-59341131D01*
X88590769Y-59341132D01*
X88524447Y-59385447D01*
X88480132Y-59451769D01*
X88480131Y-59451770D01*
X88468500Y-59510247D01*
X72104333Y-59510247D01*
X72105682Y-59500000D01*
X72099332Y-59451770D01*
X72085044Y-59343239D01*
X72085044Y-59343238D01*
X72024536Y-59197159D01*
X72024535Y-59197158D01*
X72024535Y-59197157D01*
X71976124Y-59134066D01*
X71950930Y-59068896D01*
X71950500Y-59058580D01*
X71950500Y-56440693D01*
X71950500Y-56440691D01*
X71919799Y-56326114D01*
X71891220Y-56276614D01*
X71860489Y-56223386D01*
X71137101Y-55499998D01*
X74894318Y-55499998D01*
X74894318Y-55500001D01*
X74914955Y-55656760D01*
X74914956Y-55656762D01*
X74963735Y-55774526D01*
X74975464Y-55802841D01*
X75071718Y-55928282D01*
X75197159Y-56024536D01*
X75343238Y-56085044D01*
X75422082Y-56095423D01*
X75485977Y-56123689D01*
X75493577Y-56130681D01*
X75513181Y-56150285D01*
X75546666Y-56211608D01*
X75549500Y-56237966D01*
X75549500Y-57558580D01*
X75529815Y-57625619D01*
X75523876Y-57634066D01*
X75475464Y-57697157D01*
X75414956Y-57843237D01*
X75414955Y-57843239D01*
X75394318Y-57999998D01*
X75394318Y-58000001D01*
X75414955Y-58156760D01*
X75414956Y-58156762D01*
X75475464Y-58302841D01*
X75571718Y-58428282D01*
X75697159Y-58524536D01*
X75843238Y-58585044D01*
X75921619Y-58595363D01*
X75999999Y-58605682D01*
X76000000Y-58605682D01*
X76000001Y-58605682D01*
X76052254Y-58598802D01*
X76156762Y-58585044D01*
X76302841Y-58524536D01*
X76428282Y-58428282D01*
X76524536Y-58302841D01*
X76585044Y-58156762D01*
X76605682Y-58000000D01*
X76585044Y-57843238D01*
X76524536Y-57697159D01*
X76524535Y-57697158D01*
X76524535Y-57697157D01*
X76476124Y-57634066D01*
X76450930Y-57568896D01*
X76450500Y-57558580D01*
X76450500Y-55940693D01*
X76450500Y-55940691D01*
X76419799Y-55826114D01*
X76419799Y-55826113D01*
X76419799Y-55826112D01*
X76360492Y-55723389D01*
X76360488Y-55723384D01*
X76130681Y-55493577D01*
X76097196Y-55432254D01*
X76095425Y-55422095D01*
X76085044Y-55343238D01*
X76024536Y-55197159D01*
X75928282Y-55071718D01*
X75802841Y-54975464D01*
X75698525Y-54932255D01*
X75656762Y-54914956D01*
X75656760Y-54914955D01*
X75500001Y-54894318D01*
X75499999Y-54894318D01*
X75343239Y-54914955D01*
X75343237Y-54914956D01*
X75197160Y-54975463D01*
X75071718Y-55071718D01*
X74975463Y-55197160D01*
X74914956Y-55343237D01*
X74914955Y-55343239D01*
X74894318Y-55499998D01*
X71137101Y-55499998D01*
X70630681Y-54993578D01*
X70597196Y-54932255D01*
X70595425Y-54922097D01*
X70589714Y-54878711D01*
X89182500Y-54878711D01*
X89182500Y-55121288D01*
X89211719Y-55343239D01*
X89214162Y-55361789D01*
X89216326Y-55369866D01*
X89276947Y-55596104D01*
X89369773Y-55820205D01*
X89369777Y-55820214D01*
X89385538Y-55847512D01*
X89491064Y-56030289D01*
X89491066Y-56030292D01*
X89491067Y-56030293D01*
X89638733Y-56222736D01*
X89638739Y-56222743D01*
X89810256Y-56394260D01*
X89810263Y-56394266D01*
X89923321Y-56481018D01*
X90002711Y-56541936D01*
X90212788Y-56663224D01*
X90436900Y-56756054D01*
X90671211Y-56818838D01*
X90851586Y-56842584D01*
X90911711Y-56850500D01*
X90911712Y-56850500D01*
X91154289Y-56850500D01*
X91202388Y-56844167D01*
X91394789Y-56818838D01*
X91629100Y-56756054D01*
X91853212Y-56663224D01*
X92063289Y-56541936D01*
X92255738Y-56394265D01*
X92427265Y-56222738D01*
X92574936Y-56030289D01*
X92696224Y-55820212D01*
X92789054Y-55596100D01*
X92851838Y-55361789D01*
X92883500Y-55121288D01*
X92883500Y-54878712D01*
X92851838Y-54638211D01*
X92789054Y-54403900D01*
X92696224Y-54179788D01*
X92574936Y-53969711D01*
X92427265Y-53777262D01*
X92427260Y-53777256D01*
X92255743Y-53605739D01*
X92255736Y-53605733D01*
X92063293Y-53458067D01*
X92063292Y-53458066D01*
X92063289Y-53458064D01*
X91853212Y-53336776D01*
X91853205Y-53336773D01*
X91629104Y-53243947D01*
X91394785Y-53181161D01*
X91154289Y-53149500D01*
X91154288Y-53149500D01*
X90911712Y-53149500D01*
X90911711Y-53149500D01*
X90671214Y-53181161D01*
X90436895Y-53243947D01*
X90212794Y-53336773D01*
X90212785Y-53336777D01*
X90002706Y-53458067D01*
X89810263Y-53605733D01*
X89810256Y-53605739D01*
X89638739Y-53777256D01*
X89638733Y-53777263D01*
X89491067Y-53969706D01*
X89369777Y-54179785D01*
X89369773Y-54179794D01*
X89276947Y-54403895D01*
X89214161Y-54638214D01*
X89182500Y-54878711D01*
X70589714Y-54878711D01*
X70585044Y-54843238D01*
X70524536Y-54697159D01*
X70428282Y-54571718D01*
X70302841Y-54475464D01*
X70156762Y-54414956D01*
X70156760Y-54414955D01*
X70000001Y-54394318D01*
X69999999Y-54394318D01*
X69843239Y-54414955D01*
X69843237Y-54414956D01*
X69697160Y-54475463D01*
X69571718Y-54571718D01*
X69475463Y-54697160D01*
X69414956Y-54843237D01*
X69414955Y-54843239D01*
X69394318Y-54999998D01*
X56850500Y-54999998D01*
X56850500Y-54878712D01*
X56818838Y-54638211D01*
X56756054Y-54403900D01*
X56663224Y-54179788D01*
X56541936Y-53969711D01*
X56394265Y-53777262D01*
X56394260Y-53777256D01*
X56222743Y-53605739D01*
X56222736Y-53605733D01*
X56030293Y-53458067D01*
X56030292Y-53458066D01*
X56030289Y-53458064D01*
X55820212Y-53336776D01*
X55820205Y-53336773D01*
X55596104Y-53243947D01*
X55361785Y-53181161D01*
X55121289Y-53149500D01*
X55121288Y-53149500D01*
X54878712Y-53149500D01*
X54878711Y-53149500D01*
X54638214Y-53181161D01*
X54403895Y-53243947D01*
X54179794Y-53336773D01*
X54179785Y-53336777D01*
X53969706Y-53458067D01*
X53777263Y-53605733D01*
X53777256Y-53605739D01*
X53605739Y-53777256D01*
X53605733Y-53777263D01*
X53458067Y-53969706D01*
X53336777Y-54179785D01*
X53336773Y-54179794D01*
X53243947Y-54403895D01*
X53181161Y-54638214D01*
X53149500Y-54878711D01*
X50500000Y-54878711D01*
X50500000Y-50624000D01*
X50519685Y-50556961D01*
X50572489Y-50511206D01*
X50624000Y-50500000D01*
X95376000Y-50500000D01*
X95443039Y-50519685D01*
G37*
G04 #@! TD.AperFunction*
G04 #@! TD*
G04 #@! TA.AperFunction,Conductor*
G04 #@! TO.N,GND*
G36*
X65515677Y-89519685D02*
G01*
X65536319Y-89536319D01*
X66500000Y-90500000D01*
X86876000Y-90500000D01*
X86943039Y-90519685D01*
X86988794Y-90572489D01*
X87000000Y-90624000D01*
X87000000Y-111376000D01*
X86980315Y-111443039D01*
X86927511Y-111488794D01*
X86876000Y-111500000D01*
X50624000Y-111500000D01*
X50556961Y-111480315D01*
X50511206Y-111427511D01*
X50500000Y-111376000D01*
X50500000Y-107947853D01*
X61406500Y-107947853D01*
X61406500Y-108206146D01*
X61406501Y-108206162D01*
X61440215Y-108462248D01*
X61507071Y-108711758D01*
X61605918Y-108950396D01*
X61605923Y-108950407D01*
X61735069Y-109174092D01*
X61735080Y-109174108D01*
X61892319Y-109379027D01*
X61892325Y-109379034D01*
X62074965Y-109561674D01*
X62074971Y-109561679D01*
X62279900Y-109718926D01*
X62279907Y-109718930D01*
X62503592Y-109848076D01*
X62503597Y-109848078D01*
X62503600Y-109848080D01*
X62622922Y-109897504D01*
X62742241Y-109946928D01*
X62742242Y-109946928D01*
X62742244Y-109946929D01*
X62991750Y-110013784D01*
X63247847Y-110047500D01*
X63247854Y-110047500D01*
X63506146Y-110047500D01*
X63506153Y-110047500D01*
X63762250Y-110013784D01*
X64011756Y-109946929D01*
X64250400Y-109848080D01*
X64474100Y-109718926D01*
X64679029Y-109561679D01*
X64861679Y-109379029D01*
X65018926Y-109174100D01*
X65148080Y-108950400D01*
X65246929Y-108711756D01*
X65313784Y-108462250D01*
X65347500Y-108206153D01*
X65347500Y-107947853D01*
X71058500Y-107947853D01*
X71058500Y-108206146D01*
X71058501Y-108206162D01*
X71092215Y-108462248D01*
X71159071Y-108711758D01*
X71257918Y-108950396D01*
X71257923Y-108950407D01*
X71387069Y-109174092D01*
X71387080Y-109174108D01*
X71544319Y-109379027D01*
X71544325Y-109379034D01*
X71726965Y-109561674D01*
X71726971Y-109561679D01*
X71931900Y-109718926D01*
X71931907Y-109718930D01*
X72155592Y-109848076D01*
X72155597Y-109848078D01*
X72155600Y-109848080D01*
X72274922Y-109897504D01*
X72394241Y-109946928D01*
X72394242Y-109946928D01*
X72394244Y-109946929D01*
X72643750Y-110013784D01*
X72899847Y-110047500D01*
X72899854Y-110047500D01*
X73158146Y-110047500D01*
X73158153Y-110047500D01*
X73414250Y-110013784D01*
X73663756Y-109946929D01*
X73902400Y-109848080D01*
X74126100Y-109718926D01*
X74331029Y-109561679D01*
X74513679Y-109379029D01*
X74670926Y-109174100D01*
X74800080Y-108950400D01*
X74898929Y-108711756D01*
X74965784Y-108462250D01*
X74999500Y-108206153D01*
X74999500Y-107947853D01*
X80670500Y-107947853D01*
X80670500Y-108206146D01*
X80670501Y-108206162D01*
X80704215Y-108462248D01*
X80771071Y-108711758D01*
X80869918Y-108950396D01*
X80869923Y-108950407D01*
X80999069Y-109174092D01*
X80999080Y-109174108D01*
X81156319Y-109379027D01*
X81156325Y-109379034D01*
X81338965Y-109561674D01*
X81338971Y-109561679D01*
X81543900Y-109718926D01*
X81543907Y-109718930D01*
X81767592Y-109848076D01*
X81767597Y-109848078D01*
X81767600Y-109848080D01*
X81886922Y-109897504D01*
X82006241Y-109946928D01*
X82006242Y-109946928D01*
X82006244Y-109946929D01*
X82255750Y-110013784D01*
X82511847Y-110047500D01*
X82511854Y-110047500D01*
X82770146Y-110047500D01*
X82770153Y-110047500D01*
X83026250Y-110013784D01*
X83275756Y-109946929D01*
X83514400Y-109848080D01*
X83738100Y-109718926D01*
X83943029Y-109561679D01*
X84125679Y-109379029D01*
X84282926Y-109174100D01*
X84412080Y-108950400D01*
X84510929Y-108711756D01*
X84577784Y-108462250D01*
X84611500Y-108206153D01*
X84611500Y-107947847D01*
X84577784Y-107691750D01*
X84510929Y-107442244D01*
X84412080Y-107203600D01*
X84412078Y-107203597D01*
X84412076Y-107203592D01*
X84282930Y-106979907D01*
X84282926Y-106979900D01*
X84125679Y-106774971D01*
X84125674Y-106774965D01*
X83943034Y-106592325D01*
X83943027Y-106592319D01*
X83738108Y-106435080D01*
X83738106Y-106435078D01*
X83738100Y-106435074D01*
X83738095Y-106435071D01*
X83738092Y-106435069D01*
X83514407Y-106305923D01*
X83514396Y-106305918D01*
X83275758Y-106207071D01*
X83026248Y-106140215D01*
X82770162Y-106106501D01*
X82770159Y-106106500D01*
X82770153Y-106106500D01*
X82511847Y-106106500D01*
X82511841Y-106106500D01*
X82511837Y-106106501D01*
X82255751Y-106140215D01*
X82006241Y-106207071D01*
X81767603Y-106305918D01*
X81767592Y-106305923D01*
X81543907Y-106435069D01*
X81543891Y-106435080D01*
X81338972Y-106592319D01*
X81338965Y-106592325D01*
X81156325Y-106774965D01*
X81156319Y-106774972D01*
X80999080Y-106979891D01*
X80999069Y-106979907D01*
X80869923Y-107203592D01*
X80869918Y-107203603D01*
X80771071Y-107442241D01*
X80704215Y-107691751D01*
X80670501Y-107947837D01*
X80670500Y-107947853D01*
X74999500Y-107947853D01*
X74999500Y-107947847D01*
X74965784Y-107691750D01*
X74898929Y-107442244D01*
X74800080Y-107203600D01*
X74800078Y-107203597D01*
X74800076Y-107203592D01*
X74670930Y-106979907D01*
X74670926Y-106979900D01*
X74513679Y-106774971D01*
X74513674Y-106774965D01*
X74331034Y-106592325D01*
X74331027Y-106592319D01*
X74126108Y-106435080D01*
X74126106Y-106435078D01*
X74126100Y-106435074D01*
X74126095Y-106435071D01*
X74126092Y-106435069D01*
X73902407Y-106305923D01*
X73902396Y-106305918D01*
X73663758Y-106207071D01*
X73414248Y-106140215D01*
X73158162Y-106106501D01*
X73158159Y-106106500D01*
X73158153Y-106106500D01*
X72899847Y-106106500D01*
X72899841Y-106106500D01*
X72899837Y-106106501D01*
X72643751Y-106140215D01*
X72394241Y-106207071D01*
X72155603Y-106305918D01*
X72155592Y-106305923D01*
X71931907Y-106435069D01*
X71931891Y-106435080D01*
X71726972Y-106592319D01*
X71726965Y-106592325D01*
X71544325Y-106774965D01*
X71544319Y-106774972D01*
X71387080Y-106979891D01*
X71387069Y-106979907D01*
X71257923Y-107203592D01*
X71257918Y-107203603D01*
X71159071Y-107442241D01*
X71092215Y-107691751D01*
X71058501Y-107947837D01*
X71058500Y-107947853D01*
X65347500Y-107947853D01*
X65347500Y-107947847D01*
X65313784Y-107691750D01*
X65246929Y-107442244D01*
X65148080Y-107203600D01*
X65148078Y-107203597D01*
X65148076Y-107203592D01*
X65018930Y-106979907D01*
X65018926Y-106979900D01*
X64861679Y-106774971D01*
X64861674Y-106774965D01*
X64679034Y-106592325D01*
X64679027Y-106592319D01*
X64474108Y-106435080D01*
X64474106Y-106435078D01*
X64474100Y-106435074D01*
X64474095Y-106435071D01*
X64474092Y-106435069D01*
X64250407Y-106305923D01*
X64250396Y-106305918D01*
X64011758Y-106207071D01*
X63762248Y-106140215D01*
X63506162Y-106106501D01*
X63506159Y-106106500D01*
X63506153Y-106106500D01*
X63247847Y-106106500D01*
X63247841Y-106106500D01*
X63247837Y-106106501D01*
X62991751Y-106140215D01*
X62742241Y-106207071D01*
X62503603Y-106305918D01*
X62503592Y-106305923D01*
X62279907Y-106435069D01*
X62279891Y-106435080D01*
X62074972Y-106592319D01*
X62074965Y-106592325D01*
X61892325Y-106774965D01*
X61892319Y-106774972D01*
X61735080Y-106979891D01*
X61735069Y-106979907D01*
X61605923Y-107203592D01*
X61605918Y-107203603D01*
X61507071Y-107442241D01*
X61440215Y-107691751D01*
X61406501Y-107947837D01*
X61406500Y-107947853D01*
X50500000Y-107947853D01*
X50500000Y-103904711D01*
X53182500Y-103904711D01*
X53182500Y-104147288D01*
X53214161Y-104387785D01*
X53276947Y-104622104D01*
X53369773Y-104846205D01*
X53369776Y-104846212D01*
X53491064Y-105056289D01*
X53491066Y-105056292D01*
X53491067Y-105056293D01*
X53638733Y-105248736D01*
X53638739Y-105248743D01*
X53810256Y-105420260D01*
X53810262Y-105420265D01*
X54002711Y-105567936D01*
X54212788Y-105689224D01*
X54436900Y-105782054D01*
X54671211Y-105844838D01*
X54851586Y-105868584D01*
X54911711Y-105876500D01*
X54911712Y-105876500D01*
X55154289Y-105876500D01*
X55202388Y-105870167D01*
X55394789Y-105844838D01*
X55629100Y-105782054D01*
X55853212Y-105689224D01*
X56063289Y-105567936D01*
X56255738Y-105420265D01*
X56427265Y-105248738D01*
X56574936Y-105056289D01*
X56696224Y-104846212D01*
X56789054Y-104622100D01*
X56851838Y-104387789D01*
X56883500Y-104147288D01*
X56883500Y-103904712D01*
X56851838Y-103664211D01*
X56789054Y-103429900D01*
X56696224Y-103205788D01*
X56574936Y-102995711D01*
X56427265Y-102803262D01*
X56427260Y-102803256D01*
X56255743Y-102631739D01*
X56255736Y-102631733D01*
X56063293Y-102484067D01*
X56063292Y-102484066D01*
X56063289Y-102484064D01*
X55853212Y-102362776D01*
X55834997Y-102355231D01*
X55629104Y-102269947D01*
X55488627Y-102232306D01*
X55394789Y-102207162D01*
X55394788Y-102207161D01*
X55394785Y-102207161D01*
X55154289Y-102175500D01*
X55154288Y-102175500D01*
X54911712Y-102175500D01*
X54911711Y-102175500D01*
X54671214Y-102207161D01*
X54436895Y-102269947D01*
X54212794Y-102362773D01*
X54212785Y-102362777D01*
X54002706Y-102484067D01*
X53810263Y-102631733D01*
X53810256Y-102631739D01*
X53638739Y-102803256D01*
X53638733Y-102803263D01*
X53491067Y-102995706D01*
X53369777Y-103205785D01*
X53369773Y-103205794D01*
X53276947Y-103429895D01*
X53214161Y-103664214D01*
X53182500Y-103904711D01*
X50500000Y-103904711D01*
X50500000Y-101576999D01*
X60921859Y-101576999D01*
X60921859Y-101577000D01*
X60942378Y-101798439D01*
X61003240Y-102012350D01*
X61102364Y-102211419D01*
X61102366Y-102211421D01*
X61118138Y-102232306D01*
X61684861Y-101665584D01*
X61707667Y-101750694D01*
X61766910Y-101853306D01*
X61850694Y-101937090D01*
X61953306Y-101996333D01*
X62038415Y-102019138D01*
X61473671Y-102583880D01*
X61589823Y-102655798D01*
X61589824Y-102655799D01*
X61797195Y-102736134D01*
X62015807Y-102777000D01*
X62238193Y-102777000D01*
X62456804Y-102736134D01*
X62664177Y-102655798D01*
X62664178Y-102655797D01*
X62780327Y-102583880D01*
X62215585Y-102019138D01*
X62300694Y-101996333D01*
X62403306Y-101937090D01*
X62487090Y-101853306D01*
X62546333Y-101750694D01*
X62569138Y-101665584D01*
X63135860Y-102232306D01*
X63135861Y-102232306D01*
X63151631Y-102211425D01*
X63151632Y-102211422D01*
X63250759Y-102012350D01*
X63311621Y-101798439D01*
X63332141Y-101577000D01*
X63332141Y-101576999D01*
X63311621Y-101355560D01*
X63250759Y-101141649D01*
X63151633Y-100942577D01*
X63151631Y-100942574D01*
X63135860Y-100921691D01*
X62569137Y-101488414D01*
X62546333Y-101403306D01*
X62487090Y-101300694D01*
X62403306Y-101216910D01*
X62300694Y-101157667D01*
X62215584Y-101134861D01*
X62493198Y-100857247D01*
X63726500Y-100857247D01*
X63726500Y-102296752D01*
X63738131Y-102355229D01*
X63738132Y-102355230D01*
X63782447Y-102421552D01*
X63848769Y-102465867D01*
X63848770Y-102465868D01*
X63907247Y-102477499D01*
X63907250Y-102477500D01*
X63907252Y-102477500D01*
X65346750Y-102477500D01*
X65346751Y-102477499D01*
X65361568Y-102474552D01*
X65405229Y-102465868D01*
X65405229Y-102465867D01*
X65405231Y-102465867D01*
X65471552Y-102421552D01*
X65515867Y-102355231D01*
X65515867Y-102355229D01*
X65515868Y-102355229D01*
X65527499Y-102296752D01*
X65527500Y-102296750D01*
X65527500Y-101576999D01*
X70573859Y-101576999D01*
X70573859Y-101577000D01*
X70594378Y-101798439D01*
X70655240Y-102012350D01*
X70754364Y-102211419D01*
X70754366Y-102211421D01*
X70770138Y-102232306D01*
X71336861Y-101665584D01*
X71359667Y-101750694D01*
X71418910Y-101853306D01*
X71502694Y-101937090D01*
X71605306Y-101996333D01*
X71690415Y-102019138D01*
X71125671Y-102583880D01*
X71241823Y-102655798D01*
X71241824Y-102655799D01*
X71449195Y-102736134D01*
X71667807Y-102777000D01*
X71890193Y-102777000D01*
X72108804Y-102736134D01*
X72316177Y-102655798D01*
X72316178Y-102655797D01*
X72432327Y-102583880D01*
X71867585Y-102019138D01*
X71952694Y-101996333D01*
X72055306Y-101937090D01*
X72139090Y-101853306D01*
X72198333Y-101750694D01*
X72221138Y-101665584D01*
X72787860Y-102232306D01*
X72787861Y-102232306D01*
X72803631Y-102211425D01*
X72803632Y-102211422D01*
X72902759Y-102012350D01*
X72963621Y-101798439D01*
X72984141Y-101577000D01*
X72984141Y-101576999D01*
X72963621Y-101355560D01*
X72902759Y-101141649D01*
X72803633Y-100942577D01*
X72803631Y-100942574D01*
X72787860Y-100921691D01*
X72221137Y-101488414D01*
X72198333Y-101403306D01*
X72139090Y-101300694D01*
X72055306Y-101216910D01*
X71952694Y-101157667D01*
X71867584Y-101134861D01*
X72145198Y-100857247D01*
X73378500Y-100857247D01*
X73378500Y-102296752D01*
X73390131Y-102355229D01*
X73390132Y-102355230D01*
X73434447Y-102421552D01*
X73500769Y-102465867D01*
X73500770Y-102465868D01*
X73559247Y-102477499D01*
X73559250Y-102477500D01*
X73559252Y-102477500D01*
X74998750Y-102477500D01*
X74998751Y-102477499D01*
X75013568Y-102474552D01*
X75057229Y-102465868D01*
X75057229Y-102465867D01*
X75057231Y-102465867D01*
X75123552Y-102421552D01*
X75167867Y-102355231D01*
X75167867Y-102355229D01*
X75167868Y-102355229D01*
X75179499Y-102296752D01*
X75179500Y-102296750D01*
X75179500Y-101576999D01*
X80185859Y-101576999D01*
X80185859Y-101577000D01*
X80206378Y-101798439D01*
X80267240Y-102012350D01*
X80366364Y-102211419D01*
X80366366Y-102211421D01*
X80382138Y-102232306D01*
X80948861Y-101665584D01*
X80971667Y-101750694D01*
X81030910Y-101853306D01*
X81114694Y-101937090D01*
X81217306Y-101996333D01*
X81302415Y-102019138D01*
X80737671Y-102583880D01*
X80853823Y-102655798D01*
X80853824Y-102655799D01*
X81061195Y-102736134D01*
X81279807Y-102777000D01*
X81502193Y-102777000D01*
X81720804Y-102736134D01*
X81928177Y-102655798D01*
X81928178Y-102655797D01*
X82044327Y-102583880D01*
X81479585Y-102019138D01*
X81564694Y-101996333D01*
X81667306Y-101937090D01*
X81751090Y-101853306D01*
X81810333Y-101750694D01*
X81833138Y-101665584D01*
X82399860Y-102232306D01*
X82399861Y-102232306D01*
X82415631Y-102211425D01*
X82415632Y-102211422D01*
X82514759Y-102012350D01*
X82575621Y-101798439D01*
X82596141Y-101577000D01*
X82596141Y-101576999D01*
X82575621Y-101355560D01*
X82514759Y-101141649D01*
X82415633Y-100942577D01*
X82415631Y-100942574D01*
X82399860Y-100921691D01*
X81833137Y-101488414D01*
X81810333Y-101403306D01*
X81751090Y-101300694D01*
X81667306Y-101216910D01*
X81564694Y-101157667D01*
X81479584Y-101134861D01*
X81757198Y-100857247D01*
X82990500Y-100857247D01*
X82990500Y-102296752D01*
X83002131Y-102355229D01*
X83002132Y-102355230D01*
X83046447Y-102421552D01*
X83112769Y-102465867D01*
X83112770Y-102465868D01*
X83171247Y-102477499D01*
X83171250Y-102477500D01*
X83171252Y-102477500D01*
X84610750Y-102477500D01*
X84610751Y-102477499D01*
X84625568Y-102474552D01*
X84669229Y-102465868D01*
X84669229Y-102465867D01*
X84669231Y-102465867D01*
X84735552Y-102421552D01*
X84779867Y-102355231D01*
X84779867Y-102355229D01*
X84779868Y-102355229D01*
X84791499Y-102296752D01*
X84791500Y-102296750D01*
X84791500Y-100857249D01*
X84791499Y-100857247D01*
X84779868Y-100798770D01*
X84779867Y-100798769D01*
X84735552Y-100732447D01*
X84669230Y-100688132D01*
X84669229Y-100688131D01*
X84610752Y-100676500D01*
X84610748Y-100676500D01*
X83171252Y-100676500D01*
X83171247Y-100676500D01*
X83112770Y-100688131D01*
X83112769Y-100688132D01*
X83046447Y-100732447D01*
X83002132Y-100798769D01*
X83002131Y-100798770D01*
X82990500Y-100857247D01*
X81757198Y-100857247D01*
X82044327Y-100570118D01*
X82044326Y-100570117D01*
X81928181Y-100498203D01*
X81928175Y-100498200D01*
X81720804Y-100417865D01*
X81502193Y-100377000D01*
X81279807Y-100377000D01*
X81061195Y-100417865D01*
X80853824Y-100498200D01*
X80853818Y-100498204D01*
X80737672Y-100570117D01*
X80737671Y-100570118D01*
X81302415Y-101134861D01*
X81217306Y-101157667D01*
X81114694Y-101216910D01*
X81030910Y-101300694D01*
X80971667Y-101403306D01*
X80948861Y-101488414D01*
X80382138Y-100921691D01*
X80382137Y-100921691D01*
X80366369Y-100942571D01*
X80267240Y-101141649D01*
X80206378Y-101355560D01*
X80185859Y-101576999D01*
X75179500Y-101576999D01*
X75179500Y-100857249D01*
X75179499Y-100857247D01*
X75167868Y-100798770D01*
X75167867Y-100798769D01*
X75123552Y-100732447D01*
X75057230Y-100688132D01*
X75057229Y-100688131D01*
X74998752Y-100676500D01*
X74998748Y-100676500D01*
X73559252Y-100676500D01*
X73559247Y-100676500D01*
X73500770Y-100688131D01*
X73500769Y-100688132D01*
X73434447Y-100732447D01*
X73390132Y-100798769D01*
X73390131Y-100798770D01*
X73378500Y-100857247D01*
X72145198Y-100857247D01*
X72432327Y-100570118D01*
X72432326Y-100570117D01*
X72316181Y-100498203D01*
X72316175Y-100498200D01*
X72108804Y-100417865D01*
X71890193Y-100377000D01*
X71667807Y-100377000D01*
X71449195Y-100417865D01*
X71241824Y-100498200D01*
X71241818Y-100498204D01*
X71125672Y-100570117D01*
X71125671Y-100570118D01*
X71690415Y-101134861D01*
X71605306Y-101157667D01*
X71502694Y-101216910D01*
X71418910Y-101300694D01*
X71359667Y-101403306D01*
X71336861Y-101488414D01*
X70770138Y-100921691D01*
X70770137Y-100921691D01*
X70754369Y-100942571D01*
X70655240Y-101141649D01*
X70594378Y-101355560D01*
X70573859Y-101576999D01*
X65527500Y-101576999D01*
X65527500Y-100857249D01*
X65527499Y-100857247D01*
X65515868Y-100798770D01*
X65515867Y-100798769D01*
X65471552Y-100732447D01*
X65405230Y-100688132D01*
X65405229Y-100688131D01*
X65346752Y-100676500D01*
X65346748Y-100676500D01*
X63907252Y-100676500D01*
X63907247Y-100676500D01*
X63848770Y-100688131D01*
X63848769Y-100688132D01*
X63782447Y-100732447D01*
X63738132Y-100798769D01*
X63738131Y-100798770D01*
X63726500Y-100857247D01*
X62493198Y-100857247D01*
X62780327Y-100570118D01*
X62780326Y-100570117D01*
X62664181Y-100498203D01*
X62664175Y-100498200D01*
X62456804Y-100417865D01*
X62238193Y-100377000D01*
X62015807Y-100377000D01*
X61797195Y-100417865D01*
X61589824Y-100498200D01*
X61589818Y-100498204D01*
X61473672Y-100570117D01*
X61473671Y-100570118D01*
X62038415Y-101134861D01*
X61953306Y-101157667D01*
X61850694Y-101216910D01*
X61766910Y-101300694D01*
X61707667Y-101403306D01*
X61684861Y-101488414D01*
X61118138Y-100921691D01*
X61118137Y-100921691D01*
X61102369Y-100942571D01*
X61003240Y-101141649D01*
X60942378Y-101355560D01*
X60921859Y-101576999D01*
X50500000Y-101576999D01*
X50500000Y-92283853D01*
X52029500Y-92283853D01*
X52029500Y-92542146D01*
X52029501Y-92542162D01*
X52063215Y-92798248D01*
X52130071Y-93047758D01*
X52228918Y-93286396D01*
X52228923Y-93286407D01*
X52358069Y-93510092D01*
X52358080Y-93510108D01*
X52515319Y-93715027D01*
X52515325Y-93715034D01*
X52697965Y-93897674D01*
X52697971Y-93897679D01*
X52902900Y-94054926D01*
X52902907Y-94054930D01*
X53126592Y-94184076D01*
X53126597Y-94184078D01*
X53126600Y-94184080D01*
X53245922Y-94233504D01*
X53365241Y-94282928D01*
X53365242Y-94282928D01*
X53365244Y-94282929D01*
X53614750Y-94349784D01*
X53870847Y-94383500D01*
X53870854Y-94383500D01*
X54129146Y-94383500D01*
X54129153Y-94383500D01*
X54385250Y-94349784D01*
X54634756Y-94282929D01*
X54873400Y-94184080D01*
X55097100Y-94054926D01*
X55302029Y-93897679D01*
X55484679Y-93715029D01*
X55641926Y-93510100D01*
X55771080Y-93286400D01*
X55869929Y-93047756D01*
X55897932Y-92943247D01*
X59599500Y-92943247D01*
X59599500Y-94382752D01*
X59611131Y-94441229D01*
X59611132Y-94441230D01*
X59655447Y-94507552D01*
X59721769Y-94551867D01*
X59721770Y-94551868D01*
X59780247Y-94563499D01*
X59780250Y-94563500D01*
X59780252Y-94563500D01*
X61219750Y-94563500D01*
X61219751Y-94563499D01*
X61234568Y-94560552D01*
X61278229Y-94551868D01*
X61278229Y-94551867D01*
X61278231Y-94551867D01*
X61344552Y-94507552D01*
X61388867Y-94441231D01*
X61388867Y-94441229D01*
X61388868Y-94441229D01*
X61400499Y-94382752D01*
X61400500Y-94382750D01*
X61400500Y-92943249D01*
X61400499Y-92943247D01*
X61388868Y-92884770D01*
X61388867Y-92884769D01*
X61344552Y-92818447D01*
X61278230Y-92774132D01*
X61278229Y-92774131D01*
X61219752Y-92762500D01*
X61219748Y-92762500D01*
X59780252Y-92762500D01*
X59780247Y-92762500D01*
X59721770Y-92774131D01*
X59721769Y-92774132D01*
X59655447Y-92818447D01*
X59611132Y-92884769D01*
X59611131Y-92884770D01*
X59599500Y-92943247D01*
X55897932Y-92943247D01*
X55936784Y-92798250D01*
X55970500Y-92542153D01*
X55970500Y-92283847D01*
X55936784Y-92027750D01*
X55869929Y-91778244D01*
X55771080Y-91539600D01*
X55771078Y-91539597D01*
X55771076Y-91539592D01*
X55641930Y-91315907D01*
X55641926Y-91315900D01*
X55596646Y-91256889D01*
X55524602Y-91162999D01*
X59294859Y-91162999D01*
X59294859Y-91163000D01*
X59315378Y-91384439D01*
X59376240Y-91598350D01*
X59475364Y-91797419D01*
X59475366Y-91797421D01*
X59491138Y-91818306D01*
X60057861Y-91251584D01*
X60080667Y-91336694D01*
X60139910Y-91439306D01*
X60223694Y-91523090D01*
X60326306Y-91582333D01*
X60411415Y-91605138D01*
X59846671Y-92169880D01*
X59962823Y-92241798D01*
X59962824Y-92241799D01*
X60170195Y-92322134D01*
X60388807Y-92363000D01*
X60611193Y-92363000D01*
X60829804Y-92322134D01*
X61037177Y-92241798D01*
X61037178Y-92241797D01*
X61153327Y-92169880D01*
X60588585Y-91605138D01*
X60673694Y-91582333D01*
X60776306Y-91523090D01*
X60860090Y-91439306D01*
X60919333Y-91336694D01*
X60942138Y-91251584D01*
X61508860Y-91818306D01*
X61508861Y-91818306D01*
X61524631Y-91797425D01*
X61524632Y-91797422D01*
X61623759Y-91598350D01*
X61684621Y-91384439D01*
X61705141Y-91163000D01*
X61705141Y-91162999D01*
X61684621Y-90941560D01*
X61623759Y-90727649D01*
X61524633Y-90528577D01*
X61524631Y-90528574D01*
X61508860Y-90507691D01*
X60942137Y-91074414D01*
X60919333Y-90989306D01*
X60860090Y-90886694D01*
X60776306Y-90802910D01*
X60673694Y-90743667D01*
X60588584Y-90720861D01*
X61153327Y-90156118D01*
X61153326Y-90156117D01*
X61037181Y-90084203D01*
X61037175Y-90084200D01*
X60829804Y-90003865D01*
X60611193Y-89963000D01*
X60388807Y-89963000D01*
X60170195Y-90003865D01*
X59962824Y-90084200D01*
X59962818Y-90084204D01*
X59846672Y-90156117D01*
X59846671Y-90156118D01*
X60411415Y-90720861D01*
X60326306Y-90743667D01*
X60223694Y-90802910D01*
X60139910Y-90886694D01*
X60080667Y-90989306D01*
X60057861Y-91074414D01*
X59491138Y-90507691D01*
X59491137Y-90507691D01*
X59475369Y-90528571D01*
X59376240Y-90727649D01*
X59315378Y-90941560D01*
X59294859Y-91162999D01*
X55524602Y-91162999D01*
X55484680Y-91110972D01*
X55484674Y-91110965D01*
X55302034Y-90928325D01*
X55302027Y-90928319D01*
X55097108Y-90771080D01*
X55097106Y-90771078D01*
X55097100Y-90771074D01*
X55097095Y-90771071D01*
X55097092Y-90771069D01*
X54873407Y-90641923D01*
X54873396Y-90641918D01*
X54634758Y-90543071D01*
X54385248Y-90476215D01*
X54129162Y-90442501D01*
X54129159Y-90442500D01*
X54129153Y-90442500D01*
X53870847Y-90442500D01*
X53870841Y-90442500D01*
X53870837Y-90442501D01*
X53614751Y-90476215D01*
X53365241Y-90543071D01*
X53126603Y-90641918D01*
X53126592Y-90641923D01*
X52902907Y-90771069D01*
X52902891Y-90771080D01*
X52697972Y-90928319D01*
X52697965Y-90928325D01*
X52515325Y-91110965D01*
X52515319Y-91110972D01*
X52358080Y-91315891D01*
X52358069Y-91315907D01*
X52228923Y-91539592D01*
X52228918Y-91539603D01*
X52130071Y-91778241D01*
X52063215Y-92027751D01*
X52029501Y-92283837D01*
X52029500Y-92283853D01*
X50500000Y-92283853D01*
X50500000Y-89624000D01*
X50519685Y-89556961D01*
X50572489Y-89511206D01*
X50624000Y-89500000D01*
X65448638Y-89500000D01*
X65515677Y-89519685D01*
G37*
G04 #@! TD.AperFunction*
G04 #@! TD*
M02*
