M48
; DRILL file {KiCad 8.0.8} date 2025-02-07T18:15:17+0900
; FORMAT={-:-/ absolute / inch / decimal}
; #@! TF.CreationDate,2025-02-07T18:15:17+09:00
; #@! TF.GenerationSoftware,Kicad,Pcbnew,8.0.8
; #@! TF.FileFunction,Plated,1,2,PTH
FMAT,2
INCH
; #@! TA.AperFunction,Plated,PTH,ViaDrill
T1C0.0157
; #@! TA.AperFunction,Plated,PTH,ComponentDrill
T2C0.0315
; #@! TA.AperFunction,Plated,PTH,ComponentDrill
T3C0.0350
; #@! TA.AperFunction,Plated,PTH,ComponentDrill
T4C0.0354
; #@! TA.AperFunction,Plated,PTH,ComponentDrill
T5C0.0394
; #@! TA.AperFunction,Plated,PTH,ComponentDrill
T6C0.0640
%
G90
G05
T1
X2.0276Y-3.563
X2.0669Y-2.0472
X2.0669Y-2.3622
X2.0669Y-2.5591
X2.0669Y-2.7559
X2.0669Y-2.9331
X2.0669Y-3.1102
X2.0669Y-4.311
X2.0866Y-3.7795
X2.0866Y-3.937
X2.1457Y-4.2126
X2.1654Y-3.8583
X2.185Y-3.2087
X2.185Y-3.3661
X2.2244Y-4.311
X2.2441Y-3.7795
X2.2441Y-3.937
X2.3228Y-2.0472
X2.4409Y-2.7953
X2.4409Y-3.4252
X2.4606Y-3.8386
X2.4803Y-3.0709
X2.5197Y-3.6024
X2.5591Y-2.0472
X2.6181Y-3.4252
X2.6181Y-3.6024
X2.6181Y-3.8386
X2.6378Y-2.6772
X2.6575Y-2.3819
X2.6575Y-2.7756
X2.6772Y-4.0551
X2.6772Y-4.1929
X2.6772Y-4.3307
X2.6969Y-2.4803
X2.6969Y-3.7598
X2.7165Y-2.9528
X2.7559Y-2.1654
X2.7559Y-2.6575
X2.7559Y-3.6614
X2.7756Y-2.815
X2.7756Y-3.248
X2.815Y-2.3425
X2.8543Y-2.5197
X2.8543Y-2.8543
X2.874Y-3.5039
X2.8937Y-3.2283
X2.9331Y-2.0866
X2.9528Y-2.8937
X2.9724Y-2.185
X2.9724Y-3.6614
X2.9724Y-3.8386
X2.9921Y-2.2835
X3.0118Y-2.8346
X3.0118Y-3.0118
X3.0244Y-3.2791
X3.0512Y-4.0551
X3.0512Y-4.1929
X3.0512Y-4.3307
X3.0621Y-2.7856
X3.0709Y-2.5
X3.1102Y-2.874
X3.1102Y-3.5039
X3.1299Y-3.0709
X3.1496Y-3.3268
X3.189Y-2.1457
X3.2087Y-2.0276
X3.2087Y-3.6614
X3.2087Y-3.8386
X3.2444Y-3.2691
X3.248Y-3.3268
X3.2677Y-3.189
X3.2874Y-2.0276
X3.2874Y-2.4803
X3.3465Y-3.5827
X3.3661Y-3.3268
X3.3661Y-4.0354
X3.3661Y-4.1929
X3.3661Y-4.3307
X3.3858Y-3.622
X3.3944Y-3.1706
X3.4055Y-2.3819
X3.4344Y-3.1691
X3.4449Y-3.4646
X3.4542Y-3.2693
X3.4646Y-2.0669
X3.4646Y-2.2441
X3.4646Y-3.3268
X3.5236Y-3.7205
X3.5433Y-3.3465
X3.5444Y-3.0791
X3.563Y-2.7559
X3.622Y-3.7205
X3.6417Y-3.3661
X3.6614Y-3.1693
X3.6811Y-2.9724
X3.7008Y-2.0669
X3.7008Y-2.2441
X3.7205Y-2.5197
X3.7205Y-3.7205
X3.7402Y-3.4449
T2
X2.4195Y-2.2244
X2.4982Y-2.2244
X3.189Y-2.5391
X3.189Y-2.6178
T3
X2.2878Y-2.6509
X2.2878Y-2.7309
X2.2878Y-2.8109
X2.2878Y-2.8909
X2.3578Y-2.6109
X2.3578Y-2.6909
X2.3578Y-2.7709
X2.3578Y-2.8509
X2.5478Y-2.4809
X2.5478Y-2.5709
X2.5478Y-2.9309
X2.5478Y-3.0209
T4
X2.3819Y-3.5891
X2.3819Y-3.6875
X2.4459Y-3.9991
X2.5444Y-3.9991
X2.8259Y-3.9991
X2.9244Y-3.9991
X3.2044Y-3.9991
X3.3028Y-3.9991
T5
X3.5244Y-2.3772
X3.5244Y-2.4772
X3.5244Y-2.5772
X3.5244Y-2.6772
X3.6244Y-2.3772
X3.6244Y-2.4772
X3.6244Y-2.5772
X3.6244Y-2.6772
T6
X2.3228Y-2.4309
X2.3228Y-3.0709
M30
